  0
SECTION
  2
HEADER
  9
$ACADVER
  1
AC1009
  9
$DWGCODEPAGE
  3
ansi_1252
  9
$INSBASE
 10
0.0
 20
0.0
 30
0.0
  9
$EXTMIN
 10
1.000000000000000E+20
 20
1.000000000000000E+20
 30
1.000000000000000E+20
  9
$EXTMAX
 10
-1.000000000000000E+20
 20
-1.000000000000000E+20
 30
-1.000000000000000E+20
  9
$LIMMIN
 10
0.0
 20
0.0
  9
$LIMMAX
 10
12.0
 20
9.0
  9
$ORTHOMODE
 70
     0
  9
$REGENMODE
 70
     1
  9
$FILLMODE
 70
     1
  9
$QTEXTMODE
 70
     0
  9
$MIRRTEXT
 70
     1
  9
$DRAGMODE
 70
     2
  9
$LTSCALE
 40
1.0
  9
$OSMODE
 70
    37
  9
$ATTMODE
 70
     1
  9
$TEXTSIZE
 40
0.2
  9
$TRACEWID
 40
0.05
  9
$TEXTSTYLE
  7
STANDARD
  9
$CLAYER
  8
0
  9
$CELTYPE
  6
BYLAYER
  9
$CECOLOR
 62
   256
  9
$DIMSCALE
 40
1.0
  9
$DIMASZ
 40
0.18
  9
$DIMEXO
 40
0.0625
  9
$DIMDLI
 40
0.38
  9
$DIMRND
 40
0.0
  9
$DIMDLE
 40
0.0
  9
$DIMEXE
 40
0.18
  9
$DIMTP
 40
0.0
  9
$DIMTM
 40
0.0
  9
$DIMTXT
 40
0.18
  9
$DIMCEN
 40
0.09
  9
$DIMTSZ
 40
0.0
  9
$DIMTOL
 70
     0
  9
$DIMLIM
 70
     0
  9
$DIMTIH
 70
     1
  9
$DIMTOH
 70
     1
  9
$DIMSE1
 70
     0
  9
$DIMSE2
 70
     0
  9
$DIMTAD
 70
     0
  9
$DIMZIN
 70
     0
  9
$DIMBLK
  1

  9
$DIMASO
 70
     1
  9
$DIMSHO
 70
     1
  9
$DIMPOST
  1

  9
$DIMAPOST
  1

  9
$DIMALT
 70
     0
  9
$DIMALTD
 70
     2
  9
$DIMALTF
 40
25.4
  9
$DIMLFAC
 40
1.0
  9
$DIMTOFL
 70
     0
  9
$DIMTVP
 40
0.0
  9
$DIMTIX
 70
     0
  9
$DIMSOXD
 70
     0
  9
$DIMSAH
 70
     0
  9
$DIMBLK1
  1

  9
$DIMBLK2
  1

  9
$DIMSTYLE
  2
STANDARD
  9
$DIMCLRD
 70
     0
  9
$DIMCLRE
 70
     0
  9
$DIMCLRT
 70
     0
  9
$DIMTFAC
 40
1.0
  9
$DIMGAP
 40
0.09
  9
$LUNITS
 70
     2
  9
$LUPREC
 70
     4
  9
$SKETCHINC
 40
0.1
  9
$FILLETRAD
 40
0.0
  9
$AUNITS
 70
     0
  9
$AUPREC
 70
     0
  9
$MENU
  1
.
  9
$ELEVATION
 40
0.0
  9
$PELEVATION
 40
0.0
  9
$THICKNESS
 40
0.0
  9
$LIMCHECK
 70
     0
  9
$CHAMFERA
 40
0.0
  9
$CHAMFERB
 40
0.0
  9
$SKPOLY
 70
     0
  9
$TDCREATE
 40
2460702.545941701
  9
$TDUPDATE
 40
2460702.545942454
  9
$TDINDWG
 40
0.0000000116
  9
$TDUSRTIMER
 40
0.0000000116
  9
$USRTIMER
 70
     1
  9
$ANGBASE
 50
0.0
  9
$ANGDIR
 70
     0
  9
$PDMODE
 70
     0
  9
$PDSIZE
 40
0.0
  9
$PLINEWID
 40
0.0
  9
$COORDS
 70
     1
  9
$SPLFRAME
 70
     0
  9
$SPLINETYPE
 70
     6
  9
$SPLINESEGS
 70
     8
  9
$ATTDIA
 70
     0
  9
$ATTREQ
 70
     1
  9
$HANDLING
 70
     1
  9
$HANDSEED
  5
53D
  9
$SURFTAB1
 70
     6
  9
$SURFTAB2
 70
     6
  9
$SURFTYPE
 70
     6
  9
$SURFU
 70
     6
  9
$SURFV
 70
     6
  9
$UCSNAME
  2

  9
$UCSORG
 10
0.0
 20
0.0
 30
0.0
  9
$UCSXDIR
 10
1.0
 20
0.0
 30
0.0
  9
$UCSYDIR
 10
0.0
 20
1.0
 30
0.0
  9
$PUCSNAME
  2

  9
$PUCSORG
 10
0.0
 20
0.0
 30
0.0
  9
$PUCSXDIR
 10
1.0
 20
0.0
 30
0.0
  9
$PUCSYDIR
 10
0.0
 20
1.0
 30
0.0
  9
$USERI1
 70
     0
  9
$USERI2
 70
     0
  9
$USERI3
 70
     0
  9
$USERI4
 70
     0
  9
$USERI5
 70
     0
  9
$USERR1
 40
0.0
  9
$USERR2
 40
0.0
  9
$USERR3
 40
0.0
  9
$USERR4
 40
0.0
  9
$USERR5
 40
0.0
  9
$WORLDVIEW
 70
     1
  9
$SHADEDGE
 70
     3
  9
$SHADEDIF
 70
    70
  9
$TILEMODE
 70
     1
  9
$MAXACTVP
 70
    64
  9
$PLIMCHECK
 70
     0
  9
$PEXTMIN
 10
1.000000000000000E+20
 20
1.000000000000000E+20
 30
1.000000000000000E+20
  9
$PEXTMAX
 10
-1.000000000000000E+20
 20
-1.000000000000000E+20
 30
-1.000000000000000E+20
  9
$PLIMMIN
 10
0.0
 20
0.0
  9
$PLIMMAX
 10
12.0
 20
9.0
  9
$UNITMODE
 70
     0
  9
$VISRETAIN
 70
     1
  9
$PLINEGEN
 70
     0
  9
$PSLTSCALE
 70
     1
  0
ENDSEC
  0
SECTION
  2
TABLES
  0
TABLE
  2
VPORT
 70
     1
  0
VPORT
  2
*ACTIVE
 70
     0
 10
0.0
 20
0.0
 11
1.0
 21
1.0
 12
0.0
 22
0.0
 13
0.0
 23
0.0
 14
0.5
 24
0.5
 15
0.5
 25
0.5
 16
0.0
 26
0.0
 36
1.0
 17
0.0
 27
0.0
 37
-1000.0
 40
1105.665513933431
 41
1.44
 42
50.0
 43
5289.981083676436
 44
6498.894446015724
 50
0.0
 51
0.0
 71
     0
 72
   100
 73
     1
 74
     3
 75
     0
 76
     0
 77
     0
 78
     0
  0
ENDTAB
  0
TABLE
  2
LTYPE
 70
     1
  0
LTYPE
  2
CONTINUOUS
 70
     0
  3
Solid line
 72
    65
 73
     0
 40
0.0
  0
ENDTAB
  0
TABLE
  2
LAYER
 70
     3
  0
LAYER
  2
0
 70
     0
 62
     7
  6
CONTINUOUS
  0
LAYER
  2
PROFILEEDGES
 70
     0
 62
     7
  6
CONTINUOUS
  0
LAYER
  2
SECTIONCUTEDGES
 70
     0
 62
     7
  6
CONTINUOUS
  0
ENDTAB
  0
TABLE
  2
STYLE
 70
     1
  0
STYLE
  2
STANDARD
 70
     0
 40
0.0
 41
1.0
 50
0.0
 71
     0
 42
0.2
  3
txt
  4

  0
ENDTAB
  0
TABLE
  2
VIEW
 70
     0
  0
ENDTAB
  0
TABLE
  2
UCS
 70
     0
  0
ENDTAB
  0
TABLE
  2
APPID
 70
     1
  0
APPID
  2
ACAD
 70
     0
  0
ENDTAB
  0
TABLE
  2
DIMSTYLE
 70
     1
  0
DIMSTYLE
  2
STANDARD
 70
     0
  3

  4

  5

  6

  7

 40
1.0
 41
0.18
 42
0.0625
 43
0.38
 44
0.18
 45
0.0
 46
0.0
 47
0.0
 48
0.0
140
0.18
141
0.09
142
0.0
143
25.4
144
1.0
145
0.0
146
1.0
147
0.09
 71
     0
 72
     0
 73
     1
 74
     1
 75
     0
 76
     0
 77
     0
 78
     0
170
     0
171
     2
172
     0
173
     0
174
     0
175
     0
176
     0
177
     0
178
     0
  0
ENDTAB
  0
ENDSEC
  0
SECTION
  2
BLOCKS
  0
BLOCK
  8
0
  2
$MODEL_SPACE
 70
     0
 10
0.0
 20
0.0
 30
0.0
  3
$MODEL_SPACE
  1

  0
ENDBLK
  5
21
  8
0
  0
BLOCK
 67
     1
  8
0
  2
$PAPER_SPACE
 70
     0
 10
0.0
 20
0.0
 30
0.0
  3
$PAPER_SPACE
  1

  0
ENDBLK
  5
1D
 67
     1
  8
0
  0
ENDSEC
  0
SECTION
  2
ENTITIES
  0
LINE
  5
60
  8
0
 10
-545.0429925802746
 20
291.9266185588065
 30
0.0
 11
-545.0429925802746
 21
178.3266185588066
 31
0.0
  0
LINE
  5
61
  8
0
 10
-509.9429925802744
 20
199.2266185588066
 30
0.0
 11
-509.9429925802744
 21
178.3266185588066
 31
0.0
  0
LINE
  5
62
  8
0
 10
-310.3429925802745
 20
178.3266185588066
 30
0.0
 11
-310.3429925802745
 21
291.9266185588065
 31
0.0
  0
LINE
  5
63
  8
0
 10
-345.4429925802746
 20
199.2266185588066
 30
0.0
 11
-509.9429925802744
 21
199.2266185588066
 31
0.0
  0
LINE
  5
64
  8
0
 10
-545.0429925802746
 20
178.3266185588066
 30
0.0
 11
-509.9429925802744
 21
178.3266185588066
 31
0.0
  0
LINE
  5
65
  8
0
 10
-310.3429925802745
 20
291.9266185588065
 30
0.0
 11
-545.0429925802746
 21
291.9266185588065
 31
0.0
  0
LINE
  5
66
  8
0
 10
-345.4429925802746
 20
178.3266185588066
 30
0.0
 11
-310.3429925802745
 21
178.3266185588066
 31
0.0
  0
LINE
  5
67
  8
0
 10
-345.4429925802746
 20
178.3266185588066
 30
0.0
 11
-345.4429925802746
 21
199.2266185588066
 31
0.0
  0
LINE
  5
68
  8
0
 10
-301.7597554691242
 20
350.4816953219184
 30
0.0
 11
-301.1641676918558
 21
350.5601059403283
 31
0.0
  0
LINE
  5
69
  8
0
 10
-298.941403846722
 20
347.6633436995155
 30
0.0
 11
-299.171292147887
 21
347.1083442450117
 31
0.0
  0
LINE
  5
6A
  8
0
 10
-298.8629932283131
 20
348.2589314767846
 30
0.0
 11
-298.941403846722
 21
347.6633436995155
 31
0.0
  0
LINE
  5
6B
  8
0
 10
-299.171292147887
 20
347.1083442450117
 30
0.0
 11
-299.5369916239914
 21
346.6317554089192
 31
0.0
  0
LINE
  5
6C
  8
0
 10
-302.7913437597194
 20
349.886107544649
 30
0.0
 11
-302.3147549236278
 21
350.2518070207526
 31
0.0
  0
LINE
  5
6D
  8
0
 10
-300.0135804600844
 20
350.2518070207529
 30
0.0
 11
-299.5369916239906
 21
349.8861075446493
 31
0.0
  0
LINE
  5
6E
  8
0
 10
-299.5369916239914
 20
346.6317554089192
 30
0.0
 11
-300.0135804600844
 21
346.2660559328158
 31
0.0
  0
LINE
  5
6F
  8
0
 10
-300.0135804600844
 20
346.2660559328158
 30
0.0
 11
-300.5685799145874
 21
346.0361676316505
 31
0.0
  0
LINE
  5
70
  8
0
 10
-301.7597554691251
 20
346.0361676316505
 30
0.0
 11
-302.3147549236284
 21
346.2660559328156
 31
0.0
  0
LINE
  5
71
  8
0
 10
-302.3147549236284
 20
346.2660559328156
 30
0.0
 11
-302.7913437597194
 21
346.6317554089192
 31
0.0
  0
LINE
  5
72
  8
0
 10
-302.7913437597194
 20
346.6317554089192
 30
0.0
 11
-303.1570432358249
 21
347.1083442450117
 31
0.0
  0
LINE
  5
73
  8
0
 10
-303.1570432358249
 20
347.1083442450117
 30
0.0
 11
-303.3869315369889
 21
347.6633436995155
 31
0.0
  0
LINE
  5
74
  8
0
 10
-299.171292147887
 20
349.4095187085559
 30
0.0
 11
-298.941403846722
 21
348.8545192540525
 31
0.0
  0
LINE
  5
75
  8
0
 10
-301.1641676918558
 20
350.5601059403283
 30
0.0
 11
-300.5685799145874
 21
350.4816953219184
 31
0.0
  0
LINE
  5
76
  8
0
 10
-299.5369916239906
 20
349.8861075446493
 30
0.0
 11
-299.171292147887
 21
349.4095187085559
 31
0.0
  0
LINE
  5
77
  8
0
 10
-301.1641676918562
 20
345.9577570132413
 30
0.0
 11
-301.7597554691251
 21
346.0361676316505
 31
0.0
  0
LINE
  5
78
  8
0
 10
-303.465342155399
 20
348.2589314767846
 30
0.0
 11
-303.3869315369889
 21
348.8545192540525
 31
0.0
  0
LINE
  5
79
  8
0
 10
-298.941403846722
 20
348.8545192540525
 30
0.0
 11
-298.8629932283131
 21
348.2589314767846
 31
0.0
  0
LINE
  5
7A
  8
0
 10
-300.5685799145874
 20
346.0361676316505
 30
0.0
 11
-301.1641676918562
 21
345.9577570132413
 31
0.0
  0
LINE
  5
7B
  8
0
 10
-303.3869315369889
 20
347.6633436995155
 30
0.0
 11
-303.465342155399
 21
348.2589314767846
 31
0.0
  0
LINE
  5
7C
  8
0
 10
-303.3869315369889
 20
348.8545192540525
 30
0.0
 11
-303.1570432358249
 21
349.4095187085559
 31
0.0
  0
LINE
  5
7D
  8
0
 10
-303.1570432358249
 20
349.4095187085559
 30
0.0
 11
-302.7913437597194
 21
349.886107544649
 31
0.0
  0
LINE
  5
7E
  8
0
 10
-300.5685799145874
 20
350.4816953219184
 30
0.0
 11
-300.0135804600844
 21
350.2518070207529
 31
0.0
  0
LINE
  5
7F
  8
0
 10
-302.3147549236278
 20
350.2518070207526
 30
0.0
 11
-301.7597554691242
 21
350.4816953219184
 31
0.0
  0
LINE
  5
80
  8
0
 10
-554.7597554691241
 20
350.4816953219184
 30
0.0
 11
-554.1641676918557
 21
350.5601059403283
 31
0.0
  0
LINE
  5
81
  8
0
 10
-551.941403846722
 20
347.6633436995155
 30
0.0
 11
-552.171292147887
 21
347.1083442450117
 31
0.0
  0
LINE
  5
82
  8
0
 10
-551.862993228313
 20
348.2589314767846
 30
0.0
 11
-551.941403846722
 21
347.6633436995155
 31
0.0
  0
LINE
  5
83
  8
0
 10
-552.171292147887
 20
347.1083442450117
 30
0.0
 11
-552.5369916239914
 21
346.6317554089192
 31
0.0
  0
LINE
  5
84
  8
0
 10
-555.7913437597194
 20
349.886107544649
 30
0.0
 11
-555.3147549236279
 21
350.2518070207526
 31
0.0
  0
LINE
  5
85
  8
0
 10
-553.0135804600843
 20
350.2518070207529
 30
0.0
 11
-552.5369916239906
 21
349.8861075446493
 31
0.0
  0
LINE
  5
86
  8
0
 10
-552.5369916239914
 20
346.6317554089192
 30
0.0
 11
-553.0135804600843
 21
346.2660559328158
 31
0.0
  0
LINE
  5
87
  8
0
 10
-553.0135804600843
 20
346.2660559328158
 30
0.0
 11
-553.5685799145873
 21
346.0361676316505
 31
0.0
  0
LINE
  5
88
  8
0
 10
-554.7597554691251
 20
346.0361676316505
 30
0.0
 11
-555.3147549236284
 21
346.2660559328156
 31
0.0
  0
LINE
  5
89
  8
0
 10
-555.3147549236284
 20
346.2660559328156
 30
0.0
 11
-555.7913437597194
 21
346.6317554089192
 31
0.0
  0
LINE
  5
8A
  8
0
 10
-555.7913437597194
 20
346.6317554089192
 30
0.0
 11
-556.1570432358249
 21
347.1083442450117
 31
0.0
  0
LINE
  5
8B
  8
0
 10
-556.1570432358249
 20
347.1083442450117
 30
0.0
 11
-556.3869315369889
 21
347.6633436995155
 31
0.0
  0
LINE
  5
8C
  8
0
 10
-552.171292147887
 20
349.4095187085559
 30
0.0
 11
-551.941403846722
 21
348.8545192540525
 31
0.0
  0
LINE
  5
8D
  8
0
 10
-554.1641676918557
 20
350.5601059403283
 30
0.0
 11
-553.5685799145873
 21
350.4816953219184
 31
0.0
  0
LINE
  5
8E
  8
0
 10
-552.5369916239906
 20
349.8861075446493
 30
0.0
 11
-552.171292147887
 21
349.4095187085559
 31
0.0
  0
LINE
  5
8F
  8
0
 10
-554.1641676918562
 20
345.9577570132413
 30
0.0
 11
-554.7597554691251
 21
346.0361676316505
 31
0.0
  0
LINE
  5
90
  8
0
 10
-556.465342155399
 20
348.2589314767846
 30
0.0
 11
-556.3869315369889
 21
348.8545192540525
 31
0.0
  0
LINE
  5
91
  8
0
 10
-551.941403846722
 20
348.8545192540525
 30
0.0
 11
-551.862993228313
 21
348.2589314767846
 31
0.0
  0
LINE
  5
92
  8
0
 10
-553.5685799145873
 20
346.0361676316505
 30
0.0
 11
-554.1641676918562
 21
345.9577570132413
 31
0.0
  0
LINE
  5
93
  8
0
 10
-556.3869315369889
 20
347.6633436995155
 30
0.0
 11
-556.465342155399
 21
348.2589314767846
 31
0.0
  0
LINE
  5
94
  8
0
 10
-556.3869315369889
 20
348.8545192540525
 30
0.0
 11
-556.1570432358249
 21
349.4095187085559
 31
0.0
  0
LINE
  5
95
  8
0
 10
-556.1570432358249
 20
349.4095187085559
 30
0.0
 11
-555.7913437597194
 21
349.886107544649
 31
0.0
  0
LINE
  5
96
  8
0
 10
-553.5685799145873
 20
350.4816953219184
 30
0.0
 11
-553.0135804600843
 21
350.2518070207529
 31
0.0
  0
LINE
  5
97
  8
0
 10
-555.3147549236279
 20
350.2518070207526
 30
0.0
 11
-554.7597554691241
 21
350.4816953219184
 31
0.0
  0
LINE
  5
98
  8
0
 10
-554.7597554691243
 20
180.4816953219184
 30
0.0
 11
-554.1641676918559
 21
180.5601059403283
 31
0.0
  0
LINE
  5
99
  8
0
 10
-551.9414038467222
 20
177.6633436995155
 30
0.0
 11
-552.1712921478872
 21
177.1083442450117
 31
0.0
  0
LINE
  5
9A
  8
0
 10
-551.8629932283133
 20
178.2589314767846
 30
0.0
 11
-551.9414038467222
 21
177.6633436995155
 31
0.0
  0
LINE
  5
9B
  8
0
 10
-552.1712921478872
 20
177.1083442450117
 30
0.0
 11
-552.5369916239916
 21
176.6317554089192
 31
0.0
  0
LINE
  5
9C
  8
0
 10
-555.7913437597197
 20
179.8861075446489
 30
0.0
 11
-555.314754923628
 21
180.2518070207525
 31
0.0
  0
LINE
  5
9D
  8
0
 10
-553.0135804600845
 20
180.2518070207529
 30
0.0
 11
-552.5369916239907
 21
179.8861075446493
 31
0.0
  0
LINE
  5
9E
  8
0
 10
-552.5369916239916
 20
176.6317554089192
 30
0.0
 11
-553.0135804600845
 21
176.2660559328158
 31
0.0
  0
LINE
  5
9F
  8
0
 10
-553.0135804600845
 20
176.2660559328158
 30
0.0
 11
-553.5685799145875
 21
176.0361676316504
 31
0.0
  0
LINE
  5
A0
  8
0
 10
-554.7597554691253
 20
176.0361676316504
 30
0.0
 11
-555.3147549236286
 21
176.2660559328156
 31
0.0
  0
LINE
  5
A1
  8
0
 10
-555.3147549236286
 20
176.2660559328156
 30
0.0
 11
-555.7913437597197
 21
176.6317554089192
 31
0.0
  0
LINE
  5
A2
  8
0
 10
-555.7913437597197
 20
176.6317554089192
 30
0.0
 11
-556.157043235825
 21
177.1083442450117
 31
0.0
  0
LINE
  5
A3
  8
0
 10
-556.157043235825
 20
177.1083442450117
 30
0.0
 11
-556.3869315369891
 21
177.6633436995155
 31
0.0
  0
LINE
  5
A4
  8
0
 10
-552.1712921478872
 20
179.4095187085559
 30
0.0
 11
-551.9414038467222
 21
178.8545192540525
 31
0.0
  0
LINE
  5
A5
  8
0
 10
-554.1641676918559
 20
180.5601059403283
 30
0.0
 11
-553.5685799145875
 21
180.4816953219184
 31
0.0
  0
LINE
  5
A6
  8
0
 10
-552.5369916239907
 20
179.8861075446493
 30
0.0
 11
-552.1712921478872
 21
179.4095187085559
 31
0.0
  0
LINE
  5
A7
  8
0
 10
-554.1641676918564
 20
175.9577570132413
 30
0.0
 11
-554.7597554691253
 21
176.0361676316504
 31
0.0
  0
LINE
  5
A8
  8
0
 10
-556.4653421553992
 20
178.2589314767846
 30
0.0
 11
-556.3869315369891
 21
178.8545192540525
 31
0.0
  0
LINE
  5
A9
  8
0
 10
-551.9414038467222
 20
178.8545192540525
 30
0.0
 11
-551.8629932283133
 21
178.2589314767846
 31
0.0
  0
LINE
  5
AA
  8
0
 10
-553.5685799145875
 20
176.0361676316504
 30
0.0
 11
-554.1641676918564
 21
175.9577570132413
 31
0.0
  0
LINE
  5
AB
  8
0
 10
-556.3869315369891
 20
177.6633436995155
 30
0.0
 11
-556.4653421553992
 21
178.2589314767846
 31
0.0
  0
LINE
  5
AC
  8
0
 10
-556.3869315369891
 20
178.8545192540525
 30
0.0
 11
-556.157043235825
 21
179.4095187085559
 31
0.0
  0
LINE
  5
AD
  8
0
 10
-556.157043235825
 20
179.4095187085559
 30
0.0
 11
-555.7913437597197
 21
179.8861075446489
 31
0.0
  0
LINE
  5
AE
  8
0
 10
-553.5685799145875
 20
180.4816953219184
 30
0.0
 11
-553.0135804600845
 21
180.2518070207529
 31
0.0
  0
LINE
  5
AF
  8
0
 10
-555.314754923628
 20
180.2518070207525
 30
0.0
 11
-554.7597554691243
 21
180.4816953219184
 31
0.0
  0
LINE
  5
B0
  8
0
 10
-301.7597554691242
 20
180.4816953219184
 30
0.0
 11
-301.1641676918558
 21
180.5601059403283
 31
0.0
  0
LINE
  5
B1
  8
0
 10
-298.941403846722
 20
177.6633436995155
 30
0.0
 11
-299.171292147887
 21
177.1083442450117
 31
0.0
  0
LINE
  5
B2
  8
0
 10
-298.8629932283131
 20
178.2589314767846
 30
0.0
 11
-298.941403846722
 21
177.6633436995155
 31
0.0
  0
LINE
  5
B3
  8
0
 10
-299.171292147887
 20
177.1083442450117
 30
0.0
 11
-299.5369916239914
 21
176.6317554089192
 31
0.0
  0
LINE
  5
B4
  8
0
 10
-302.7913437597194
 20
179.8861075446489
 30
0.0
 11
-302.3147549236278
 21
180.2518070207525
 31
0.0
  0
LINE
  5
B5
  8
0
 10
-300.0135804600844
 20
180.2518070207529
 30
0.0
 11
-299.5369916239906
 21
179.8861075446493
 31
0.0
  0
LINE
  5
B6
  8
0
 10
-299.5369916239914
 20
176.6317554089192
 30
0.0
 11
-300.0135804600844
 21
176.2660559328158
 31
0.0
  0
LINE
  5
B7
  8
0
 10
-300.0135804600844
 20
176.2660559328158
 30
0.0
 11
-300.5685799145874
 21
176.0361676316504
 31
0.0
  0
LINE
  5
B8
  8
0
 10
-301.7597554691251
 20
176.0361676316504
 30
0.0
 11
-302.3147549236284
 21
176.2660559328156
 31
0.0
  0
LINE
  5
B9
  8
0
 10
-302.3147549236284
 20
176.2660559328156
 30
0.0
 11
-302.7913437597194
 21
176.6317554089192
 31
0.0
  0
LINE
  5
BA
  8
0
 10
-302.7913437597194
 20
176.6317554089192
 30
0.0
 11
-303.1570432358249
 21
177.1083442450117
 31
0.0
  0
LINE
  5
BB
  8
0
 10
-303.1570432358249
 20
177.1083442450117
 30
0.0
 11
-303.3869315369889
 21
177.6633436995155
 31
0.0
  0
LINE
  5
BC
  8
0
 10
-299.171292147887
 20
179.4095187085559
 30
0.0
 11
-298.941403846722
 21
178.8545192540525
 31
0.0
  0
LINE
  5
BD
  8
0
 10
-301.1641676918558
 20
180.5601059403283
 30
0.0
 11
-300.5685799145874
 21
180.4816953219184
 31
0.0
  0
LINE
  5
BE
  8
0
 10
-299.5369916239906
 20
179.8861075446493
 30
0.0
 11
-299.171292147887
 21
179.4095187085559
 31
0.0
  0
LINE
  5
BF
  8
0
 10
-301.1641676918562
 20
175.9577570132413
 30
0.0
 11
-301.7597554691251
 21
176.0361676316504
 31
0.0
  0
LINE
  5
C0
  8
0
 10
-303.465342155399
 20
178.2589314767846
 30
0.0
 11
-303.3869315369889
 21
178.8545192540525
 31
0.0
  0
LINE
  5
C1
  8
0
 10
-298.941403846722
 20
178.8545192540525
 30
0.0
 11
-298.8629932283131
 21
178.2589314767846
 31
0.0
  0
LINE
  5
C2
  8
0
 10
-300.5685799145874
 20
176.0361676316504
 30
0.0
 11
-301.1641676918562
 21
175.9577570132413
 31
0.0
  0
LINE
  5
C3
  8
0
 10
-303.3869315369889
 20
177.6633436995155
 30
0.0
 11
-303.465342155399
 21
178.2589314767846
 31
0.0
  0
LINE
  5
C4
  8
0
 10
-303.3869315369889
 20
178.8545192540525
 30
0.0
 11
-303.1570432358249
 21
179.4095187085559
 31
0.0
  0
LINE
  5
C5
  8
0
 10
-303.1570432358249
 20
179.4095187085559
 30
0.0
 11
-302.7913437597194
 21
179.8861075446489
 31
0.0
  0
LINE
  5
C6
  8
0
 10
-300.5685799145874
 20
180.4816953219184
 30
0.0
 11
-300.0135804600844
 21
180.2518070207529
 31
0.0
  0
LINE
  5
C7
  8
0
 10
-302.3147549236278
 20
180.2518070207525
 30
0.0
 11
-301.7597554691242
 21
180.4816953219184
 31
0.0
  0
LINE
  5
C8
  8
0
 10
-144.5916184667091
 20
178.4925888682259
 30
0.0
 11
-133.2796236628519
 21
167.0342180205673
 31
0.0
  0
LINE
  5
C9
  8
0
 10
-133.2796236628519
 20
218.0342180205674
 30
0.0
 11
-144.5916184667091
 21
206.5758471729089
 31
0.0
  0
LINE
  5
CA
  8
0
 10
-133.2796236628519
 20
218.0342180205674
 30
0.0
 11
-8.29589991605584
 21
218.0342180205674
 31
0.0
  0
LINE
  5
CB
  8
0
 10
3.065629445688554
 20
206.5649439586548
 30
0.0
 11
3.065629445688554
 21
178.4925888682256
 31
0.0
  0
LINE
  5
CC
  8
0
 10
3.065629445688554
 20
178.4925888682256
 30
0.0
 11
-8.246365358168989
 21
167.0342180205673
 31
0.0
  0
LINE
  5
CD
  8
0
 10
-8.29589991605584
 20
218.0342180205674
 30
0.0
 11
3.065629445688554
 21
206.5649439586548
 31
0.0
  0
LINE
  5
CE
  8
0
 10
-133.2796236628519
 20
167.0342180205673
 30
0.0
 11
-8.246365358168989
 21
167.0342180205673
 31
0.0
  0
LINE
  5
CF
  8
0
 10
-144.5916184667091
 20
206.5758471729089
 30
0.0
 11
-144.5916184667091
 21
178.4925888682259
 31
0.0
  0
LINE
  5
D0
  8
0
 10
-145.13799451051
 20
207.4480188724778
 30
0.0
 11
-145.2018835862181
 21
206.9627331629106
 31
0.0
  0
LINE
  5
D1
  8
0
 10
-145.6871692957854
 20
206.122193657753
 30
0.0
 11
-146.0754945105101
 21
205.824221240382
 31
0.0
  0
LINE
  5
D2
  8
0
 10
-148.8879945105102
 20
207.4480188724778
 30
0.0
 11
-148.824105434802
 21
207.933304582045
 31
0.0
  0
LINE
  5
D3
  8
0
 10
-148.824105434802
 20
206.9627331629106
 30
0.0
 11
-148.8879945105102
 21
207.4480188724778
 31
0.0
  0
LINE
  5
D4
  8
0
 10
-148.636792142606
 20
208.3855188724778
 30
0.0
 11
-148.3388197252348
 21
208.7738440872026
 31
0.0
  0
LINE
  5
D5
  8
0
 10
-147.9504945105101
 20
205.824221240382
 30
0.0
 11
-148.3388197252348
 21
206.122193657753
 31
0.0
  0
LINE
  5
D6
  8
0
 10
-148.3388197252348
 20
208.7738440872026
 30
0.0
 11
-147.9504945105101
 21
209.0718165045736
 31
0.0
  0
LINE
  5
D7
  8
0
 10
-147.0129945105099
 20
205.5730188724778
 30
0.0
 11
-147.4982802200773
 21
205.6369079481858
 31
0.0
  0
LINE
  5
D8
  8
0
 10
-145.2018835862181
 20
207.933304582045
 30
0.0
 11
-145.13799451051
 21
207.4480188724778
 31
0.0
  0
LINE
  5
D9
  8
0
 10
-146.5277088009428
 20
209.2591297967698
 30
0.0
 11
-146.0754945105101
 21
209.0718165045736
 31
0.0
  0
LINE
  5
DA
  8
0
 10
-148.3388197252348
 20
206.122193657753
 30
0.0
 11
-148.636792142606
 21
206.5105188724778
 31
0.0
  0
LINE
  5
DB
  8
0
 10
-148.824105434802
 20
207.933304582045
 30
0.0
 11
-148.636792142606
 21
208.3855188724778
 31
0.0
  0
LINE
  5
DC
  8
0
 10
-146.5277088009428
 20
205.6369079481858
 30
0.0
 11
-147.0129945105099
 21
205.5730188724778
 31
0.0
  0
LINE
  5
DD
  8
0
 10
-147.0129945105099
 20
209.3230188724778
 30
0.0
 11
-146.5277088009428
 21
209.2591297967698
 31
0.0
  0
LINE
  5
DE
  8
0
 10
-147.4982802200773
 20
209.2591297967698
 30
0.0
 11
-147.0129945105099
 21
209.3230188724778
 31
0.0
  0
LINE
  5
DF
  8
0
 10
-145.3891968784142
 20
208.3855188724778
 30
0.0
 11
-145.2018835862181
 21
207.933304582045
 31
0.0
  0
LINE
  5
E0
  8
0
 10
-145.6871692957854
 20
208.7738440872026
 30
0.0
 11
-145.3891968784142
 21
208.3855188724778
 31
0.0
  0
LINE
  5
E1
  8
0
 10
-146.0754945105101
 20
205.824221240382
 30
0.0
 11
-146.5277088009428
 21
205.6369079481858
 31
0.0
  0
LINE
  5
E2
  8
0
 10
-147.9504945105101
 20
209.0718165045736
 30
0.0
 11
-147.4982802200773
 21
209.2591297967698
 31
0.0
  0
LINE
  5
E3
  8
0
 10
-147.4982802200773
 20
205.6369079481858
 30
0.0
 11
-147.9504945105101
 21
205.824221240382
 31
0.0
  0
LINE
  5
E4
  8
0
 10
-145.2018835862181
 20
206.9627331629106
 30
0.0
 11
-145.3891968784142
 21
206.5105188724778
 31
0.0
  0
LINE
  5
E5
  8
0
 10
-146.0754945105101
 20
209.0718165045736
 30
0.0
 11
-145.6871692957854
 21
208.7738440872026
 31
0.0
  0
LINE
  5
E6
  8
0
 10
-145.3891968784142
 20
206.5105188724778
 30
0.0
 11
-145.6871692957854
 21
206.122193657753
 31
0.0
  0
LINE
  5
E7
  8
0
 10
-148.636792142606
 20
206.5105188724778
 30
0.0
 11
-148.824105434802
 21
206.9627331629106
 31
0.0
  0
LINE
  5
E8
  8
0
 10
-145.13799451051
 20
177.4480188724778
 30
0.0
 11
-145.2018835862181
 21
176.9627331629106
 31
0.0
  0
LINE
  5
E9
  8
0
 10
-145.6871692957854
 20
176.122193657753
 30
0.0
 11
-146.0754945105101
 21
175.824221240382
 31
0.0
  0
LINE
  5
EA
  8
0
 10
-148.8879945105102
 20
177.4480188724778
 30
0.0
 11
-148.824105434802
 21
177.933304582045
 31
0.0
  0
LINE
  5
EB
  8
0
 10
-148.824105434802
 20
176.9627331629106
 30
0.0
 11
-148.8879945105102
 21
177.4480188724778
 31
0.0
  0
LINE
  5
EC
  8
0
 10
-148.636792142606
 20
178.3855188724777
 30
0.0
 11
-148.3388197252348
 21
178.7738440872026
 31
0.0
  0
LINE
  5
ED
  8
0
 10
-147.9504945105101
 20
175.824221240382
 30
0.0
 11
-148.3388197252348
 21
176.122193657753
 31
0.0
  0
LINE
  5
EE
  8
0
 10
-148.3388197252348
 20
178.7738440872026
 30
0.0
 11
-147.9504945105101
 21
179.0718165045736
 31
0.0
  0
LINE
  5
EF
  8
0
 10
-147.0129945105099
 20
175.5730188724778
 30
0.0
 11
-147.4982802200773
 21
175.6369079481858
 31
0.0
  0
LINE
  5
F0
  8
0
 10
-145.2018835862181
 20
177.933304582045
 30
0.0
 11
-145.13799451051
 21
177.4480188724778
 31
0.0
  0
LINE
  5
F1
  8
0
 10
-146.5277088009428
 20
179.2591297967697
 30
0.0
 11
-146.0754945105101
 21
179.0718165045736
 31
0.0
  0
LINE
  5
F2
  8
0
 10
-148.3388197252348
 20
176.122193657753
 30
0.0
 11
-148.636792142606
 21
176.5105188724777
 31
0.0
  0
LINE
  5
F3
  8
0
 10
-148.824105434802
 20
177.933304582045
 30
0.0
 11
-148.636792142606
 21
178.3855188724777
 31
0.0
  0
LINE
  5
F4
  8
0
 10
-146.5277088009428
 20
175.6369079481858
 30
0.0
 11
-147.0129945105099
 21
175.5730188724778
 31
0.0
  0
LINE
  5
F5
  8
0
 10
-147.0129945105099
 20
179.3230188724778
 30
0.0
 11
-146.5277088009428
 21
179.2591297967697
 31
0.0
  0
LINE
  5
F6
  8
0
 10
-147.4982802200773
 20
179.2591297967697
 30
0.0
 11
-147.0129945105099
 21
179.3230188724778
 31
0.0
  0
LINE
  5
F7
  8
0
 10
-145.3891968784142
 20
178.3855188724777
 30
0.0
 11
-145.2018835862181
 21
177.933304582045
 31
0.0
  0
LINE
  5
F8
  8
0
 10
-145.6871692957854
 20
178.7738440872026
 30
0.0
 11
-145.3891968784142
 21
178.3855188724777
 31
0.0
  0
LINE
  5
F9
  8
0
 10
-146.0754945105101
 20
175.824221240382
 30
0.0
 11
-146.5277088009428
 21
175.6369079481858
 31
0.0
  0
LINE
  5
FA
  8
0
 10
-147.9504945105101
 20
179.0718165045736
 30
0.0
 11
-147.4982802200773
 21
179.2591297967697
 31
0.0
  0
LINE
  5
FB
  8
0
 10
-147.4982802200773
 20
175.6369079481858
 30
0.0
 11
-147.9504945105101
 21
175.824221240382
 31
0.0
  0
LINE
  5
FC
  8
0
 10
-145.2018835862181
 20
176.9627331629106
 30
0.0
 11
-145.3891968784142
 21
176.5105188724777
 31
0.0
  0
LINE
  5
FD
  8
0
 10
-146.0754945105101
 20
179.0718165045736
 30
0.0
 11
-145.6871692957854
 21
178.7738440872026
 31
0.0
  0
LINE
  5
FE
  8
0
 10
-145.3891968784142
 20
176.5105188724777
 30
0.0
 11
-145.6871692957854
 21
176.122193657753
 31
0.0
  0
LINE
  5
FF
  8
0
 10
-148.636792142606
 20
176.5105188724777
 30
0.0
 11
-148.824105434802
 21
176.9627331629106
 31
0.0
  0
LINE
  5
100
  8
0
 10
7.362005489489778
 20
177.4480188724778
 30
0.0
 11
7.298116413781643
 21
176.9627331629106
 31
0.0
  0
LINE
  5
101
  8
0
 10
6.812830704214392
 20
176.122193657753
 30
0.0
 11
6.424505489489652
 21
175.824221240382
 31
0.0
  0
LINE
  5
102
  8
0
 10
3.612005489489615
 20
177.4480188724778
 30
0.0
 11
3.67589456519775
 21
177.933304582045
 31
0.0
  0
LINE
  5
103
  8
0
 10
3.67589456519775
 20
176.9627331629106
 30
0.0
 11
3.612005489489615
 21
177.4480188724778
 31
0.0
  0
LINE
  5
104
  8
0
 10
3.863207857393799
 20
178.3855188724777
 30
0.0
 11
4.161180274765002
 21
178.7738440872026
 31
0.0
  0
LINE
  5
105
  8
0
 10
4.549505489489741
 20
175.824221240382
 30
0.0
 11
4.161180274765002
 21
176.122193657753
 31
0.0
  0
LINE
  5
106
  8
0
 10
4.161180274765002
 20
178.7738440872026
 30
0.0
 11
4.549505489489741
 21
179.0718165045736
 31
0.0
  0
LINE
  5
107
  8
0
 10
5.487005489489865
 20
175.5730188724778
 30
0.0
 11
5.001719779922445
 21
175.6369079481858
 31
0.0
  0
LINE
  5
108
  8
0
 10
7.298116413781643
 20
177.933304582045
 30
0.0
 11
7.362005489489778
 21
177.4480188724778
 31
0.0
  0
LINE
  5
109
  8
0
 10
5.972291199056948
 20
179.2591297967697
 30
0.0
 11
6.424505489489652
 21
179.0718165045736
 31
0.0
  0
LINE
  5
10A
  8
0
 10
4.161180274765002
 20
176.122193657753
 30
0.0
 11
3.863207857393799
 21
176.5105188724777
 31
0.0
  0
LINE
  5
10B
  8
0
 10
3.67589456519775
 20
177.933304582045
 30
0.0
 11
3.863207857393799
 21
178.3855188724777
 31
0.0
  0
LINE
  5
10C
  8
0
 10
5.972291199056948
 20
175.6369079481858
 30
0.0
 11
5.487005489489865
 21
175.5730188724778
 31
0.0
  0
LINE
  5
10D
  8
0
 10
5.487005489489865
 20
179.3230188724778
 30
0.0
 11
5.972291199056948
 21
179.2591297967697
 31
0.0
  0
LINE
  5
10E
  8
0
 10
5.001719779922445
 20
179.2591297967697
 30
0.0
 11
5.487005489489865
 21
179.3230188724778
 31
0.0
  0
LINE
  5
10F
  8
0
 10
7.110803121585594
 20
178.3855188724777
 30
0.0
 11
7.298116413781643
 21
177.933304582045
 31
0.0
  0
LINE
  5
110
  8
0
 10
6.812830704214392
 20
178.7738440872026
 30
0.0
 11
7.110803121585594
 21
178.3855188724777
 31
0.0
  0
LINE
  5
111
  8
0
 10
6.424505489489652
 20
175.824221240382
 30
0.0
 11
5.972291199056948
 21
175.6369079481858
 31
0.0
  0
LINE
  5
112
  8
0
 10
4.549505489489741
 20
179.0718165045736
 30
0.0
 11
5.001719779922445
 21
179.2591297967697
 31
0.0
  0
LINE
  5
113
  8
0
 10
5.001719779922445
 20
175.6369079481858
 30
0.0
 11
4.549505489489741
 21
175.824221240382
 31
0.0
  0
LINE
  5
114
  8
0
 10
7.298116413781643
 20
176.9627331629106
 30
0.0
 11
7.110803121585594
 21
176.5105188724777
 31
0.0
  0
LINE
  5
115
  8
0
 10
6.424505489489652
 20
179.0718165045736
 30
0.0
 11
6.812830704214392
 21
178.7738440872026
 31
0.0
  0
LINE
  5
116
  8
0
 10
7.110803121585594
 20
176.5105188724777
 30
0.0
 11
6.812830704214392
 21
176.122193657753
 31
0.0
  0
LINE
  5
117
  8
0
 10
3.863207857393799
 20
176.5105188724777
 30
0.0
 11
3.67589456519775
 21
176.9627331629106
 31
0.0
  0
LINE
  5
118
  8
0
 10
7.362005489489778
 20
207.4480188724778
 30
0.0
 11
7.298116413781643
 21
206.9627331629106
 31
0.0
  0
LINE
  5
119
  8
0
 10
6.812830704214392
 20
206.122193657753
 30
0.0
 11
6.424505489489652
 21
205.824221240382
 31
0.0
  0
LINE
  5
11A
  8
0
 10
3.612005489489615
 20
207.4480188724778
 30
0.0
 11
3.67589456519775
 21
207.933304582045
 31
0.0
  0
LINE
  5
11B
  8
0
 10
3.67589456519775
 20
206.9627331629106
 30
0.0
 11
3.612005489489615
 21
207.4480188724778
 31
0.0
  0
LINE
  5
11C
  8
0
 10
3.863207857393799
 20
208.3855188724778
 30
0.0
 11
4.161180274765002
 21
208.7738440872026
 31
0.0
  0
LINE
  5
11D
  8
0
 10
4.549505489489741
 20
205.824221240382
 30
0.0
 11
4.161180274765002
 21
206.122193657753
 31
0.0
  0
LINE
  5
11E
  8
0
 10
4.161180274765002
 20
208.7738440872026
 30
0.0
 11
4.549505489489741
 21
209.0718165045736
 31
0.0
  0
LINE
  5
11F
  8
0
 10
5.487005489489865
 20
205.5730188724778
 30
0.0
 11
5.001719779922445
 21
205.6369079481858
 31
0.0
  0
LINE
  5
120
  8
0
 10
7.298116413781643
 20
207.933304582045
 30
0.0
 11
7.362005489489778
 21
207.4480188724778
 31
0.0
  0
LINE
  5
121
  8
0
 10
5.972291199056948
 20
209.2591297967698
 30
0.0
 11
6.424505489489652
 21
209.0718165045736
 31
0.0
  0
LINE
  5
122
  8
0
 10
4.161180274765002
 20
206.122193657753
 30
0.0
 11
3.863207857393799
 21
206.5105188724778
 31
0.0
  0
LINE
  5
123
  8
0
 10
3.67589456519775
 20
207.933304582045
 30
0.0
 11
3.863207857393799
 21
208.3855188724778
 31
0.0
  0
LINE
  5
124
  8
0
 10
5.972291199056948
 20
205.6369079481858
 30
0.0
 11
5.487005489489865
 21
205.5730188724778
 31
0.0
  0
LINE
  5
125
  8
0
 10
5.487005489489865
 20
209.3230188724778
 30
0.0
 11
5.972291199056948
 21
209.2591297967698
 31
0.0
  0
LINE
  5
126
  8
0
 10
5.001719779922445
 20
209.2591297967698
 30
0.0
 11
5.487005489489865
 21
209.3230188724778
 31
0.0
  0
LINE
  5
127
  8
0
 10
7.110803121585594
 20
208.3855188724778
 30
0.0
 11
7.298116413781643
 21
207.933304582045
 31
0.0
  0
LINE
  5
128
  8
0
 10
6.812830704214392
 20
208.7738440872026
 30
0.0
 11
7.110803121585594
 21
208.3855188724778
 31
0.0
  0
LINE
  5
129
  8
0
 10
6.424505489489652
 20
205.824221240382
 30
0.0
 11
5.972291199056948
 21
205.6369079481858
 31
0.0
  0
LINE
  5
12A
  8
0
 10
4.549505489489741
 20
209.0718165045736
 30
0.0
 11
5.001719779922445
 21
209.2591297967698
 31
0.0
  0
LINE
  5
12B
  8
0
 10
5.001719779922445
 20
205.6369079481858
 30
0.0
 11
4.549505489489741
 21
205.824221240382
 31
0.0
  0
LINE
  5
12C
  8
0
 10
7.298116413781643
 20
206.9627331629106
 30
0.0
 11
7.110803121585594
 21
206.5105188724778
 31
0.0
  0
LINE
  5
12D
  8
0
 10
6.424505489489652
 20
209.0718165045736
 30
0.0
 11
6.812830704214392
 21
208.7738440872026
 31
0.0
  0
LINE
  5
12E
  8
0
 10
7.110803121585594
 20
206.5105188724778
 30
0.0
 11
6.812830704214392
 21
206.122193657753
 31
0.0
  0
LINE
  5
12F
  8
0
 10
3.863207857393799
 20
206.5105188724778
 30
0.0
 11
3.67589456519775
 21
206.9627331629106
 31
0.0
  0
LINE
  5
130
  8
0
 10
-0.47205830325204
 20
274.916441393266
 30
0.0
 11
-0.5913265389419079
 21
273.5568213932661
 31
0.0
  0
LINE
  5
131
  8
0
 10
-0.7888265389427382
 20
298.3490002680738
 30
0.0
 11
-0.7888265389427382
 21
330.1186202680738
 31
0.0
  0
LINE
  5
132
  8
0
 10
-0.47205830325204
 20
274.916441393266
 30
0.0
 11
7.868253336494885
 21
274.916441393266
 31
0.0
  0
LINE
  5
133
  8
0
 10
-120.1532219010194
 20
269.9485589198442
 30
0.0
 11
-10.01752979115357
 21
269.916441393266
 31
0.0
  0
LINE
  5
134
  8
0
 10
-10.01752979115357
 20
269.916441393266
 30
0.0
 11
-10.01752979115357
 21
273.5568213932661
 31
0.0
  0
LINE
  5
135
  8
0
 10
-9.171242291153545
 20
334.2590002680738
 30
0.0
 11
-9.171242291153545
 21
330.1186202680738
 31
0.0
  0
LINE
  5
136
  8
0
 10
-9.171242291153545
 20
334.2590002680738
 30
0.0
 11
-120.1532219010194
 21
334.2911177946519
 31
0.0
  0
LINE
  5
137
  8
0
 10
7.868253336494885
 20
274.916441393266
 30
0.0
 11
7.748985100804498
 21
298.3490002680738
 31
0.0
  0
LINE
  5
138
  8
0
 10
-120.1532219010194
 20
334.2911177946519
 30
0.0
 11
-120.1532219010194
 21
269.9485589198442
 31
0.0
  0
LINE
  5
139
  8
0
 10
-0.7888265389427382
 20
298.3490002680738
 30
0.0
 11
7.748985100804498
 21
298.3490002680738
 31
0.0
  0
LINE
  5
13A
  8
0
 10
-0.7888265389427382
 20
330.1186202680738
 30
0.0
 11
-9.171242291153545
 21
330.1186202680738
 31
0.0
  0
LINE
  5
13B
  8
0
 10
-0.5913265389419079
 20
273.5568213932661
 30
0.0
 11
-10.01752979115357
 21
273.5568213932661
 31
0.0
  0
LINE
  5
13C
  8
0
 10
-130.7251185244731
 20
272.637615155797
 30
0.0
 11
-130.7882089867349
 21
273.1229008653642
 31
0.0
  0
LINE
  5
13D
  8
0
 10
-131.2674286249325
 20
273.9634403705218
 30
0.0
 11
-131.6508997744732
 21
274.2614127878928
 31
0.0
  0
LINE
  5
13E
  8
0
 10
-134.4282435244733
 20
272.637615155797
 30
0.0
 11
-134.3651530622115
 21
272.1523294462298
 31
0.0
  0
LINE
  5
13F
  8
0
 10
-134.3651530622115
 20
273.1229008653642
 30
0.0
 11
-134.4282435244733
 21
272.637615155797
 31
0.0
  0
LINE
  5
140
  8
0
 10
-134.1801811861679
 20
271.7001151557971
 30
0.0
 11
-133.8859334240138
 21
271.3117899410722
 31
0.0
  0
LINE
  5
141
  8
0
 10
-133.5024622744731
 20
274.2614127878928
 30
0.0
 11
-133.8859334240138
 21
273.9634403705218
 31
0.0
  0
LINE
  5
142
  8
0
 10
-133.8859334240138
 20
271.3117899410722
 30
0.0
 11
-133.5024622744731
 21
271.0138175237012
 31
0.0
  0
LINE
  5
143
  8
0
 10
-132.576681024473
 20
274.512615155797
 30
0.0
 11
-133.0559006626708
 21
274.448726080089
 31
0.0
  0
LINE
  5
144
  8
0
 10
-130.7882089867349
 20
272.1523294462298
 30
0.0
 11
-130.7251185244731
 21
272.637615155797
 31
0.0
  0
LINE
  5
145
  8
0
 10
-132.0974613862755
 20
270.826504231505
 30
0.0
 11
-131.6508997744732
 21
271.0138175237012
 31
0.0
  0
LINE
  5
146
  8
0
 10
-133.8859334240138
 20
273.9634403705218
 30
0.0
 11
-134.1801811861679
 21
273.575115155797
 31
0.0
  0
LINE
  5
147
  8
0
 10
-134.3651530622115
 20
272.1523294462298
 30
0.0
 11
-134.1801811861679
 21
271.7001151557971
 31
0.0
  0
LINE
  5
148
  8
0
 10
-132.0974613862755
 20
274.448726080089
 30
0.0
 11
-132.576681024473
 21
274.512615155797
 31
0.0
  0
LINE
  5
149
  8
0
 10
-132.576681024473
 20
270.762615155797
 30
0.0
 11
-132.0974613862755
 21
270.826504231505
 31
0.0
  0
LINE
  5
14A
  8
0
 10
-133.0559006626708
 20
270.826504231505
 30
0.0
 11
-132.576681024473
 21
270.762615155797
 31
0.0
  0
LINE
  5
14B
  8
0
 10
-130.9731808627785
 20
271.7001151557971
 30
0.0
 11
-130.7882089867349
 21
272.1523294462298
 31
0.0
  0
LINE
  5
14C
  8
0
 10
-131.2674286249325
 20
271.3117899410722
 30
0.0
 11
-130.9731808627785
 21
271.7001151557971
 31
0.0
  0
LINE
  5
14D
  8
0
 10
-131.6508997744732
 20
274.2614127878928
 30
0.0
 11
-132.0974613862755
 21
274.448726080089
 31
0.0
  0
LINE
  5
14E
  8
0
 10
-133.5024622744731
 20
271.0138175237012
 30
0.0
 11
-133.0559006626708
 21
270.826504231505
 31
0.0
  0
LINE
  5
14F
  8
0
 10
-133.0559006626708
 20
274.448726080089
 30
0.0
 11
-133.5024622744731
 21
274.2614127878928
 31
0.0
  0
LINE
  5
150
  8
0
 10
-130.7882089867349
 20
273.1229008653642
 30
0.0
 11
-130.9731808627785
 21
273.575115155797
 31
0.0
  0
LINE
  5
151
  8
0
 10
-131.6508997744732
 20
271.0138175237012
 30
0.0
 11
-131.2674286249325
 21
271.3117899410722
 31
0.0
  0
LINE
  5
152
  8
0
 10
-130.9731808627785
 20
273.575115155797
 30
0.0
 11
-131.2674286249325
 21
273.9634403705218
 31
0.0
  0
LINE
  5
153
  8
0
 10
-134.1801811861679
 20
273.575115155797
 30
0.0
 11
-134.3651530622115
 21
273.1229008653642
 31
0.0
  0
LINE
  5
154
  8
0
 10
-130.7251185244731
 20
331.4476151557971
 30
0.0
 11
-130.7882089867349
 21
331.9329008653643
 31
0.0
  0
LINE
  5
155
  8
0
 10
-131.2674286249325
 20
332.7734403705218
 30
0.0
 11
-131.6508997744732
 21
333.0714127878928
 31
0.0
  0
LINE
  5
156
  8
0
 10
-134.4282435244733
 20
331.4476151557971
 30
0.0
 11
-134.3651530622115
 21
330.9623294462298
 31
0.0
  0
LINE
  5
157
  8
0
 10
-134.3651530622115
 20
331.9329008653643
 30
0.0
 11
-134.4282435244733
 21
331.4476151557971
 31
0.0
  0
LINE
  5
158
  8
0
 10
-134.1801811861679
 20
330.5101151557971
 30
0.0
 11
-133.8859334240138
 21
330.1217899410722
 31
0.0
  0
LINE
  5
159
  8
0
 10
-133.5024622744731
 20
333.0714127878928
 30
0.0
 11
-133.8859334240138
 21
332.7734403705218
 31
0.0
  0
LINE
  5
15A
  8
0
 10
-133.8859334240138
 20
330.1217899410722
 30
0.0
 11
-133.5024622744731
 21
329.8238175237012
 31
0.0
  0
LINE
  5
15B
  8
0
 10
-132.576681024473
 20
333.322615155797
 30
0.0
 11
-133.0559006626708
 21
333.258726080089
 31
0.0
  0
LINE
  5
15C
  8
0
 10
-130.7882089867349
 20
330.9623294462298
 30
0.0
 11
-130.7251185244731
 21
331.4476151557971
 31
0.0
  0
LINE
  5
15D
  8
0
 10
-132.0974613862755
 20
329.6365042315051
 30
0.0
 11
-131.6508997744732
 21
329.8238175237012
 31
0.0
  0
LINE
  5
15E
  8
0
 10
-133.8859334240138
 20
332.7734403705218
 30
0.0
 11
-134.1801811861679
 21
332.3851151557971
 31
0.0
  0
LINE
  5
15F
  8
0
 10
-134.3651530622115
 20
330.9623294462298
 30
0.0
 11
-134.1801811861679
 21
330.5101151557971
 31
0.0
  0
LINE
  5
160
  8
0
 10
-132.0974613862755
 20
333.258726080089
 30
0.0
 11
-132.576681024473
 21
333.322615155797
 31
0.0
  0
LINE
  5
161
  8
0
 10
-132.576681024473
 20
329.572615155797
 30
0.0
 11
-132.0974613862755
 21
329.6365042315051
 31
0.0
  0
LINE
  5
162
  8
0
 10
-133.0559006626708
 20
329.6365042315051
 30
0.0
 11
-132.576681024473
 21
329.572615155797
 31
0.0
  0
LINE
  5
163
  8
0
 10
-130.9731808627785
 20
330.5101151557971
 30
0.0
 11
-130.7882089867349
 21
330.9623294462298
 31
0.0
  0
LINE
  5
164
  8
0
 10
-131.2674286249325
 20
330.1217899410722
 30
0.0
 11
-130.9731808627785
 21
330.5101151557971
 31
0.0
  0
LINE
  5
165
  8
0
 10
-131.6508997744732
 20
333.0714127878928
 30
0.0
 11
-132.0974613862755
 21
333.258726080089
 31
0.0
  0
LINE
  5
166
  8
0
 10
-133.5024622744731
 20
329.8238175237012
 30
0.0
 11
-133.0559006626708
 21
329.6365042315051
 31
0.0
  0
LINE
  5
167
  8
0
 10
-133.0559006626708
 20
333.258726080089
 30
0.0
 11
-133.5024622744731
 21
333.0714127878928
 31
0.0
  0
LINE
  5
168
  8
0
 10
-130.7882089867349
 20
331.9329008653643
 30
0.0
 11
-130.9731808627785
 21
332.3851151557971
 31
0.0
  0
LINE
  5
169
  8
0
 10
-131.6508997744732
 20
329.8238175237012
 30
0.0
 11
-131.2674286249325
 21
330.1217899410722
 31
0.0
  0
LINE
  5
16A
  8
0
 10
-130.9731808627785
 20
332.3851151557971
 30
0.0
 11
-131.2674286249325
 21
332.7734403705218
 31
0.0
  0
LINE
  5
16B
  8
0
 10
-134.1801811861679
 20
332.3851151557971
 30
0.0
 11
-134.3651530622115
 21
331.9329008653643
 31
0.0
  0
LINE
  5
16C
  8
0
 10
5.16963510080482
 20
331.447470458769
 30
0.0
 11
5.106544638543037
 21
331.9327561683363
 31
0.0
  0
LINE
  5
16D
  8
0
 10
4.627325000345376
 20
332.7732956734937
 30
0.0
 11
4.243853850804696
 21
333.0712680908648
 31
0.0
  0
LINE
  5
16E
  8
0
 10
1.466510100804658
 20
331.447470458769
 30
0.0
 11
1.529600563066441
 21
330.9621847492018
 31
0.0
  0
LINE
  5
16F
  8
0
 10
1.529600563066441
 20
331.9327561683363
 30
0.0
 11
1.466510100804658
 21
331.447470458769
 31
0.0
  0
LINE
  5
170
  8
0
 10
1.714572439110039
 20
330.509970458769
 30
0.0
 11
2.008820201264101
 21
330.1216452440442
 31
0.0
  0
LINE
  5
171
  8
0
 10
2.392291350804782
 20
333.0712680908648
 30
0.0
 11
2.008820201264101
 21
332.7732956734937
 31
0.0
  0
LINE
  5
172
  8
0
 10
2.008820201264101
 20
330.1216452440442
 30
0.0
 11
2.392291350804782
 21
329.8236728266732
 31
0.0
  0
LINE
  5
173
  8
0
 10
3.318072600804907
 20
333.322470458769
 30
0.0
 11
2.838852962607078
 21
333.258581383061
 31
0.0
  0
LINE
  5
174
  8
0
 10
5.106544638543037
 20
330.9621847492018
 30
0.0
 11
5.16963510080482
 21
331.447470458769
 31
0.0
  0
LINE
  5
175
  8
0
 10
3.797292239002399
 20
329.636359534477
 30
0.0
 11
4.243853850804696
 21
329.8236728266732
 31
0.0
  0
LINE
  5
176
  8
0
 10
2.008820201264101
 20
332.7732956734937
 30
0.0
 11
1.714572439110039
 21
332.384970458769
 31
0.0
  0
LINE
  5
177
  8
0
 10
1.529600563066441
 20
330.9621847492018
 30
0.0
 11
1.714572439110039
 21
330.509970458769
 31
0.0
  0
LINE
  5
178
  8
0
 10
3.797292239002399
 20
333.258581383061
 30
0.0
 11
3.318072600804907
 21
333.322470458769
 31
0.0
  0
LINE
  5
179
  8
0
 10
3.318072600804907
 20
329.572470458769
 30
0.0
 11
3.797292239002399
 21
329.636359534477
 31
0.0
  0
LINE
  5
17A
  8
0
 10
2.838852962607078
 20
329.636359534477
 30
0.0
 11
3.318072600804907
 21
329.572470458769
 31
0.0
  0
LINE
  5
17B
  8
0
 10
4.921572762499438
 20
330.509970458769
 30
0.0
 11
5.106544638543037
 21
330.9621847492018
 31
0.0
  0
LINE
  5
17C
  8
0
 10
4.627325000345376
 20
330.1216452440442
 30
0.0
 11
4.921572762499438
 21
330.509970458769
 31
0.0
  0
LINE
  5
17D
  8
0
 10
4.243853850804696
 20
333.0712680908648
 30
0.0
 11
3.797292239002399
 21
333.258581383061
 31
0.0
  0
LINE
  5
17E
  8
0
 10
2.392291350804782
 20
329.8236728266732
 30
0.0
 11
2.838852962607078
 21
329.636359534477
 31
0.0
  0
LINE
  5
17F
  8
0
 10
2.838852962607078
 20
333.258581383061
 30
0.0
 11
2.392291350804782
 21
333.0712680908648
 31
0.0
  0
LINE
  5
180
  8
0
 10
5.106544638543037
 20
331.9327561683363
 30
0.0
 11
4.921572762499438
 21
332.384970458769
 31
0.0
  0
LINE
  5
181
  8
0
 10
4.243853850804696
 20
329.8236728266732
 30
0.0
 11
4.627325000345376
 21
330.1216452440442
 31
0.0
  0
LINE
  5
182
  8
0
 10
4.921572762499438
 20
332.384970458769
 30
0.0
 11
4.627325000345376
 21
332.7732956734937
 31
0.0
  0
LINE
  5
183
  8
0
 10
1.714572439110039
 20
332.384970458769
 30
0.0
 11
1.529600563066441
 21
331.9327561683363
 31
0.0
  0
LINE
  5
184
  8
0
 10
5.16963510080482
 20
272.637470458769
 30
0.0
 11
5.106544638543037
 21
273.1227561683363
 31
0.0
  0
LINE
  5
185
  8
0
 10
4.627325000345376
 20
273.9632956734937
 30
0.0
 11
4.243853850804696
 21
274.2612680908648
 31
0.0
  0
LINE
  5
186
  8
0
 10
1.466510100804658
 20
272.637470458769
 30
0.0
 11
1.529600563066441
 21
272.1521847492018
 31
0.0
  0
LINE
  5
187
  8
0
 10
1.529600563066441
 20
273.1227561683363
 30
0.0
 11
1.466510100804658
 21
272.637470458769
 31
0.0
  0
LINE
  5
188
  8
0
 10
1.714572439110039
 20
271.699970458769
 30
0.0
 11
2.008820201264101
 21
271.3116452440442
 31
0.0
  0
LINE
  5
189
  8
0
 10
2.392291350804782
 20
274.2612680908648
 30
0.0
 11
2.008820201264101
 21
273.9632956734937
 31
0.0
  0
LINE
  5
18A
  8
0
 10
2.008820201264101
 20
271.3116452440442
 30
0.0
 11
2.392291350804782
 21
271.0136728266732
 31
0.0
  0
LINE
  5
18B
  8
0
 10
3.318072600804907
 20
274.512470458769
 30
0.0
 11
2.838852962607078
 21
274.448581383061
 31
0.0
  0
LINE
  5
18C
  8
0
 10
5.106544638543037
 20
272.1521847492018
 30
0.0
 11
5.16963510080482
 21
272.637470458769
 31
0.0
  0
LINE
  5
18D
  8
0
 10
3.797292239002399
 20
270.826359534477
 30
0.0
 11
4.243853850804696
 21
271.0136728266732
 31
0.0
  0
LINE
  5
18E
  8
0
 10
2.008820201264101
 20
273.9632956734937
 30
0.0
 11
1.714572439110039
 21
273.574970458769
 31
0.0
  0
LINE
  5
18F
  8
0
 10
1.529600563066441
 20
272.1521847492018
 30
0.0
 11
1.714572439110039
 21
271.699970458769
 31
0.0
  0
LINE
  5
190
  8
0
 10
3.797292239002399
 20
274.448581383061
 30
0.0
 11
3.318072600804907
 21
274.512470458769
 31
0.0
  0
LINE
  5
191
  8
0
 10
3.318072600804907
 20
270.762470458769
 30
0.0
 11
3.797292239002399
 21
270.826359534477
 31
0.0
  0
LINE
  5
192
  8
0
 10
2.838852962607078
 20
270.826359534477
 30
0.0
 11
3.318072600804907
 21
270.762470458769
 31
0.0
  0
LINE
  5
193
  8
0
 10
4.921572762499438
 20
271.699970458769
 30
0.0
 11
5.106544638543037
 21
272.1521847492018
 31
0.0
  0
LINE
  5
194
  8
0
 10
4.627325000345376
 20
271.3116452440442
 30
0.0
 11
4.921572762499438
 21
271.699970458769
 31
0.0
  0
LINE
  5
195
  8
0
 10
4.243853850804696
 20
274.2612680908648
 30
0.0
 11
3.797292239002399
 21
274.448581383061
 31
0.0
  0
LINE
  5
196
  8
0
 10
2.392291350804782
 20
271.0136728266732
 30
0.0
 11
2.838852962607078
 21
270.826359534477
 31
0.0
  0
LINE
  5
197
  8
0
 10
2.838852962607078
 20
274.448581383061
 30
0.0
 11
2.392291350804782
 21
274.2612680908648
 31
0.0
  0
LINE
  5
198
  8
0
 10
5.106544638543037
 20
273.1227561683363
 30
0.0
 11
4.921572762499438
 21
273.574970458769
 31
0.0
  0
LINE
  5
199
  8
0
 10
4.243853850804696
 20
271.0136728266732
 30
0.0
 11
4.627325000345376
 21
271.3116452440442
 31
0.0
  0
LINE
  5
19A
  8
0
 10
4.921572762499438
 20
273.574970458769
 30
0.0
 11
4.627325000345376
 21
273.9632956734937
 31
0.0
  0
LINE
  5
19B
  8
0
 10
1.714572439110039
 20
273.574970458769
 30
0.0
 11
1.529600563066441
 21
273.1227561683363
 31
0.0
  0
LINE
  5
19C
  8
0
 10
-0.849777336316248
 20
341.4596656839533
 30
0.0
 11
-1.241355912976326
 21
341.4340002680747
 31
0.0
  0
LINE
  5
19D
  8
0
 10
-128.0129945105102
 20
341.4340002680746
 30
0.0
 11
-1.241355912976326
 21
341.4340002680747
 31
0.0
  0
LINE
  5
19E
  8
0
 10
-128.0129945105102
 20
341.4340002680746
 30
0.0
 11
-128.4741137525937
 21
341.3986801571562
 31
0.0
  0
LINE
  5
19F
  8
0
 10
-128.4741137525937
 20
341.3986801571562
 30
0.0
 11
-128.9358982552247
 21
341.4238503535117
 31
0.0
  0
LINE
  5
1A0
  8
0
 10
-128.9358982552247
 20
341.4238503535117
 30
0.0
 11
-129.3904467575325
 21
341.5090801881026
 31
0.0
  0
LINE
  5
1A1
  8
0
 10
-129.3904467575325
 20
341.5090801881026
 30
0.0
 11
-129.8299818086182
 21
341.6529113548291
 31
0.0
  0
LINE
  5
1A2
  8
0
 10
-129.8299818086182
 20
341.6529113548291
 30
0.0
 11
-130.2469828418954
 21
341.8528828625509
 31
0.0
  0
LINE
  5
1A3
  8
0
 10
-130.2469828418954
 20
341.8528828625509
 30
0.0
 11
-130.6343148540699
 21
342.1055731433283
 31
0.0
  0
LINE
  5
1A4
  8
0
 10
-130.6343148540699
 20
342.1055731433283
 30
0.0
 11
-130.9853504870255
 21
342.4066585963985
 31
0.0
  0
LINE
  5
1A5
  8
0
 10
-130.9853504870255
 20
342.4066585963985
 30
0.0
 11
-131.2940834237559
 21
342.7509875661825
 31
0.0
  0
LINE
  5
1A6
  8
0
 10
-131.2940834237559
 20
342.7509875661825
 30
0.0
 11
-131.5552311581173
 21
343.1326684885412
 31
0.0
  0
LINE
  5
1A7
  8
0
 10
-131.5552311581173
 20
343.1326684885412
 30
0.0
 11
-131.7643253799707
 21
343.5451706970713
 31
0.0
  0
LINE
  5
1A8
  8
0
 10
-131.7643253799707
 20
343.5451706970713
 30
0.0
 11
-131.9177884292087
 21
343.9814361646175
 31
0.0
  0
LINE
  5
1A9
  8
0
 10
-131.9177884292087
 20
343.9814361646175
 30
0.0
 11
-132.0129945105104
 21
344.4340002680746
 31
0.0
  0
LINE
  5
1AA
  8
0
 10
-132.0129945105104
 20
364.0840002680745
 30
0.0
 11
-132.0129945105104
 21
344.4340002680746
 31
0.0
  0
LINE
  5
1AB
  8
0
 10
-132.0129945105104
 20
364.0840002680745
 30
0.0
 11
-131.9177884292085
 21
364.5365643715317
 31
0.0
  0
LINE
  5
1AC
  8
0
 10
-131.9177884292085
 20
364.5365643715317
 30
0.0
 11
-131.7643253799707
 21
364.9728298390779
 31
0.0
  0
LINE
  5
1AD
  8
0
 10
-131.7643253799707
 20
364.9728298390779
 30
0.0
 11
-131.5552311581173
 21
365.385332047608
 31
0.0
  0
LINE
  5
1AE
  8
0
 10
-131.5552311581173
 20
365.385332047608
 30
0.0
 11
-131.2940834237557
 21
365.7670129699668
 31
0.0
  0
LINE
  5
1AF
  8
0
 10
-131.2940834237557
 20
365.7670129699668
 30
0.0
 11
-130.9853504870253
 21
366.1113419397507
 31
0.0
  0
LINE
  5
1B0
  8
0
 10
-130.9853504870253
 20
366.1113419397507
 30
0.0
 11
-130.6343148540699
 21
366.4124273928208
 31
0.0
  0
LINE
  5
1B1
  8
0
 10
-130.6343148540699
 20
366.4124273928208
 30
0.0
 11
-130.2469828418952
 21
366.6651176735983
 31
0.0
  0
LINE
  5
1B2
  8
0
 10
-130.2469828418952
 20
366.6651176735983
 30
0.0
 11
-129.8299818086181
 21
366.8650891813201
 31
0.0
  0
LINE
  5
1B3
  8
0
 10
-129.8299818086181
 20
366.8650891813201
 30
0.0
 11
-129.3904467575323
 21
367.0089203480466
 31
0.0
  0
LINE
  5
1B4
  8
0
 10
-129.3904467575323
 20
367.0089203480466
 30
0.0
 11
-128.9358982552247
 21
367.0941501826376
 31
0.0
  0
LINE
  5
1B5
  8
0
 10
-128.9358982552247
 20
367.0941501826376
 30
0.0
 11
-128.4741137525937
 21
367.1193203789929
 31
0.0
  0
LINE
  5
1B6
  8
0
 10
-128.4741137525937
 20
367.1193203789929
 30
0.0
 11
-128.0129945105102
 21
367.0840002680745
 31
0.0
  0
LINE
  5
1B7
  8
0
 10
-1.241355912976326
 20
367.0840002680745
 30
0.0
 11
-128.0129945105102
 21
367.0840002680745
 31
0.0
  0
LINE
  5
1B8
  8
0
 10
-0.849777336316248
 20
367.058334852196
 30
0.0
 11
-1.241355912976326
 21
367.0840002680745
 31
0.0
  0
LINE
  5
1B9
  8
0
 10
-0.4648987776687235
 20
366.9817777469417
 30
0.0
 11
-0.849777336316248
 21
367.058334852196
 31
0.0
  0
LINE
  5
1BA
  8
0
 10
-0.0933056158810587
 20
366.8556388656083
 30
0.0
 11
-0.4648987776687235
 21
366.9817777469417
 31
0.0
  0
LINE
  5
1BB
  8
0
 10
0.2586440870236942
 20
366.6820764794278
 30
0.0
 11
-0.0933056158810587
 21
366.8556388656083
 31
0.0
  0
LINE
  5
1BC
  8
0
 10
0.584928374049872
 20
366.4640602889483
 30
0.0
 11
0.2586440870236942
 21
366.6820764794278
 31
0.0
  0
LINE
  5
1BD
  8
0
 10
0.8799644305832771
 20
366.2053206116342
 30
0.0
 11
0.584928374049872
 21
366.4640602889483
 31
0.0
  0
LINE
  5
1BE
  8
0
 10
1.138704107897365
 20
365.9102845551007
 30
0.0
 11
0.8799644305832771
 21
366.2053206116342
 31
0.0
  0
LINE
  5
1BF
  8
0
 10
1.35672029837702
 20
365.5840002680745
 30
0.0
 11
1.138704107897365
 21
365.9102845551007
 31
0.0
  0
LINE
  5
1C0
  8
0
 10
1.530282684557623
 20
365.2320505651697
 30
0.0
 11
1.35672029837702
 21
365.5840002680745
 31
0.0
  0
LINE
  5
1C1
  8
0
 10
1.656421565890879
 20
364.8604574033821
 30
0.0
 11
1.530282684557623
 21
365.2320505651697
 31
0.0
  0
LINE
  5
1C2
  8
0
 10
1.732978671145139
 20
364.4755788447347
 30
0.0
 11
1.656421565890879
 21
364.8604574033821
 31
0.0
  0
LINE
  5
1C3
  8
0
 10
1.758644087023714
 20
364.0840002680745
 30
0.0
 11
1.732978671145139
 21
364.4755788447347
 31
0.0
  0
LINE
  5
1C4
  8
0
 10
1.758644087023714
 20
344.4340002680747
 30
0.0
 11
1.758644087023714
 21
364.0840002680745
 31
0.0
  0
LINE
  5
1C5
  8
0
 10
1.758644087023714
 20
344.4340002680747
 30
0.0
 11
1.732978671145139
 21
344.0424216914146
 31
0.0
  0
LINE
  5
1C6
  8
0
 10
1.732978671145139
 20
344.0424216914146
 30
0.0
 11
1.656421565890879
 21
343.6575431327671
 31
0.0
  0
LINE
  5
1C7
  8
0
 10
1.656421565890879
 20
343.6575431327671
 30
0.0
 11
1.530282684557623
 21
343.2859499709795
 31
0.0
  0
LINE
  5
1C8
  8
0
 10
1.530282684557623
 20
343.2859499709795
 30
0.0
 11
1.35672029837702
 21
342.9340002680747
 31
0.0
  0
LINE
  5
1C9
  8
0
 10
1.35672029837702
 20
342.9340002680747
 30
0.0
 11
1.138704107897365
 21
342.6077159810486
 31
0.0
  0
LINE
  5
1CA
  8
0
 10
1.138704107897365
 20
342.6077159810486
 30
0.0
 11
0.8799644305832771
 21
342.3126799245151
 31
0.0
  0
LINE
  5
1CB
  8
0
 10
0.8799644305832771
 20
342.3126799245151
 30
0.0
 11
0.584928374049872
 21
342.053940247201
 31
0.0
  0
LINE
  5
1CC
  8
0
 10
0.584928374049872
 20
342.053940247201
 30
0.0
 11
0.2586440870236942
 21
341.8359240567214
 31
0.0
  0
LINE
  5
1CD
  8
0
 10
0.2586440870236942
 20
341.8359240567214
 30
0.0
 11
-0.0933056158810587
 21
341.6623616705409
 31
0.0
  0
LINE
  5
1CE
  8
0
 10
-0.0933056158810587
 20
341.6623616705409
 30
0.0
 11
-0.4648987776687235
 21
341.5362227892075
 31
0.0
  0
LINE
  5
1CF
  8
0
 10
-0.4648987776687235
 20
341.5362227892075
 30
0.0
 11
-0.849777336316248
 21
341.4596656839533
 31
0.0
  0
LINE
  5
1D0
  8
0
 10
-148.8879945105105
 20
360.5340002680745
 30
0.0
 11
-148.8241054348023
 21
360.0487145585073
 31
0.0
  0
LINE
  5
1D1
  8
0
 10
-148.3388197252351
 20
359.2081750533498
 30
0.0
 11
-147.9504945105103
 21
358.9102026359787
 31
0.0
  0
LINE
  5
1D2
  8
0
 10
-145.1379945105103
 20
360.5340002680745
 30
0.0
 11
-145.2018835862184
 21
361.0192859776417
 31
0.0
  0
LINE
  5
1D3
  8
0
 10
-145.2018835862184
 20
360.0487145585073
 30
0.0
 11
-145.1379945105103
 21
360.5340002680745
 31
0.0
  0
LINE
  5
1D4
  8
0
 10
-145.3891968784145
 20
361.4715002680745
 30
0.0
 11
-145.6871692957857
 21
361.8598254827994
 31
0.0
  0
LINE
  5
1D5
  8
0
 10
-146.0754945105104
 20
358.9102026359787
 30
0.0
 11
-145.6871692957857
 21
359.2081750533498
 31
0.0
  0
LINE
  5
1D6
  8
0
 10
-145.6871692957857
 20
361.8598254827994
 30
0.0
 11
-146.0754945105104
 21
362.1577979001704
 31
0.0
  0
LINE
  5
1D7
  8
0
 10
-147.0129945105106
 20
358.6590002680746
 30
0.0
 11
-146.5277088009431
 21
358.7228893437825
 31
0.0
  0
LINE
  5
1D8
  8
0
 10
-148.8241054348023
 20
361.0192859776417
 30
0.0
 11
-148.8879945105105
 21
360.5340002680745
 31
0.0
  0
LINE
  5
1D9
  8
0
 10
-147.4982802200776
 20
362.3451111923665
 30
0.0
 11
-147.9504945105103
 21
362.1577979001704
 31
0.0
  0
LINE
  5
1DA
  8
0
 10
-145.6871692957857
 20
359.2081750533498
 30
0.0
 11
-145.3891968784145
 21
359.5965002680745
 31
0.0
  0
LINE
  5
1DB
  8
0
 10
-145.2018835862184
 20
361.0192859776417
 30
0.0
 11
-145.3891968784145
 21
361.4715002680745
 31
0.0
  0
LINE
  5
1DC
  8
0
 10
-147.4982802200776
 20
358.7228893437825
 30
0.0
 11
-147.0129945105106
 21
358.6590002680746
 31
0.0
  0
LINE
  5
1DD
  8
0
 10
-147.0129945105106
 20
362.4090002680746
 30
0.0
 11
-147.4982802200776
 21
362.3451111923665
 31
0.0
  0
LINE
  5
1DE
  8
0
 10
-146.5277088009431
 20
362.3451111923665
 30
0.0
 11
-147.0129945105106
 21
362.4090002680746
 31
0.0
  0
LINE
  5
1DF
  8
0
 10
-148.6367921426063
 20
361.4715002680745
 30
0.0
 11
-148.8241054348023
 21
361.0192859776417
 31
0.0
  0
LINE
  5
1E0
  8
0
 10
-148.3388197252351
 20
361.8598254827994
 30
0.0
 11
-148.6367921426063
 21
361.4715002680745
 31
0.0
  0
LINE
  5
1E1
  8
0
 10
-147.9504945105103
 20
358.9102026359787
 30
0.0
 11
-147.4982802200776
 21
358.7228893437825
 31
0.0
  0
LINE
  5
1E2
  8
0
 10
-146.0754945105104
 20
362.1577979001704
 30
0.0
 11
-146.5277088009431
 21
362.3451111923665
 31
0.0
  0
LINE
  5
1E3
  8
0
 10
-146.5277088009431
 20
358.7228893437825
 30
0.0
 11
-146.0754945105104
 21
358.9102026359787
 31
0.0
  0
LINE
  5
1E4
  8
0
 10
-148.8241054348023
 20
360.0487145585073
 30
0.0
 11
-148.6367921426063
 21
359.5965002680745
 31
0.0
  0
LINE
  5
1E5
  8
0
 10
-147.9504945105103
 20
362.1577979001704
 30
0.0
 11
-148.3388197252351
 21
361.8598254827994
 31
0.0
  0
LINE
  5
1E6
  8
0
 10
-148.6367921426063
 20
359.5965002680745
 30
0.0
 11
-148.3388197252351
 21
359.2081750533498
 31
0.0
  0
LINE
  5
1E7
  8
0
 10
-145.3891968784145
 20
359.5965002680745
 30
0.0
 11
-145.2018835862184
 21
360.0487145585073
 31
0.0
  0
LINE
  5
1E8
  8
0
 10
-148.8879945105105
 20
347.5340002680746
 30
0.0
 11
-148.8241054348023
 21
347.0487145585074
 31
0.0
  0
LINE
  5
1E9
  8
0
 10
-148.3388197252351
 20
346.2081750533499
 30
0.0
 11
-147.9504945105103
 21
345.9102026359788
 31
0.0
  0
LINE
  5
1EA
  8
0
 10
-145.1379945105103
 20
347.5340002680746
 30
0.0
 11
-145.2018835862184
 21
348.0192859776418
 31
0.0
  0
LINE
  5
1EB
  8
0
 10
-145.2018835862184
 20
347.0487145585074
 30
0.0
 11
-145.1379945105103
 21
347.5340002680746
 31
0.0
  0
LINE
  5
1EC
  8
0
 10
-145.3891968784145
 20
348.4715002680746
 30
0.0
 11
-145.6871692957857
 21
348.8598254827994
 31
0.0
  0
LINE
  5
1ED
  8
0
 10
-146.0754945105104
 20
345.9102026359788
 30
0.0
 11
-145.6871692957857
 21
346.2081750533499
 31
0.0
  0
LINE
  5
1EE
  8
0
 10
-145.6871692957857
 20
348.8598254827994
 30
0.0
 11
-146.0754945105104
 21
349.1577979001704
 31
0.0
  0
LINE
  5
1EF
  8
0
 10
-147.0129945105106
 20
345.6590002680746
 30
0.0
 11
-146.5277088009431
 21
345.7228893437826
 31
0.0
  0
LINE
  5
1F0
  8
0
 10
-148.8241054348023
 20
348.0192859776418
 30
0.0
 11
-148.8879945105105
 21
347.5340002680746
 31
0.0
  0
LINE
  5
1F1
  8
0
 10
-147.4982802200776
 20
349.3451111923666
 30
0.0
 11
-147.9504945105103
 21
349.1577979001704
 31
0.0
  0
LINE
  5
1F2
  8
0
 10
-145.6871692957857
 20
346.2081750533499
 30
0.0
 11
-145.3891968784145
 21
346.5965002680746
 31
0.0
  0
LINE
  5
1F3
  8
0
 10
-145.2018835862184
 20
348.0192859776418
 30
0.0
 11
-145.3891968784145
 21
348.4715002680746
 31
0.0
  0
LINE
  5
1F4
  8
0
 10
-147.4982802200776
 20
345.7228893437826
 30
0.0
 11
-147.0129945105106
 21
345.6590002680746
 31
0.0
  0
LINE
  5
1F5
  8
0
 10
-147.0129945105106
 20
349.4090002680746
 30
0.0
 11
-147.4982802200776
 21
349.3451111923666
 31
0.0
  0
LINE
  5
1F6
  8
0
 10
-146.5277088009431
 20
349.3451111923666
 30
0.0
 11
-147.0129945105106
 21
349.4090002680746
 31
0.0
  0
LINE
  5
1F7
  8
0
 10
-148.6367921426063
 20
348.4715002680746
 30
0.0
 11
-148.8241054348023
 21
348.0192859776418
 31
0.0
  0
LINE
  5
1F8
  8
0
 10
-148.3388197252351
 20
348.8598254827994
 30
0.0
 11
-148.6367921426063
 21
348.4715002680746
 31
0.0
  0
LINE
  5
1F9
  8
0
 10
-147.9504945105103
 20
345.9102026359788
 30
0.0
 11
-147.4982802200776
 21
345.7228893437826
 31
0.0
  0
LINE
  5
1FA
  8
0
 10
-146.0754945105104
 20
349.1577979001704
 30
0.0
 11
-146.5277088009431
 21
349.3451111923666
 31
0.0
  0
LINE
  5
1FB
  8
0
 10
-146.5277088009431
 20
345.7228893437826
 30
0.0
 11
-146.0754945105104
 21
345.9102026359788
 31
0.0
  0
LINE
  5
1FC
  8
0
 10
-148.8241054348023
 20
347.0487145585074
 30
0.0
 11
-148.6367921426063
 21
346.5965002680746
 31
0.0
  0
LINE
  5
1FD
  8
0
 10
-147.9504945105103
 20
349.1577979001704
 30
0.0
 11
-148.3388197252351
 21
348.8598254827994
 31
0.0
  0
LINE
  5
1FE
  8
0
 10
-148.6367921426063
 20
346.5965002680746
 30
0.0
 11
-148.3388197252351
 21
346.2081750533499
 31
0.0
  0
LINE
  5
1FF
  8
0
 10
-145.3891968784145
 20
346.5965002680746
 30
0.0
 11
-145.2018835862184
 21
347.0487145585074
 31
0.0
  0
LINE
  5
200
  8
0
 10
3.512005489489526
 20
360.5340002680745
 30
0.0
 11
3.57589456519766
 21
360.0487145585073
 31
0.0
  0
LINE
  5
201
  8
0
 10
4.061180274764912
 20
359.2081750533498
 30
0.0
 11
4.449505489489651
 21
358.9102026359787
 31
0.0
  0
LINE
  5
202
  8
0
 10
7.262005489489688
 20
360.5340002680745
 30
0.0
 11
7.198116413781554
 21
361.0192859776417
 31
0.0
  0
LINE
  5
203
  8
0
 10
7.198116413781554
 20
360.0487145585073
 30
0.0
 11
7.262005489489688
 21
360.5340002680745
 31
0.0
  0
LINE
  5
204
  8
0
 10
7.010803121585504
 20
361.4715002680745
 30
0.0
 11
6.712830704214302
 21
361.8598254827994
 31
0.0
  0
LINE
  5
205
  8
0
 10
6.324505489489563
 20
358.9102026359787
 30
0.0
 11
6.712830704214302
 21
359.2081750533498
 31
0.0
  0
LINE
  5
206
  8
0
 10
6.712830704214302
 20
361.8598254827994
 30
0.0
 11
6.324505489489563
 21
362.1577979001704
 31
0.0
  0
LINE
  5
207
  8
0
 10
5.387005489489438
 20
358.6590002680746
 30
0.0
 11
5.872291199056858
 21
358.7228893437825
 31
0.0
  0
LINE
  5
208
  8
0
 10
3.57589456519766
 20
361.0192859776417
 30
0.0
 11
3.512005489489526
 21
360.5340002680745
 31
0.0
  0
LINE
  5
209
  8
0
 10
4.901719779922355
 20
362.3451111923665
 30
0.0
 11
4.449505489489651
 21
362.1577979001704
 31
0.0
  0
LINE
  5
20A
  8
0
 10
6.712830704214302
 20
359.2081750533498
 30
0.0
 11
7.010803121585504
 21
359.5965002680745
 31
0.0
  0
LINE
  5
20B
  8
0
 10
7.198116413781554
 20
361.0192859776417
 30
0.0
 11
7.010803121585504
 21
361.4715002680745
 31
0.0
  0
LINE
  5
20C
  8
0
 10
4.901719779922355
 20
358.7228893437825
 30
0.0
 11
5.387005489489438
 21
358.6590002680746
 31
0.0
  0
LINE
  5
20D
  8
0
 10
5.387005489489438
 20
362.4090002680746
 30
0.0
 11
4.901719779922355
 21
362.3451111923665
 31
0.0
  0
LINE
  5
20E
  8
0
 10
5.872291199056858
 20
362.3451111923665
 30
0.0
 11
5.387005489489438
 21
362.4090002680746
 31
0.0
  0
LINE
  5
20F
  8
0
 10
3.763207857393709
 20
361.4715002680745
 30
0.0
 11
3.57589456519766
 21
361.0192859776417
 31
0.0
  0
LINE
  5
210
  8
0
 10
4.061180274764912
 20
361.8598254827994
 30
0.0
 11
3.763207857393709
 21
361.4715002680745
 31
0.0
  0
LINE
  5
211
  8
0
 10
4.449505489489651
 20
358.9102026359787
 30
0.0
 11
4.901719779922355
 21
358.7228893437825
 31
0.0
  0
LINE
  5
212
  8
0
 10
6.324505489489563
 20
362.1577979001704
 30
0.0
 11
5.872291199056858
 21
362.3451111923665
 31
0.0
  0
LINE
  5
213
  8
0
 10
5.872291199056858
 20
358.7228893437825
 30
0.0
 11
6.324505489489563
 21
358.9102026359787
 31
0.0
  0
LINE
  5
214
  8
0
 10
3.57589456519766
 20
360.0487145585073
 30
0.0
 11
3.763207857393709
 21
359.5965002680745
 31
0.0
  0
LINE
  5
215
  8
0
 10
4.449505489489651
 20
362.1577979001704
 30
0.0
 11
4.061180274764912
 21
361.8598254827994
 31
0.0
  0
LINE
  5
216
  8
0
 10
3.763207857393709
 20
359.5965002680745
 30
0.0
 11
4.061180274764912
 21
359.2081750533498
 31
0.0
  0
LINE
  5
217
  8
0
 10
7.010803121585504
 20
359.5965002680745
 30
0.0
 11
7.198116413781554
 21
360.0487145585073
 31
0.0
  0
LINE
  5
218
  8
0
 10
3.512005489489526
 20
347.2340002680745
 30
0.0
 11
3.57589456519766
 21
346.7487145585073
 31
0.0
  0
LINE
  5
219
  8
0
 10
4.061180274764912
 20
345.9081750533497
 30
0.0
 11
4.449505489489651
 21
345.6102026359787
 31
0.0
  0
LINE
  5
21A
  8
0
 10
7.262005489489688
 20
347.2340002680745
 30
0.0
 11
7.198116413781554
 21
347.7192859776417
 31
0.0
  0
LINE
  5
21B
  8
0
 10
7.198116413781554
 20
346.7487145585073
 30
0.0
 11
7.262005489489688
 21
347.2340002680745
 31
0.0
  0
LINE
  5
21C
  8
0
 10
7.010803121585504
 20
348.1715002680745
 30
0.0
 11
6.712830704214302
 21
348.5598254827993
 31
0.0
  0
LINE
  5
21D
  8
0
 10
6.324505489489563
 20
345.6102026359787
 30
0.0
 11
6.712830704214302
 21
345.9081750533497
 31
0.0
  0
LINE
  5
21E
  8
0
 10
6.712830704214302
 20
348.5598254827993
 30
0.0
 11
6.324505489489563
 21
348.8577979001703
 31
0.0
  0
LINE
  5
21F
  8
0
 10
5.387005489489438
 20
345.3590002680745
 30
0.0
 11
5.872291199056858
 21
345.4228893437825
 31
0.0
  0
LINE
  5
220
  8
0
 10
3.57589456519766
 20
347.7192859776417
 30
0.0
 11
3.512005489489526
 21
347.2340002680745
 31
0.0
  0
LINE
  5
221
  8
0
 10
4.901719779922355
 20
349.0451111923665
 30
0.0
 11
4.449505489489651
 21
348.8577979001703
 31
0.0
  0
LINE
  5
222
  8
0
 10
6.712830704214302
 20
345.9081750533497
 30
0.0
 11
7.010803121585504
 21
346.2965002680745
 31
0.0
  0
LINE
  5
223
  8
0
 10
7.198116413781554
 20
347.7192859776417
 30
0.0
 11
7.010803121585504
 21
348.1715002680745
 31
0.0
  0
LINE
  5
224
  8
0
 10
4.901719779922355
 20
345.4228893437825
 30
0.0
 11
5.387005489489438
 21
345.3590002680745
 31
0.0
  0
LINE
  5
225
  8
0
 10
5.387005489489438
 20
349.1090002680745
 30
0.0
 11
4.901719779922355
 21
349.0451111923665
 31
0.0
  0
LINE
  5
226
  8
0
 10
5.872291199056858
 20
349.0451111923665
 30
0.0
 11
5.387005489489438
 21
349.1090002680745
 31
0.0
  0
LINE
  5
227
  8
0
 10
3.763207857393709
 20
348.1715002680745
 30
0.0
 11
3.57589456519766
 21
347.7192859776417
 31
0.0
  0
LINE
  5
228
  8
0
 10
4.061180274764912
 20
348.5598254827993
 30
0.0
 11
3.763207857393709
 21
348.1715002680745
 31
0.0
  0
LINE
  5
229
  8
0
 10
4.449505489489651
 20
345.6102026359787
 30
0.0
 11
4.901719779922355
 21
345.4228893437825
 31
0.0
  0
LINE
  5
22A
  8
0
 10
6.324505489489563
 20
348.8577979001703
 30
0.0
 11
5.872291199056858
 21
349.0451111923665
 31
0.0
  0
LINE
  5
22B
  8
0
 10
5.872291199056858
 20
345.4228893437825
 30
0.0
 11
6.324505489489563
 21
345.6102026359787
 31
0.0
  0
LINE
  5
22C
  8
0
 10
3.57589456519766
 20
346.7487145585073
 30
0.0
 11
3.763207857393709
 21
346.2965002680745
 31
0.0
  0
LINE
  5
22D
  8
0
 10
4.449505489489651
 20
348.8577979001703
 30
0.0
 11
4.061180274764912
 21
348.5598254827993
 31
0.0
  0
LINE
  5
22E
  8
0
 10
3.763207857393709
 20
346.2965002680745
 30
0.0
 11
4.061180274764912
 21
345.9081750533497
 31
0.0
  0
LINE
  5
22F
  8
0
 10
7.010803121585504
 20
346.2965002680745
 30
0.0
 11
7.198116413781554
 21
346.7487145585073
 31
0.0
  0
LINE
  5
230
  8
0
 10
-615.9441771866602
 20
221.3097789705861
 30
0.0
 11
-616.0080662623683
 21
220.8244932610189
 31
0.0
  0
LINE
  5
231
  8
0
 10
-616.4933519719356
 20
219.9839537558613
 30
0.0
 11
-616.8816771866603
 21
219.6859813384903
 31
0.0
  0
LINE
  5
232
  8
0
 10
-619.6941771866603
 20
221.3097789705861
 30
0.0
 11
-619.6302881109523
 21
221.7950646801533
 31
0.0
  0
LINE
  5
233
  8
0
 10
-619.6302881109523
 20
220.8244932610189
 30
0.0
 11
-619.6941771866603
 21
221.3097789705861
 31
0.0
  0
LINE
  5
234
  8
0
 10
-619.4429748187562
 20
222.2472789705861
 30
0.0
 11
-619.145002401385
 21
222.6356041853109
 31
0.0
  0
LINE
  5
235
  8
0
 10
-618.7566771866602
 20
219.6859813384903
 30
0.0
 11
-619.145002401385
 21
219.9839537558613
 31
0.0
  0
LINE
  5
236
  8
0
 10
-619.145002401385
 20
222.6356041853109
 30
0.0
 11
-618.7566771866602
 21
222.9335766026819
 31
0.0
  0
LINE
  5
237
  8
0
 10
-617.8191771866601
 20
219.4347789705861
 30
0.0
 11
-618.3044628962275
 21
219.4986680462941
 31
0.0
  0
LINE
  5
238
  8
0
 10
-616.0080662623683
 20
221.7950646801533
 30
0.0
 11
-615.9441771866602
 21
221.3097789705861
 31
0.0
  0
LINE
  5
239
  8
0
 10
-617.3338914770931
 20
223.1208898948781
 30
0.0
 11
-616.8816771866603
 21
222.9335766026819
 31
0.0
  0
LINE
  5
23A
  8
0
 10
-619.145002401385
 20
219.9839537558613
 30
0.0
 11
-619.4429748187562
 21
220.3722789705861
 31
0.0
  0
LINE
  5
23B
  8
0
 10
-619.6302881109523
 20
221.7950646801533
 30
0.0
 11
-619.4429748187562
 21
222.2472789705861
 31
0.0
  0
LINE
  5
23C
  8
0
 10
-617.3338914770931
 20
219.4986680462941
 30
0.0
 11
-617.8191771866601
 21
219.4347789705861
 31
0.0
  0
LINE
  5
23D
  8
0
 10
-617.8191771866601
 20
223.1847789705861
 30
0.0
 11
-617.3338914770931
 21
223.1208898948781
 31
0.0
  0
LINE
  5
23E
  8
0
 10
-618.3044628962275
 20
223.1208898948781
 30
0.0
 11
-617.8191771866601
 21
223.1847789705861
 31
0.0
  0
LINE
  5
23F
  8
0
 10
-616.1953795545644
 20
222.2472789705861
 30
0.0
 11
-616.0080662623683
 21
221.7950646801533
 31
0.0
  0
LINE
  5
240
  8
0
 10
-616.4933519719356
 20
222.6356041853109
 30
0.0
 11
-616.1953795545644
 21
222.2472789705861
 31
0.0
  0
LINE
  5
241
  8
0
 10
-616.8816771866603
 20
219.6859813384903
 30
0.0
 11
-617.3338914770931
 21
219.4986680462941
 31
0.0
  0
LINE
  5
242
  8
0
 10
-618.7566771866602
 20
222.9335766026819
 30
0.0
 11
-618.3044628962275
 21
223.1208898948781
 31
0.0
  0
LINE
  5
243
  8
0
 10
-618.3044628962275
 20
219.4986680462941
 30
0.0
 11
-618.7566771866602
 21
219.6859813384903
 31
0.0
  0
LINE
  5
244
  8
0
 10
-616.0080662623683
 20
220.8244932610189
 30
0.0
 11
-616.1953795545644
 21
220.3722789705861
 31
0.0
  0
LINE
  5
245
  8
0
 10
-616.8816771866603
 20
222.9335766026819
 30
0.0
 11
-616.4933519719356
 21
222.6356041853109
 31
0.0
  0
LINE
  5
246
  8
0
 10
-616.1953795545644
 20
220.3722789705861
 30
0.0
 11
-616.4933519719356
 21
219.9839537558613
 31
0.0
  0
LINE
  5
247
  8
0
 10
-619.4429748187562
 20
220.3722789705861
 30
0.0
 11
-619.6302881109523
 21
220.8244932610189
 31
0.0
  0
LINE
  5
248
  8
0
 10
-640.1493084361521
 20
304.6967789705861
 30
0.0
 11
-640.2131975118601
 21
304.2114932610188
 31
0.0
  0
LINE
  5
249
  8
0
 10
-640.6984832214274
 20
303.3709537558613
 30
0.0
 11
-641.0868084361522
 21
303.0729813384903
 31
0.0
  0
LINE
  5
24A
  8
0
 10
-643.8993084361522
 20
304.6967789705861
 30
0.0
 11
-643.835419360444
 21
305.1820646801532
 31
0.0
  0
LINE
  5
24B
  8
0
 10
-643.835419360444
 20
304.2114932610188
 30
0.0
 11
-643.8993084361522
 21
304.6967789705861
 31
0.0
  0
LINE
  5
24C
  8
0
 10
-643.6481060682481
 20
305.634278970586
 30
0.0
 11
-643.3501336508768
 21
306.0226041853109
 31
0.0
  0
LINE
  5
24D
  8
0
 10
-642.9618084361521
 20
303.0729813384903
 30
0.0
 11
-643.3501336508768
 21
303.3709537558613
 31
0.0
  0
LINE
  5
24E
  8
0
 10
-643.3501336508768
 20
306.0226041853109
 30
0.0
 11
-642.9618084361521
 21
306.3205766026819
 31
0.0
  0
LINE
  5
24F
  8
0
 10
-642.024308436152
 20
302.8217789705861
 30
0.0
 11
-642.5095941457193
 21
302.885668046294
 31
0.0
  0
LINE
  5
250
  8
0
 10
-640.2131975118601
 20
305.1820646801532
 30
0.0
 11
-640.1493084361521
 21
304.6967789705861
 31
0.0
  0
LINE
  5
251
  8
0
 10
-641.5390227265849
 20
306.507889894878
 30
0.0
 11
-641.0868084361522
 21
306.3205766026819
 31
0.0
  0
LINE
  5
252
  8
0
 10
-643.3501336508768
 20
303.3709537558613
 30
0.0
 11
-643.6481060682481
 21
303.759278970586
 31
0.0
  0
LINE
  5
253
  8
0
 10
-643.835419360444
 20
305.1820646801532
 30
0.0
 11
-643.6481060682481
 21
305.634278970586
 31
0.0
  0
LINE
  5
254
  8
0
 10
-641.5390227265849
 20
302.885668046294
 30
0.0
 11
-642.024308436152
 21
302.8217789705861
 31
0.0
  0
LINE
  5
255
  8
0
 10
-642.024308436152
 20
306.5717789705861
 30
0.0
 11
-641.5390227265849
 21
306.507889894878
 31
0.0
  0
LINE
  5
256
  8
0
 10
-642.5095941457193
 20
306.507889894878
 30
0.0
 11
-642.024308436152
 21
306.5717789705861
 31
0.0
  0
LINE
  5
257
  8
0
 10
-640.4005108040562
 20
305.634278970586
 30
0.0
 11
-640.2131975118601
 21
305.1820646801532
 31
0.0
  0
LINE
  5
258
  8
0
 10
-640.6984832214274
 20
306.0226041853109
 30
0.0
 11
-640.4005108040562
 21
305.634278970586
 31
0.0
  0
LINE
  5
259
  8
0
 10
-641.0868084361522
 20
303.0729813384903
 30
0.0
 11
-641.5390227265849
 21
302.885668046294
 31
0.0
  0
LINE
  5
25A
  8
0
 10
-642.9618084361521
 20
306.3205766026819
 30
0.0
 11
-642.5095941457193
 21
306.507889894878
 31
0.0
  0
LINE
  5
25B
  8
0
 10
-642.5095941457193
 20
302.885668046294
 30
0.0
 11
-642.9618084361521
 21
303.0729813384903
 31
0.0
  0
LINE
  5
25C
  8
0
 10
-640.2131975118601
 20
304.2114932610188
 30
0.0
 11
-640.4005108040562
 21
303.759278970586
 31
0.0
  0
LINE
  5
25D
  8
0
 10
-641.0868084361522
 20
306.3205766026819
 30
0.0
 11
-640.6984832214274
 21
306.0226041853109
 31
0.0
  0
LINE
  5
25E
  8
0
 10
-640.4005108040562
 20
303.759278970586
 30
0.0
 11
-640.6984832214274
 21
303.3709537558613
 31
0.0
  0
LINE
  5
25F
  8
0
 10
-643.6481060682481
 20
303.759278970586
 30
0.0
 11
-643.835419360444
 21
304.2114932610188
 31
0.0
  0
LINE
  5
260
  8
0
 10
-592.0539301864436
 20
304.6967789705861
 30
0.0
 11
-592.1178192621517
 21
304.2114932610188
 31
0.0
  0
LINE
  5
261
  8
0
 10
-592.603104971719
 20
303.3709537558613
 30
0.0
 11
-592.9914301864437
 21
303.0729813384903
 31
0.0
  0
LINE
  5
262
  8
0
 10
-595.8039301864437
 20
304.6967789705861
 30
0.0
 11
-595.7400411107355
 21
305.1820646801532
 31
0.0
  0
LINE
  5
263
  8
0
 10
-595.7400411107355
 20
304.2114932610188
 30
0.0
 11
-595.8039301864437
 21
304.6967789705861
 31
0.0
  0
LINE
  5
264
  8
0
 10
-595.5527278185396
 20
305.634278970586
 30
0.0
 11
-595.2547554011684
 21
306.0226041853109
 31
0.0
  0
LINE
  5
265
  8
0
 10
-594.8664301864436
 20
303.0729813384903
 30
0.0
 11
-595.2547554011684
 21
303.3709537558613
 31
0.0
  0
LINE
  5
266
  8
0
 10
-595.2547554011684
 20
306.0226041853109
 30
0.0
 11
-594.8664301864436
 21
306.3205766026819
 31
0.0
  0
LINE
  5
267
  8
0
 10
-593.9289301864435
 20
302.8217789705861
 30
0.0
 11
-594.4142158960109
 21
302.885668046294
 31
0.0
  0
LINE
  5
268
  8
0
 10
-592.1178192621517
 20
305.1820646801532
 30
0.0
 11
-592.0539301864436
 21
304.6967789705861
 31
0.0
  0
LINE
  5
269
  8
0
 10
-593.4436444768764
 20
306.507889894878
 30
0.0
 11
-592.9914301864437
 21
306.3205766026819
 31
0.0
  0
LINE
  5
26A
  8
0
 10
-595.2547554011684
 20
303.3709537558613
 30
0.0
 11
-595.5527278185396
 21
303.759278970586
 31
0.0
  0
LINE
  5
26B
  8
0
 10
-595.7400411107355
 20
305.1820646801532
 30
0.0
 11
-595.5527278185396
 21
305.634278970586
 31
0.0
  0
LINE
  5
26C
  8
0
 10
-593.4436444768764
 20
302.885668046294
 30
0.0
 11
-593.9289301864435
 21
302.8217789705861
 31
0.0
  0
LINE
  5
26D
  8
0
 10
-593.9289301864435
 20
306.5717789705861
 30
0.0
 11
-593.4436444768764
 21
306.507889894878
 31
0.0
  0
LINE
  5
26E
  8
0
 10
-594.4142158960109
 20
306.507889894878
 30
0.0
 11
-593.9289301864435
 21
306.5717789705861
 31
0.0
  0
LINE
  5
26F
  8
0
 10
-592.3051325543478
 20
305.634278970586
 30
0.0
 11
-592.1178192621517
 21
305.1820646801532
 31
0.0
  0
LINE
  5
270
  8
0
 10
-592.603104971719
 20
306.0226041853109
 30
0.0
 11
-592.3051325543478
 21
305.634278970586
 31
0.0
  0
LINE
  5
271
  8
0
 10
-592.9914301864437
 20
303.0729813384903
 30
0.0
 11
-593.4436444768764
 21
302.885668046294
 31
0.0
  0
LINE
  5
272
  8
0
 10
-594.8664301864436
 20
306.3205766026819
 30
0.0
 11
-594.4142158960109
 21
306.507889894878
 31
0.0
  0
LINE
  5
273
  8
0
 10
-594.4142158960109
 20
302.885668046294
 30
0.0
 11
-594.8664301864436
 21
303.0729813384903
 31
0.0
  0
LINE
  5
274
  8
0
 10
-592.1178192621517
 20
304.2114932610188
 30
0.0
 11
-592.3051325543478
 21
303.759278970586
 31
0.0
  0
LINE
  5
275
  8
0
 10
-592.9914301864437
 20
306.3205766026819
 30
0.0
 11
-592.603104971719
 21
306.0226041853109
 31
0.0
  0
LINE
  5
276
  8
0
 10
-592.3051325543478
 20
303.759278970586
 30
0.0
 11
-592.603104971719
 21
303.3709537558613
 31
0.0
  0
LINE
  5
277
  8
0
 10
-595.5527278185396
 20
303.759278970586
 30
0.0
 11
-595.7400411107355
 21
304.2114932610188
 31
0.0
  0
LINE
  5
278
  8
0
 10
-577.4625812727285
 20
226.7598071929104
 30
0.0
 11
-577.4625812727285
 21
302.0198693296667
 31
0.0
  0
LINE
  5
279
  8
0
 10
-658.6625812727284
 20
302.0198693296667
 30
0.0
 11
-658.6625812727284
 21
226.7598071929104
 31
0.0
  0
LINE
  5
27A
  8
0
 10
-577.4625812727285
 20
302.0198693296667
 30
0.0
 11
-658.6625812727284
 21
302.0198693296667
 31
0.0
  0
LINE
  5
27B
  8
0
 10
-658.6625812727284
 20
226.7598071929104
 30
0.0
 11
-577.4625812727285
 21
226.7598071929104
 31
0.0
  0
LINE
  5
27C
  8
0
 10
-144.2388595318464
 20
259.4983518672853
 30
0.0
 11
-144.6939973560491
 21
259.242533668817
 31
0.0
  0
LINE
  5
27D
  8
0
 10
-143.8654407747755
 20
259.8632516090707
 30
0.0
 11
-144.2388595318464
 21
259.4983518672853
 31
0.0
  0
LINE
  5
27E
  8
0
 10
-143.5991889560269
 20
260.3123655797959
 30
0.0
 11
-143.8654407747755
 21
259.8632516090707
 31
0.0
  0
LINE
  5
27F
  8
0
 10
-143.4582486970467
 20
260.8150874045519
 30
0.0
 11
-143.5991889560269
 21
260.3123655797959
 31
0.0
  0
LINE
  5
280
  8
0
 10
-143.4522248435692
 20
261.3371574217687
 30
0.0
 11
-143.4582486970467
 21
260.8150874045519
 31
0.0
  0
LINE
  5
281
  8
0
 10
-143.5815279112544
 20
261.8429974225345
 30
0.0
 11
-143.4522248435692
 21
261.3371574217687
 31
0.0
  0
LINE
  5
282
  8
0
 10
-143.8373461097226
 20
262.2981352467371
 30
0.0
 11
-143.5815279112544
 21
261.8429974225345
 31
0.0
  0
LINE
  5
283
  8
0
 10
-144.202245851508
 20
262.671554003808
 30
0.0
 11
-143.8373461097226
 21
262.2981352467371
 31
0.0
  0
LINE
  5
284
  8
0
 10
-144.6513598222332
 20
262.9378058225565
 30
0.0
 11
-144.202245851508
 21
262.671554003808
 31
0.0
  0
LINE
  5
285
  8
0
 10
-145.1540816469893
 20
263.0787460815368
 30
0.0
 11
-144.6513598222332
 21
262.9378058225565
 31
0.0
  0
LINE
  5
286
  8
0
 10
-145.676151664206
 20
263.0847699350143
 30
0.0
 11
-145.1540816469893
 21
263.0787460815368
 31
0.0
  0
LINE
  5
287
  8
0
 10
-146.1819916649717
 20
262.9554668673292
 30
0.0
 11
-145.676151664206
 21
263.0847699350143
 31
0.0
  0
LINE
  5
288
  8
0
 10
-146.6371294891744
 20
262.6996486688609
 30
0.0
 11
-146.1819916649717
 21
262.9554668673292
 31
0.0
  0
LINE
  5
289
  8
0
 10
-147.0105482462453
 20
262.3347489270755
 30
0.0
 11
-146.6371294891744
 21
262.6996486688609
 31
0.0
  0
LINE
  5
28A
  8
0
 10
-147.2768000649938
 20
261.8856349563503
 30
0.0
 11
-147.0105482462453
 21
262.3347489270755
 31
0.0
  0
LINE
  5
28B
  8
0
 10
-147.4177403239742
 20
261.3829131315943
 30
0.0
 11
-147.2768000649938
 21
261.8856349563503
 31
0.0
  0
LINE
  5
28C
  8
0
 10
-147.4237641774515
 20
260.8608431143775
 30
0.0
 11
-147.4177403239742
 21
261.3829131315943
 31
0.0
  0
LINE
  5
28D
  8
0
 10
-147.2944611097665
 20
260.3550031136118
 30
0.0
 11
-147.4237641774515
 21
260.8608431143775
 31
0.0
  0
LINE
  5
28E
  8
0
 10
-147.0386429112982
 20
259.8998652894091
 30
0.0
 11
-147.2944611097665
 21
260.3550031136118
 31
0.0
  0
LINE
  5
28F
  8
0
 10
-146.6737431695128
 20
259.5264465323382
 30
0.0
 11
-147.0386429112982
 21
259.8998652894091
 31
0.0
  0
LINE
  5
290
  8
0
 10
-146.2246291987876
 20
259.2601947135897
 30
0.0
 11
-146.6737431695128
 21
259.5264465323382
 31
0.0
  0
LINE
  5
291
  8
0
 10
-145.7219073740316
 20
259.1192544546094
 30
0.0
 11
-146.2246291987876
 21
259.2601947135897
 31
0.0
  0
LINE
  5
292
  8
0
 10
-145.1998373568148
 20
259.1132306011319
 30
0.0
 11
-145.7219073740316
 21
259.1192544546094
 31
0.0
  0
LINE
  5
293
  8
0
 10
-144.6939973560491
 20
259.242533668817
 30
0.0
 11
-145.1998373568148
 21
259.1132306011319
 31
0.0
  0
LINE
  5
294
  8
0
 10
-144.4379945105104
 20
228.331051075642
 30
0.0
 11
-144.0237809481373
 21
228.0132138304462
 31
0.0
  0
LINE
  5
295
  8
0
 10
-144.9203564203054
 20
228.5308519206513
 30
0.0
 11
-144.4379945105104
 21
228.331051075642
 31
0.0
  0
LINE
  5
296
  8
0
 10
-145.4379945105104
 20
228.5990002680731
 30
0.0
 11
-144.9203564203054
 21
228.5308519206513
 31
0.0
  0
LINE
  5
297
  8
0
 10
-145.9556326007155
 20
228.5308519206513
 30
0.0
 11
-145.4379945105104
 21
228.5990002680731
 31
0.0
  0
LINE
  5
298
  8
0
 10
-146.4379945105104
 20
228.331051075642
 30
0.0
 11
-145.9556326007155
 21
228.5308519206513
 31
0.0
  0
LINE
  5
299
  8
0
 10
-146.8522080728835
 20
228.0132138304462
 30
0.0
 11
-146.4379945105104
 21
228.331051075642
 31
0.0
  0
LINE
  5
29A
  8
0
 10
-147.1700453180793
 20
227.5990002680731
 30
0.0
 11
-146.8522080728835
 21
228.0132138304462
 31
0.0
  0
LINE
  5
29B
  8
0
 10
-147.3698461630885
 20
227.1166383582782
 30
0.0
 11
-147.1700453180793
 21
227.5990002680731
 31
0.0
  0
LINE
  5
29C
  8
0
 10
-147.4379945105104
 20
226.5990002680731
 30
0.0
 11
-147.3698461630885
 21
227.1166383582782
 31
0.0
  0
LINE
  5
29D
  8
0
 10
-147.3698461630885
 20
226.0813621778681
 30
0.0
 11
-147.4379945105104
 21
226.5990002680731
 31
0.0
  0
LINE
  5
29E
  8
0
 10
-147.1700453180793
 20
225.5990002680731
 30
0.0
 11
-147.3698461630885
 21
226.0813621778681
 31
0.0
  0
LINE
  5
29F
  8
0
 10
-146.8522080728835
 20
225.1847867057
 30
0.0
 11
-147.1700453180793
 21
225.5990002680731
 31
0.0
  0
LINE
  5
2A0
  8
0
 10
-146.4379945105104
 20
224.8669494605043
 30
0.0
 11
-146.8522080728835
 21
225.1847867057
 31
0.0
  0
LINE
  5
2A1
  8
0
 10
-145.9556326007155
 20
224.667148615495
 30
0.0
 11
-146.4379945105104
 21
224.8669494605043
 31
0.0
  0
LINE
  5
2A2
  8
0
 10
-145.4379945105104
 20
224.5990002680731
 30
0.0
 11
-145.9556326007155
 21
224.667148615495
 31
0.0
  0
LINE
  5
2A3
  8
0
 10
-144.9203564203054
 20
224.667148615495
 30
0.0
 11
-145.4379945105104
 21
224.5990002680731
 31
0.0
  0
LINE
  5
2A4
  8
0
 10
-144.4379945105104
 20
224.8669494605043
 30
0.0
 11
-144.9203564203054
 21
224.667148615495
 31
0.0
  0
LINE
  5
2A5
  8
0
 10
-144.0237809481373
 20
225.1847867057
 30
0.0
 11
-144.4379945105104
 21
224.8669494605043
 31
0.0
  0
LINE
  5
2A6
  8
0
 10
-143.7059437029415
 20
225.5990002680731
 30
0.0
 11
-144.0237809481373
 21
225.1847867057
 31
0.0
  0
LINE
  5
2A7
  8
0
 10
-143.5061428579322
 20
226.0813621778681
 30
0.0
 11
-143.7059437029415
 21
225.5990002680731
 31
0.0
  0
LINE
  5
2A8
  8
0
 10
-143.4379945105104
 20
226.5990002680731
 30
0.0
 11
-143.5061428579322
 21
226.0813621778681
 31
0.0
  0
LINE
  5
2A9
  8
0
 10
-143.5061428579322
 20
227.1166383582782
 30
0.0
 11
-143.4379945105104
 21
226.5990002680731
 31
0.0
  0
LINE
  5
2AA
  8
0
 10
-143.7059437029415
 20
227.5990002680731
 30
0.0
 11
-143.5061428579322
 21
227.1166383582782
 31
0.0
  0
LINE
  5
2AB
  8
0
 10
-144.0237809481373
 20
228.0132138304462
 30
0.0
 11
-143.7059437029415
 21
227.5990002680731
 31
0.0
  0
LINE
  5
2AC
  8
0
 10
5.076219051862703
 20
225.1847867057
 30
0.0
 11
4.662005489489648
 21
224.8669494605043
 31
0.0
  0
LINE
  5
2AD
  8
0
 10
5.394056297058471
 20
225.5990002680731
 30
0.0
 11
5.076219051862703
 21
225.1847867057
 31
0.0
  0
LINE
  5
2AE
  8
0
 10
5.593857142067771
 20
226.0813621778681
 30
0.0
 11
5.394056297058471
 21
225.5990002680731
 31
0.0
  0
LINE
  5
2AF
  8
0
 10
5.662005489489601
 20
226.5990002680731
 30
0.0
 11
5.593857142067771
 21
226.0813621778681
 31
0.0
  0
LINE
  5
2B0
  8
0
 10
5.593857142067771
 20
227.1166383582782
 30
0.0
 11
5.662005489489601
 21
226.5990002680731
 31
0.0
  0
LINE
  5
2B1
  8
0
 10
5.394056297058471
 20
227.5990002680731
 30
0.0
 11
5.593857142067771
 21
227.1166383582782
 31
0.0
  0
LINE
  5
2B2
  8
0
 10
5.076219051862703
 20
228.0132138304462
 30
0.0
 11
5.394056297058471
 21
227.5990002680731
 31
0.0
  0
LINE
  5
2B3
  8
0
 10
4.662005489489648
 20
228.331051075642
 30
0.0
 11
5.076219051862703
 21
228.0132138304462
 31
0.0
  0
LINE
  5
2B4
  8
0
 10
4.179643579694582
 20
228.5308519206513
 30
0.0
 11
4.662005489489648
 21
228.331051075642
 31
0.0
  0
LINE
  5
2B5
  8
0
 10
3.662005489489514
 20
228.5990002680731
 30
0.0
 11
4.179643579694582
 21
228.5308519206513
 31
0.0
  0
LINE
  5
2B6
  8
0
 10
3.144367399284446
 20
228.5308519206513
 30
0.0
 11
3.662005489489514
 21
228.5990002680731
 31
0.0
  0
LINE
  5
2B7
  8
0
 10
2.662005489489561
 20
228.331051075642
 30
0.0
 11
3.144367399284446
 21
228.5308519206513
 31
0.0
  0
LINE
  5
2B8
  8
0
 10
2.247791927116506
 20
228.0132138304462
 30
0.0
 11
2.662005489489561
 21
228.331051075642
 31
0.0
  0
LINE
  5
2B9
  8
0
 10
1.929954681920737
 20
227.5990002680731
 30
0.0
 11
2.247791927116506
 21
228.0132138304462
 31
0.0
  0
LINE
  5
2BA
  8
0
 10
1.730153836911438
 20
227.1166383582782
 30
0.0
 11
1.929954681920737
 21
227.5990002680731
 31
0.0
  0
LINE
  5
2BB
  8
0
 10
1.662005489489608
 20
226.5990002680731
 30
0.0
 11
1.730153836911438
 21
227.1166383582782
 31
0.0
  0
LINE
  5
2BC
  8
0
 10
1.730153836911438
 20
226.0813621778681
 30
0.0
 11
1.662005489489608
 21
226.5990002680731
 31
0.0
  0
LINE
  5
2BD
  8
0
 10
1.929954681920737
 20
225.5990002680731
 30
0.0
 11
1.730153836911438
 21
226.0813621778681
 31
0.0
  0
LINE
  5
2BE
  8
0
 10
2.247791927116506
 20
225.1847867057
 30
0.0
 11
1.929954681920737
 21
225.5990002680731
 31
0.0
  0
LINE
  5
2BF
  8
0
 10
2.662005489489561
 20
224.8669494605043
 30
0.0
 11
2.247791927116506
 21
225.1847867057
 31
0.0
  0
LINE
  5
2C0
  8
0
 10
3.144367399284446
 20
224.667148615495
 30
0.0
 11
2.662005489489561
 21
224.8669494605043
 31
0.0
  0
LINE
  5
2C1
  8
0
 10
3.662005489489514
 20
224.5990002680731
 30
0.0
 11
3.144367399284446
 21
224.667148615495
 31
0.0
  0
LINE
  5
2C2
  8
0
 10
4.179643579694582
 20
224.667148615495
 30
0.0
 11
3.662005489489514
 21
224.5990002680731
 31
0.0
  0
LINE
  5
2C3
  8
0
 10
4.662005489489648
 20
224.8669494605043
 30
0.0
 11
4.179643579694582
 21
224.667148615495
 31
0.0
  0
LINE
  5
2C4
  8
0
 10
-41.76908342375595
 20
250.7490002680731
 30
0.0
 11
-42.11873490252218
 21
251.5931336102143
 31
0.0
  0
LINE
  5
2C5
  8
0
 10
-41.21286824466331
 20
250.0241265339202
 30
0.0
 11
-41.76908342375595
 21
250.7490002680731
 31
0.0
  0
LINE
  5
2C6
  8
0
 10
-40.48799451051037
 20
249.4679113548276
 30
0.0
 11
-41.21286824466331
 21
250.0241265339202
 31
0.0
  0
LINE
  5
2C7
  8
0
 10
-39.64386116836918
 20
249.1182598760614
 30
0.0
 11
-40.48799451051037
 21
249.4679113548276
 31
0.0
  0
LINE
  5
2C8
  8
0
 10
-38.73799451051041
 20
248.9990002680731
 30
0.0
 11
-39.64386116836918
 21
249.1182598760614
 31
0.0
  0
LINE
  5
2C9
  8
0
 10
-37.83212785265154
 20
249.1182598760614
 30
0.0
 11
-38.73799451051041
 21
248.9990002680731
 31
0.0
  0
LINE
  5
2CA
  8
0
 10
-36.98799451051035
 20
249.4679113548276
 30
0.0
 11
-37.83212785265154
 21
249.1182598760614
 31
0.0
  0
LINE
  5
2CB
  8
0
 10
-36.26312077635742
 20
250.0241265339202
 30
0.0
 11
-36.98799451051035
 21
249.4679113548276
 31
0.0
  0
LINE
  5
2CC
  8
0
 10
-35.70690559726487
 20
250.7490002680731
 30
0.0
 11
-36.26312077635742
 21
250.0241265339202
 31
0.0
  0
LINE
  5
2CD
  8
0
 10
-35.35725411849864
 20
251.5931336102143
 30
0.0
 11
-35.70690559726487
 21
250.7490002680731
 31
0.0
  0
LINE
  5
2CE
  8
0
 10
-35.23799451051039
 20
252.4990002680731
 30
0.0
 11
-35.35725411849864
 21
251.5931336102143
 31
0.0
  0
LINE
  5
2CF
  8
0
 10
-35.35725411849864
 20
253.4048669259319
 30
0.0
 11
-35.23799451051039
 21
252.4990002680731
 31
0.0
  0
LINE
  5
2D0
  8
0
 10
-35.70690559726487
 20
254.2490002680731
 30
0.0
 11
-35.35725411849864
 21
253.4048669259319
 31
0.0
  0
LINE
  5
2D1
  8
0
 10
-36.26312077635742
 20
254.973874002226
 30
0.0
 11
-35.70690559726487
 21
254.2490002680731
 31
0.0
  0
LINE
  5
2D2
  8
0
 10
-36.98799451051035
 20
255.5300891813187
 30
0.0
 11
-36.26312077635742
 21
254.973874002226
 31
0.0
  0
LINE
  5
2D3
  8
0
 10
-37.83212785265154
 20
255.8797406600849
 30
0.0
 11
-36.98799451051035
 21
255.5300891813187
 31
0.0
  0
LINE
  5
2D4
  8
0
 10
-38.73799451051041
 20
255.9990002680731
 30
0.0
 11
-37.83212785265154
 21
255.8797406600849
 31
0.0
  0
LINE
  5
2D5
  8
0
 10
-39.64386116836918
 20
255.8797406600849
 30
0.0
 11
-38.73799451051041
 21
255.9990002680731
 31
0.0
  0
LINE
  5
2D6
  8
0
 10
-40.48799451051037
 20
255.5300891813187
 30
0.0
 11
-39.64386116836918
 21
255.8797406600849
 31
0.0
  0
LINE
  5
2D7
  8
0
 10
-41.21286824466331
 20
254.973874002226
 30
0.0
 11
-40.48799451051037
 21
255.5300891813187
 31
0.0
  0
LINE
  5
2D8
  8
0
 10
-41.76908342375595
 20
254.2490002680731
 30
0.0
 11
-41.21286824466331
 21
254.973874002226
 31
0.0
  0
LINE
  5
2D9
  8
0
 10
-42.11873490252218
 20
253.4048669259319
 30
0.0
 11
-41.76908342375595
 21
254.2490002680731
 31
0.0
  0
LINE
  5
2DA
  8
0
 10
-42.23799451051033
 20
252.4990002680731
 30
0.0
 11
-42.11873490252218
 21
253.4048669259319
 31
0.0
  0
LINE
  5
2DB
  8
0
 10
-42.11873490252218
 20
251.5931336102143
 30
0.0
 11
-42.23799451051033
 21
252.4990002680731
 31
0.0
  0
LINE
  5
2DC
  8
0
 10
5.394056297058471
 20
260.0990002680731
 30
0.0
 11
5.076219051862703
 21
259.6847867057
 31
0.0
  0
LINE
  5
2DD
  8
0
 10
5.593857142067771
 20
260.5813621778681
 30
0.0
 11
5.394056297058471
 21
260.0990002680731
 31
0.0
  0
LINE
  5
2DE
  8
0
 10
5.662005489489601
 20
261.0990002680732
 30
0.0
 11
5.593857142067771
 21
260.5813621778681
 31
0.0
  0
LINE
  5
2DF
  8
0
 10
5.593857142067771
 20
261.6166383582782
 30
0.0
 11
5.662005489489601
 21
261.0990002680732
 31
0.0
  0
LINE
  5
2E0
  8
0
 10
5.394056297058471
 20
262.0990002680731
 30
0.0
 11
5.593857142067771
 21
261.6166383582782
 31
0.0
  0
LINE
  5
2E1
  8
0
 10
5.076219051862703
 20
262.5132138304463
 30
0.0
 11
5.394056297058471
 21
262.0990002680731
 31
0.0
  0
LINE
  5
2E2
  8
0
 10
4.662005489489648
 20
262.831051075642
 30
0.0
 11
5.076219051862703
 21
262.5132138304463
 31
0.0
  0
LINE
  5
2E3
  8
0
 10
4.179643579694582
 20
263.0308519206512
 30
0.0
 11
4.662005489489648
 21
262.831051075642
 31
0.0
  0
LINE
  5
2E4
  8
0
 10
3.662005489489514
 20
263.0990002680732
 30
0.0
 11
4.179643579694582
 21
263.0308519206512
 31
0.0
  0
LINE
  5
2E5
  8
0
 10
3.144367399284446
 20
263.0308519206512
 30
0.0
 11
3.662005489489514
 21
263.0990002680732
 31
0.0
  0
LINE
  5
2E6
  8
0
 10
2.662005489489561
 20
262.831051075642
 30
0.0
 11
3.144367399284446
 21
263.0308519206512
 31
0.0
  0
LINE
  5
2E7
  8
0
 10
2.247791927116506
 20
262.5132138304463
 30
0.0
 11
2.662005489489561
 21
262.831051075642
 31
0.0
  0
LINE
  5
2E8
  8
0
 10
1.929954681920737
 20
262.0990002680731
 30
0.0
 11
2.247791927116506
 21
262.5132138304463
 31
0.0
  0
LINE
  5
2E9
  8
0
 10
1.730153836911438
 20
261.6166383582782
 30
0.0
 11
1.929954681920737
 21
262.0990002680731
 31
0.0
  0
LINE
  5
2EA
  8
0
 10
1.662005489489608
 20
261.0990002680732
 30
0.0
 11
1.730153836911438
 21
261.6166383582782
 31
0.0
  0
LINE
  5
2EB
  8
0
 10
1.730153836911438
 20
260.5813621778681
 30
0.0
 11
1.662005489489608
 21
261.0990002680732
 31
0.0
  0
LINE
  5
2EC
  8
0
 10
1.929954681920737
 20
260.0990002680731
 30
0.0
 11
1.730153836911438
 21
260.5813621778681
 31
0.0
  0
LINE
  5
2ED
  8
0
 10
2.247791927116506
 20
259.6847867057
 30
0.0
 11
1.929954681920737
 21
260.0990002680731
 31
0.0
  0
LINE
  5
2EE
  8
0
 10
2.662005489489561
 20
259.3669494605042
 30
0.0
 11
2.247791927116506
 21
259.6847867057
 31
0.0
  0
LINE
  5
2EF
  8
0
 10
3.144367399284446
 20
259.167148615495
 30
0.0
 11
2.662005489489561
 21
259.3669494605042
 31
0.0
  0
LINE
  5
2F0
  8
0
 10
3.662005489489514
 20
259.0990002680732
 30
0.0
 11
3.144367399284446
 21
259.167148615495
 31
0.0
  0
LINE
  5
2F1
  8
0
 10
4.179643579694582
 20
259.167148615495
 30
0.0
 11
3.662005489489514
 21
259.0990002680732
 31
0.0
  0
LINE
  5
2F2
  8
0
 10
4.662005489489648
 20
259.3669494605042
 30
0.0
 11
4.179643579694582
 21
259.167148615495
 31
0.0
  0
LINE
  5
2F3
  8
0
 10
5.076219051862703
 20
259.6847867057
 30
0.0
 11
4.662005489489648
 21
259.3669494605042
 31
0.0
  0
LINE
  5
2F4
  8
0
 10
-93.93799451051039
 20
261.0990002680732
 30
0.0
 11
-75.93799451051044
 21
261.0990002680732
 31
0.0
  0
LINE
  5
2F5
  8
0
 10
-75.93799451051044
 20
240.8990002680731
 30
0.0
 11
-93.93799451051039
 21
240.8990002680731
 31
0.0
  0
LINE
  5
2F6
  8
0
 10
-75.93799451051044
 20
261.0990002680732
 30
0.0
 11
-75.93799451051044
 21
240.8990002680731
 31
0.0
  0
LINE
  5
2F7
  8
0
 10
-93.93799451051039
 20
240.8990002680731
 30
0.0
 11
-93.93799451051039
 21
261.0990002680732
 31
0.0
  0
LINE
  5
2F8
  8
0
 10
-184.5508792095528
 20
242.9014216314609
 30
0.0
 11
-184.7506800545619
 21
243.3837835412559
 31
0.0
  0
LINE
  5
2F9
  8
0
 10
-182.8188284019839
 20
241.9014216314609
 30
0.0
 11
-183.3364664921889
 21
241.9695699788828
 31
0.0
  0
LINE
  5
2FA
  8
0
 10
-183.3364664921889
 20
241.9695699788828
 30
0.0
 11
-183.8188284019838
 21
242.1693708238921
 31
0.0
  0
LINE
  5
2FB
  8
0
 10
-182.3011903117788
 20
241.9695699788828
 30
0.0
 11
-182.8188284019839
 21
241.9014216314609
 31
0.0
  0
LINE
  5
2FC
  8
0
 10
-181.8188284019839
 20
242.1693708238921
 30
0.0
 11
-182.3011903117788
 21
241.9695699788828
 31
0.0
  0
LINE
  5
2FD
  8
0
 10
-184.2330419643569
 20
242.4872080690878
 30
0.0
 11
-184.5508792095528
 21
242.9014216314609
 31
0.0
  0
LINE
  5
2FE
  8
0
 10
-183.8188284019838
 20
242.1693708238921
 30
0.0
 11
-184.2330419643569
 21
242.4872080690878
 31
0.0
  0
LINE
  5
2FF
  8
0
 10
-184.818828401984
 20
243.9014216314609
 30
0.0
 11
-184.7506800545619
 21
244.419059721666
 31
0.0
  0
LINE
  5
300
  8
0
 10
-180.8869767494058
 20
243.3837835412559
 30
0.0
 11
-181.0867775944149
 21
242.9014216314609
 31
0.0
  0
LINE
  5
301
  8
0
 10
-184.7506800545619
 20
244.419059721666
 30
0.0
 11
-184.5508792095528
 21
244.9014216314609
 31
0.0
  0
LINE
  5
302
  8
0
 10
-181.4046148396109
 20
245.3156351938341
 30
0.0
 11
-181.0867775944149
 21
244.9014216314609
 31
0.0
  0
LINE
  5
303
  8
0
 10
-184.7506800545619
 20
243.3837835412559
 30
0.0
 11
-184.818828401984
 21
243.9014216314609
 31
0.0
  0
LINE
  5
304
  8
0
 10
-184.2330419643569
 20
245.3156351938341
 30
0.0
 11
-183.8188284019838
 21
245.6334724390298
 31
0.0
  0
LINE
  5
305
  8
0
 10
-181.0867775944149
 20
244.9014216314609
 30
0.0
 11
-180.8869767494058
 21
244.419059721666
 31
0.0
  0
LINE
  5
306
  8
0
 10
-183.8188284019838
 20
245.6334724390298
 30
0.0
 11
-183.3364664921889
 21
245.8332732840391
 31
0.0
  0
LINE
  5
307
  8
0
 10
-182.8188284019839
 20
245.9014216314609
 30
0.0
 11
-182.3011903117788
 21
245.8332732840391
 31
0.0
  0
LINE
  5
308
  8
0
 10
-184.5508792095528
 20
244.9014216314609
 30
0.0
 11
-184.2330419643569
 21
245.3156351938341
 31
0.0
  0
LINE
  5
309
  8
0
 10
-181.4046148396109
 20
242.4872080690878
 30
0.0
 11
-181.8188284019839
 21
242.1693708238921
 31
0.0
  0
LINE
  5
30A
  8
0
 10
-180.8188284019838
 20
243.9014216314609
 30
0.0
 11
-180.8869767494058
 21
243.3837835412559
 31
0.0
  0
LINE
  5
30B
  8
0
 10
-181.0867775944149
 20
242.9014216314609
 30
0.0
 11
-181.4046148396109
 21
242.4872080690878
 31
0.0
  0
LINE
  5
30C
  8
0
 10
-181.8188284019839
 20
245.6334724390298
 30
0.0
 11
-181.4046148396109
 21
245.3156351938341
 31
0.0
  0
LINE
  5
30D
  8
0
 10
-182.3011903117788
 20
245.8332732840391
 30
0.0
 11
-181.8188284019839
 21
245.6334724390298
 31
0.0
  0
LINE
  5
30E
  8
0
 10
-180.8869767494058
 20
244.419059721666
 30
0.0
 11
-180.8188284019838
 21
243.9014216314609
 31
0.0
  0
LINE
  5
30F
  8
0
 10
-183.3364664921889
 20
245.8332732840391
 30
0.0
 11
-182.8188284019839
 21
245.9014216314609
 31
0.0
  0
LINE
  5
310
  8
0
 10
96.50617159801577
 20
1.462617208071134
 30
0.0
 11
96.92038516038882
 21
1.144779962875366
 31
0.0
  0
LINE
  5
311
  8
0
 10
97.23822240558476
 20
-1.269433599497731
 30
0.0
 11
96.92038516038882
 21
-1.683647161870831
 31
0.0
  0
LINE
  5
312
  8
0
 10
96.92038516038882
 20
1.144779962875366
 30
0.0
 11
97.23822240558476
 21
0.7305664005022656
 31
0.0
  0
LINE
  5
313
  8
0
 10
94.0919580356428
 20
-1.683647161870831
 30
0.0
 11
93.77412079044686
 21
-1.269433599497731
 31
0.0
  0
LINE
  5
314
  8
0
 10
93.77412079044686
 20
-1.269433599497731
 30
0.0
 11
93.57431994543774
 21
-0.7870716897027555
 31
0.0
  0
LINE
  5
315
  8
0
 10
96.02380968822088
 20
1.662418053080389
 30
0.0
 11
96.50617159801577
 21
1.462617208071134
 31
0.0
  0
LINE
  5
316
  8
0
 10
95.50617159801581
 20
1.730566400502264
 30
0.0
 11
96.02380968822088
 21
1.662418053080389
 31
0.0
  0
LINE
  5
317
  8
0
 10
-732.7938284019826
 20
0.9531898787243704
 30
0.0
 11
-732.3796148396095
 21
0.6353526335286019
 31
0.0
  0
LINE
  5
318
  8
0
 10
-731.7938284019825
 20
-0.7788609288444966
 30
0.0
 11
-731.8619767494044
 21
-1.29649901904952
 31
0.0
  0
LINE
  5
319
  8
0
 10
-733.7938284019825
 20
1.2211390711555
 30
0.0
 11
-733.2761903117774
 21
1.152990723733625
 31
0.0
  0
LINE
  5
31A
  8
0
 10
-734.7938284019825
 20
0.9531898787243704
 30
0.0
 11
-734.3114664921876
 21
1.152990723733625
 31
0.0
  0
LINE
  5
31B
  8
0
 10
-735.2080419643555
 20
-2.193074491217595
 30
0.0
 11
-735.5258792095515
 21
-1.778860928844495
 31
0.0
  0
LINE
  5
31C
  8
0
 10
-732.7938284019826
 20
-2.510911736413364
 30
0.0
 11
-733.2761903117774
 21
-2.710712581422618
 31
0.0
  0
LINE
  5
31D
  8
0
 10
-734.7938284019825
 20
-2.510911736413364
 30
0.0
 11
-735.2080419643555
 21
-2.193074491217595
 31
0.0
  0
LINE
  5
31E
  8
0
 10
-732.3796148396095
 20
-2.193074491217595
 30
0.0
 11
-732.7938284019826
 21
-2.510911736413364
 31
0.0
  0
LINE
  5
31F
  8
0
 10
-732.3796148396095
 20
0.6353526335286019
 30
0.0
 11
-732.0617775944136
 21
0.2211390711555015
 31
0.0
  0
LINE
  5
320
  8
0
 10
-735.5258792095515
 20
0.2211390711555015
 30
0.0
 11
-735.2080419643555
 21
0.6353526335286019
 31
0.0
  0
LINE
  5
321
  8
0
 10
-732.0617775944136
 20
0.2211390711555015
 30
0.0
 11
-731.8619767494044
 21
-0.2612228386394737
 31
0.0
  0
LINE
  5
322
  8
0
 10
-733.2761903117774
 20
1.152990723733625
 30
0.0
 11
-732.7938284019826
 21
0.9531898787243704
 31
0.0
  0
LINE
  5
323
  8
0
 10
-735.7256800545606
 20
-1.29649901904952
 30
0.0
 11
-735.7938284019826
 21
-0.7788609288444966
 31
0.0
  0
LINE
  5
324
  8
0
 10
-732.0617775944136
 20
-1.778860928844495
 30
0.0
 11
-732.3796148396095
 21
-2.193074491217595
 31
0.0
  0
LINE
  5
325
  8
0
 10
-731.8619767494044
 20
-1.29649901904952
 30
0.0
 11
-732.0617775944136
 21
-1.778860928844495
 31
0.0
  0
LINE
  5
326
  8
0
 10
-734.3114664921876
 20
-2.710712581422618
 30
0.0
 11
-734.7938284019825
 21
-2.510911736413364
 31
0.0
  0
LINE
  5
327
  8
0
 10
-731.8619767494044
 20
-0.2612228386394737
 30
0.0
 11
-731.7938284019825
 21
-0.7788609288444966
 31
0.0
  0
LINE
  5
328
  8
0
 10
-735.2080419643555
 20
0.6353526335286019
 30
0.0
 11
-734.7938284019825
 21
0.9531898787243704
 31
0.0
  0
LINE
  5
329
  8
0
 10
-734.3114664921876
 20
1.152990723733625
 30
0.0
 11
-733.7938284019825
 21
1.2211390711555
 31
0.0
  0
LINE
  5
32A
  8
0
 10
-733.7938284019825
 20
-2.778860928844493
 30
0.0
 11
-734.3114664921876
 21
-2.710712581422618
 31
0.0
  0
LINE
  5
32B
  8
0
 10
-733.2761903117774
 20
-2.710712581422618
 30
0.0
 11
-733.7938284019825
 21
-2.778860928844493
 31
0.0
  0
LINE
  5
32C
  8
0
 10
-735.7938284019826
 20
-0.7788609288444966
 30
0.0
 11
-735.7256800545606
 21
-0.2612228386394737
 31
0.0
  0
LINE
  5
32D
  8
0
 10
-735.5258792095515
 20
-1.778860928844495
 30
0.0
 11
-735.7256800545606
 21
-1.29649901904952
 31
0.0
  0
LINE
  5
32E
  8
0
 10
-735.7256800545606
 20
-0.2612228386394737
 30
0.0
 11
-735.5258792095515
 21
0.2211390711555015
 31
0.0
  0
LINE
  5
32F
  8
0
 10
325.5061715980157
 20
148.3099390306815
 30
0.0
 11
326.0238096882208
 21
148.2417906832596
 31
0.0
  0
LINE
  5
330
  8
0
 10
325.5061715980157
 20
144.3099390306815
 30
0.0
 11
324.9885335078106
 21
144.3780873781034
 31
0.0
  0
LINE
  5
331
  8
0
 10
324.5061715980157
 20
148.0419898382503
 30
0.0
 11
324.9885335078106
 21
148.2417906832596
 31
0.0
  0
LINE
  5
332
  8
0
 10
324.9885335078106
 20
144.3780873781034
 30
0.0
 11
324.5061715980157
 21
144.5778882231126
 31
0.0
  0
LINE
  5
333
  8
0
 10
327.4380232505937
 20
145.7923009404765
 30
0.0
 11
327.2382224055846
 21
145.3099390306815
 31
0.0
  0
LINE
  5
334
  8
0
 10
327.4380232505937
 20
146.8275771208865
 30
0.0
 11
327.5061715980157
 21
146.3099390306815
 31
0.0
  0
LINE
  5
335
  8
0
 10
327.5061715980157
 20
146.3099390306815
 30
0.0
 11
327.4380232505937
 21
145.7923009404765
 31
0.0
  0
LINE
  5
336
  8
0
 10
326.0238096882208
 20
148.2417906832596
 30
0.0
 11
326.5061715980156
 21
148.0419898382503
 31
0.0
  0
LINE
  5
337
  8
0
 10
326.9203851603887
 20
147.7241525930546
 30
0.0
 11
327.2382224055846
 21
147.3099390306815
 31
0.0
  0
LINE
  5
338
  8
0
 10
324.9885335078106
 20
148.2417906832596
 30
0.0
 11
325.5061715980157
 21
148.3099390306815
 31
0.0
  0
LINE
  5
339
  8
0
 10
323.5061715980156
 20
146.3099390306815
 30
0.0
 11
323.5743199454376
 21
146.8275771208865
 31
0.0
  0
LINE
  5
33A
  8
0
 10
323.5743199454376
 20
146.8275771208865
 30
0.0
 11
323.7741207904467
 21
147.3099390306815
 31
0.0
  0
LINE
  5
33B
  8
0
 10
324.0919580356427
 20
147.7241525930546
 30
0.0
 11
324.5061715980157
 21
148.0419898382503
 31
0.0
  0
LINE
  5
33C
  8
0
 10
327.2382224055846
 20
145.3099390306815
 30
0.0
 11
326.9203851603887
 21
144.8957254683084
 31
0.0
  0
LINE
  5
33D
  8
0
 10
327.2382224055846
 20
147.3099390306815
 30
0.0
 11
327.4380232505937
 21
146.8275771208865
 31
0.0
  0
LINE
  5
33E
  8
0
 10
326.5061715980156
 20
144.5778882231126
 30
0.0
 11
326.0238096882208
 21
144.3780873781034
 31
0.0
  0
LINE
  5
33F
  8
0
 10
324.0919580356427
 20
144.8957254683084
 30
0.0
 11
323.7741207904467
 21
145.3099390306815
 31
0.0
  0
LINE
  5
340
  8
0
 10
326.9203851603887
 20
144.8957254683084
 30
0.0
 11
326.5061715980156
 21
144.5778882231126
 31
0.0
  0
LINE
  5
341
  8
0
 10
326.0238096882208
 20
144.3780873781034
 30
0.0
 11
325.5061715980157
 21
144.3099390306815
 31
0.0
  0
LINE
  5
342
  8
0
 10
326.5061715980156
 20
148.0419898382503
 30
0.0
 11
326.9203851603887
 21
147.7241525930546
 31
0.0
  0
LINE
  5
343
  8
0
 10
324.5061715980157
 20
144.5778882231126
 30
0.0
 11
324.0919580356427
 21
144.8957254683084
 31
0.0
  0
LINE
  5
344
  8
0
 10
323.5743199454376
 20
145.7923009404765
 30
0.0
 11
323.5061715980156
 21
146.3099390306815
 31
0.0
  0
LINE
  5
345
  8
0
 10
323.7741207904467
 20
147.3099390306815
 30
0.0
 11
324.0919580356427
 21
147.7241525930546
 31
0.0
  0
LINE
  5
346
  8
0
 10
323.7741207904467
 20
145.3099390306815
 30
0.0
 11
323.5743199454376
 21
145.7923009404765
 31
0.0
  0
LINE
  5
347
  8
0
 10
-72.4527137964689
 20
-1.269433599497731
 30
0.0
 11
-72.652514641478
 21
-0.7870716897027555
 31
0.0
  0
LINE
  5
348
  8
0
 10
327.3956917289836
 20
0.2978865692416655
 30
0.0
 11
327.4638400764056
 21
-0.2197515209633575
 31
0.0
  0
LINE
  5
349
  8
0
 10
324.9462019862004
 20
-2.151603173541479
 30
0.0
 11
324.4638400764056
 21
-1.951802328532225
 31
0.0
  0
LINE
  5
34A
  8
0
 10
327.3956917289836
 20
-0.7373896111683805
 30
0.0
 11
327.1958908839745
 21
-1.219751520963356
 31
0.0
  0
LINE
  5
34B
  8
0
 10
323.4638400764055
 20
-0.2197515209633575
 30
0.0
 11
323.5319884238274
 21
0.2978865692416655
 31
0.0
  0
LINE
  5
34C
  8
0
 10
326.8780536387785
 20
-1.633965083336456
 30
0.0
 11
326.4638400764055
 21
-1.951802328532225
 31
0.0
  0
LINE
  5
34D
  8
0
 10
323.7317892688366
 20
-1.219751520963356
 30
0.0
 11
323.5319884238274
 21
-0.7373896111683805
 31
0.0
  0
LINE
  5
34E
  8
0
 10
93.57431994543774
 20
-0.7870716897027555
 30
0.0
 11
93.50617159801573
 21
-0.2694335994977326
 31
0.0
  0
LINE
  5
34F
  8
0
 10
324.9462019862004
 20
1.712100131614764
 30
0.0
 11
325.4638400764055
 21
1.780248479036639
 31
0.0
  0
LINE
  5
350
  8
0
 10
324.4638400764056
 20
1.51229928660551
 30
0.0
 11
324.9462019862004
 21
1.712100131614764
 31
0.0
  0
LINE
  5
351
  8
0
 10
-71.72066298889989
 20
-2.0014844070666
 30
0.0
 11
-72.13487655127294
 21
-1.683647161870831
 31
0.0
  0
LINE
  5
352
  8
0
 10
-70.72066298889993
 20
-2.269433599497729
 30
0.0
 11
-71.238301079105
 21
-2.201285252075854
 31
0.0
  0
LINE
  5
353
  8
0
 10
325.4638400764055
 20
1.780248479036639
 30
0.0
 11
325.9814781666106
 21
1.712100131614764
 31
0.0
  0
LINE
  5
354
  8
0
 10
94.98853350781074
 20
1.662418053080389
 30
0.0
 11
95.50617159801581
 21
1.730566400502264
 31
0.0
  0
LINE
  5
355
  8
0
 10
326.4638400764055
 20
1.51229928660551
 30
0.0
 11
326.8780536387785
 21
1.194462041409741
 31
0.0
  0
LINE
  5
356
  8
0
 10
325.4638400764055
 20
-2.219751520963354
 30
0.0
 11
324.9462019862004
 21
-2.151603173541479
 31
0.0
  0
LINE
  5
357
  8
0
 10
-70.20302489869486
 20
-2.201285252075854
 30
0.0
 11
-70.72066298889993
 21
-2.269433599497729
 31
0.0
  0
LINE
  5
358
  8
0
 10
-68.98861218133098
 20
-1.269433599497731
 30
0.0
 11
-69.30644942652692
 21
-1.683647161870831
 31
0.0
  0
LINE
  5
359
  8
0
 10
323.7317892688366
 20
0.7802484790366406
 30
0.0
 11
324.0496265140325
 21
1.194462041409741
 31
0.0
  0
LINE
  5
35A
  8
0
 10
-68.78881133632186
 20
-0.7870716897027555
 30
0.0
 11
-68.98861218133098
 21
-1.269433599497731
 31
0.0
  0
LINE
  5
35B
  8
0
 10
-69.30644942652692
 20
1.144779962875366
 30
0.0
 11
-68.98861218133098
 21
0.7305664005022656
 31
0.0
  0
LINE
  5
35C
  8
0
 10
-69.72066298889999
 20
1.462617208071134
 30
0.0
 11
-69.30644942652692
 21
1.144779962875366
 31
0.0
  0
LINE
  5
35D
  8
0
 10
-71.72066298889989
 20
1.462617208071134
 30
0.0
 11
-71.238301079105
 21
1.662418053080389
 31
0.0
  0
LINE
  5
35E
  8
0
 10
94.50617159801585
 20
1.462617208071134
 30
0.0
 11
94.98853350781074
 21
1.662418053080389
 31
0.0
  0
LINE
  5
35F
  8
0
 10
-72.13487655127294
 20
1.144779962875366
 30
0.0
 11
-71.72066298889989
 21
1.462617208071134
 31
0.0
  0
LINE
  5
360
  8
0
 10
326.4638400764055
 20
-1.951802328532225
 30
0.0
 11
325.9814781666106
 21
-2.151603173541479
 31
0.0
  0
LINE
  5
361
  8
0
 10
327.1958908839745
 20
0.7802484790366406
 30
0.0
 11
327.3956917289836
 21
0.2978865692416655
 31
0.0
  0
LINE
  5
362
  8
0
 10
324.0496265140325
 20
1.194462041409741
 30
0.0
 11
324.4638400764056
 21
1.51229928660551
 31
0.0
  0
LINE
  5
363
  8
0
 10
-72.4527137964689
 20
0.7305664005022656
 30
0.0
 11
-72.13487655127294
 21
1.144779962875366
 31
0.0
  0
LINE
  5
364
  8
0
 10
-72.72066298890002
 20
-0.2694335994977326
 30
0.0
 11
-72.652514641478
 21
0.2482044907072904
 31
0.0
  0
LINE
  5
365
  8
0
 10
93.50617159801573
 20
-0.2694335994977326
 30
0.0
 11
93.57431994543774
 21
0.2482044907072904
 31
0.0
  0
LINE
  5
366
  8
0
 10
-69.30644942652692
 20
-1.683647161870831
 30
0.0
 11
-69.72066298889999
 21
-2.0014844070666
 31
0.0
  0
LINE
  5
367
  8
0
 10
-70.72066298889993
 20
1.730566400502264
 30
0.0
 11
-70.20302489869486
 21
1.662418053080389
 31
0.0
  0
LINE
  5
368
  8
0
 10
324.0496265140325
 20
-1.633965083336456
 30
0.0
 11
323.7317892688366
 21
-1.219751520963356
 31
0.0
  0
LINE
  5
369
  8
0
 10
93.77412079044686
 20
0.7305664005022656
 30
0.0
 11
94.0919580356428
 21
1.144779962875366
 31
0.0
  0
LINE
  5
36A
  8
0
 10
324.4638400764056
 20
-1.951802328532225
 30
0.0
 11
324.0496265140325
 21
-1.633965083336456
 31
0.0
  0
LINE
  5
36B
  8
0
 10
326.8780536387785
 20
1.194462041409741
 30
0.0
 11
327.1958908839745
 21
0.7802484790366406
 31
0.0
  0
LINE
  5
36C
  8
0
 10
327.1958908839745
 20
-1.219751520963356
 30
0.0
 11
326.8780536387785
 21
-1.633965083336456
 31
0.0
  0
LINE
  5
36D
  8
0
 10
-72.13487655127294
 20
-1.683647161870831
 30
0.0
 11
-72.4527137964689
 21
-1.269433599497731
 31
0.0
  0
LINE
  5
36E
  8
0
 10
-69.72066298889999
 20
-2.0014844070666
 30
0.0
 11
-70.20302489869486
 21
-2.201285252075854
 31
0.0
  0
LINE
  5
36F
  8
0
 10
94.0919580356428
 20
1.144779962875366
 30
0.0
 11
94.50617159801585
 21
1.462617208071134
 31
0.0
  0
LINE
  5
370
  8
0
 10
-72.652514641478
 20
0.2482044907072904
 30
0.0
 11
-72.4527137964689
 21
0.7305664005022656
 31
0.0
  0
LINE
  5
371
  8
0
 10
-72.652514641478
 20
-0.7870716897027555
 30
0.0
 11
-72.72066298890002
 21
-0.2694335994977326
 31
0.0
  0
LINE
  5
372
  8
0
 10
-71.238301079105
 20
1.662418053080389
 30
0.0
 11
-70.72066298889993
 21
1.730566400502264
 31
0.0
  0
LINE
  5
373
  8
0
 10
323.5319884238274
 20
-0.7373896111683805
 30
0.0
 11
323.4638400764055
 21
-0.2197515209633575
 31
0.0
  0
LINE
  5
374
  8
0
 10
-70.20302489869486
 20
1.662418053080389
 30
0.0
 11
-69.72066298889999
 21
1.462617208071134
 31
0.0
  0
LINE
  5
375
  8
0
 10
323.5319884238274
 20
0.2978865692416655
 30
0.0
 11
323.7317892688366
 21
0.7802484790366406
 31
0.0
  0
LINE
  5
376
  8
0
 10
-68.98861218133098
 20
0.7305664005022656
 30
0.0
 11
-68.78881133632186
 21
0.2482044907072904
 31
0.0
  0
LINE
  5
377
  8
0
 10
325.9814781666106
 20
1.712100131614764
 30
0.0
 11
326.4638400764055
 21
1.51229928660551
 31
0.0
  0
LINE
  5
378
  8
0
 10
-71.238301079105
 20
-2.201285252075854
 30
0.0
 11
-71.72066298889989
 21
-2.0014844070666
 31
0.0
  0
LINE
  5
379
  8
0
 10
-68.72066298889985
 20
-0.2694335994977326
 30
0.0
 11
-68.78881133632186
 21
-0.7870716897027555
 31
0.0
  0
LINE
  5
37A
  8
0
 10
96.02380968822088
 20
-2.201285252075854
 30
0.0
 11
95.50617159801581
 21
-2.269433599497729
 31
0.0
  0
LINE
  5
37B
  8
0
 10
327.4638400764056
 20
-0.2197515209633575
 30
0.0
 11
327.3956917289836
 21
-0.7373896111683805
 31
0.0
  0
LINE
  5
37C
  8
0
 10
325.9814781666106
 20
-2.151603173541479
 30
0.0
 11
325.4638400764055
 21
-2.219751520963354
 31
0.0
  0
LINE
  5
37D
  8
0
 10
-68.78881133632186
 20
0.2482044907072904
 30
0.0
 11
-68.72066298889985
 21
-0.2694335994977326
 31
0.0
  0
LINE
  5
37E
  8
0
 10
-731.7938284019825
 20
145.8747976807153
 30
0.0
 11
-731.8619767494044
 21
145.3571595905102
 31
0.0
  0
LINE
  5
37F
  8
0
 10
-735.7938284019826
 20
145.8747976807153
 30
0.0
 11
-735.7256800545606
 21
146.3924357709203
 31
0.0
  0
LINE
  5
380
  8
0
 10
-735.7256800545606
 20
145.3571595905102
 30
0.0
 11
-735.7938284019826
 21
145.8747976807153
 31
0.0
  0
LINE
  5
381
  8
0
 10
-733.7938284019825
 20
143.8747976807153
 30
0.0
 11
-734.3114664921876
 21
143.9429460281371
 31
0.0
  0
LINE
  5
382
  8
0
 10
-733.2761903117774
 20
143.9429460281371
 30
0.0
 11
-733.7938284019825
 21
143.8747976807153
 31
0.0
  0
LINE
  5
383
  8
0
 10
-732.3796148396095
 20
144.4605841183422
 30
0.0
 11
-732.7938284019826
 21
144.1427468731464
 31
0.0
  0
LINE
  5
384
  8
0
 10
-731.8619767494044
 20
145.3571595905102
 30
0.0
 11
-732.0617775944136
 21
144.8747976807153
 31
0.0
  0
LINE
  5
385
  8
0
 10
-732.3796148396095
 20
147.2890112430884
 30
0.0
 11
-732.0617775944136
 21
146.8747976807153
 31
0.0
  0
LINE
  5
386
  8
0
 10
-732.7938284019826
 20
147.6068484882841
 30
0.0
 11
-732.3796148396095
 21
147.2890112430884
 31
0.0
  0
LINE
  5
387
  8
0
 10
-734.3114664921876
 20
147.8066493332934
 30
0.0
 11
-733.7938284019825
 21
147.8747976807153
 31
0.0
  0
LINE
  5
388
  8
0
 10
-734.7938284019825
 20
147.6068484882841
 30
0.0
 11
-734.3114664921876
 21
147.8066493332934
 31
0.0
  0
LINE
  5
389
  8
0
 10
-735.5258792095515
 20
144.8747976807153
 30
0.0
 11
-735.7256800545606
 21
145.3571595905102
 31
0.0
  0
LINE
  5
38A
  8
0
 10
-734.3114664921876
 20
143.9429460281371
 30
0.0
 11
-734.7938284019825
 21
144.1427468731464
 31
0.0
  0
LINE
  5
38B
  8
0
 10
-731.8619767494044
 20
146.3924357709203
 30
0.0
 11
-731.7938284019825
 21
145.8747976807153
 31
0.0
  0
LINE
  5
38C
  8
0
 10
-733.7938284019825
 20
147.8747976807153
 30
0.0
 11
-733.2761903117774
 21
147.8066493332934
 31
0.0
  0
LINE
  5
38D
  8
0
 10
-735.2080419643555
 20
147.2890112430884
 30
0.0
 11
-734.7938284019825
 21
147.6068484882841
 31
0.0
  0
LINE
  5
38E
  8
0
 10
-732.7938284019826
 20
144.1427468731464
 30
0.0
 11
-733.2761903117774
 21
143.9429460281371
 31
0.0
  0
LINE
  5
38F
  8
0
 10
-732.0617775944136
 20
146.8747976807153
 30
0.0
 11
-731.8619767494044
 21
146.3924357709203
 31
0.0
  0
LINE
  5
390
  8
0
 10
-735.7256800545606
 20
146.3924357709203
 30
0.0
 11
-735.5258792095515
 21
146.8747976807153
 31
0.0
  0
LINE
  5
391
  8
0
 10
-734.7938284019825
 20
144.1427468731464
 30
0.0
 11
-735.2080419643555
 21
144.4605841183422
 31
0.0
  0
LINE
  5
392
  8
0
 10
-732.0617775944136
 20
144.8747976807153
 30
0.0
 11
-732.3796148396095
 21
144.4605841183422
 31
0.0
  0
LINE
  5
393
  8
0
 10
-735.2080419643555
 20
144.4605841183422
 30
0.0
 11
-735.5258792095515
 21
144.8747976807153
 31
0.0
  0
LINE
  5
394
  8
0
 10
-733.2761903117774
 20
147.8066493332934
 30
0.0
 11
-732.7938284019826
 21
147.6068484882841
 31
0.0
  0
LINE
  5
395
  8
0
 10
-735.5258792095515
 20
146.8747976807153
 30
0.0
 11
-735.2080419643555
 21
147.2890112430884
 31
0.0
  0
LINE
  5
396
  8
0
 10
93.57431994543774
 20
0.2482044907072904
 30
0.0
 11
93.77412079044686
 21
0.7305664005022656
 31
0.0
  0
LINE
  5
397
  8
0
 10
94.98853350781074
 20
-2.201285252075854
 30
0.0
 11
94.50617159801585
 21
-2.0014844070666
 31
0.0
  0
LINE
  5
398
  8
0
 10
97.43802325059389
 20
0.2482044907072904
 30
0.0
 11
97.5061715980159
 21
-0.2694335994977326
 31
0.0
  0
LINE
  5
399
  8
0
 10
96.92038516038882
 20
-1.683647161870831
 30
0.0
 11
96.50617159801577
 21
-2.0014844070666
 31
0.0
  0
LINE
  5
39A
  8
0
 10
96.50617159801577
 20
-2.0014844070666
 30
0.0
 11
96.02380968822088
 21
-2.201285252075854
 31
0.0
  0
LINE
  5
39B
  8
0
 10
94.50617159801585
 20
-2.0014844070666
 30
0.0
 11
94.0919580356428
 21
-1.683647161870831
 31
0.0
  0
LINE
  5
39C
  8
0
 10
95.50617159801581
 20
-2.269433599497729
 30
0.0
 11
94.98853350781074
 21
-2.201285252075854
 31
0.0
  0
LINE
  5
39D
  8
0
 10
97.23822240558476
 20
0.7305664005022656
 30
0.0
 11
97.43802325059389
 21
0.2482044907072904
 31
0.0
  0
LINE
  5
39E
  8
0
 10
97.43802325059389
 20
-0.7870716897027555
 30
0.0
 11
97.23822240558476
 21
-1.269433599497731
 31
0.0
  0
LINE
  5
39F
  8
0
 10
97.5061715980159
 20
-0.2694335994977326
 30
0.0
 11
97.43802325059389
 21
-0.7870716897027555
 31
0.0
  0
LINE
  5
3A0
  8
0
 10
-506.3509204577414
 20
0.7607235018925205
 30
0.0
 11
-506.0330832125454
 21
1.174937064265621
 31
0.0
  0
LINE
  5
3A1
  8
0
 10
-506.5507213027505
 20
-0.7569145883125006
 30
0.0
 11
-506.6188696501725
 21
-0.2392764981074776
 31
0.0
  0
LINE
  5
3A2
  8
0
 10
-503.6188696501725
 20
1.492774309461389
 30
0.0
 11
-503.2046560877994
 21
1.174937064265621
 31
0.0
  0
LINE
  5
3A3
  8
0
 10
-502.8868188426035
 20
0.7607235018925205
 30
0.0
 11
-502.6870179975944
 21
0.2783615920975454
 31
0.0
  0
LINE
  5
3A4
  8
0
 10
-503.2046560877994
 20
-1.653490060480576
 30
0.0
 11
-503.6188696501725
 21
-1.971327305676345
 31
0.0
  0
LINE
  5
3A5
  8
0
 10
-504.1012315599673
 20
-2.171128150685599
 30
0.0
 11
-504.6188696501724
 21
-2.239276498107474
 31
0.0
  0
LINE
  5
3A6
  8
0
 10
-505.6188696501724
 20
1.492774309461389
 30
0.0
 11
-505.1365077403775
 21
1.692575154470644
 31
0.0
  0
LINE
  5
3A7
  8
0
 10
-502.6870179975944
 20
-0.7569145883125006
 30
0.0
 11
-502.8868188426035
 21
-1.239276498107476
 31
0.0
  0
LINE
  5
3A8
  8
0
 10
-506.5507213027505
 20
0.2783615920975454
 30
0.0
 11
-506.3509204577414
 21
0.7607235018925205
 31
0.0
  0
LINE
  5
3A9
  8
0
 10
-505.1365077403775
 20
1.692575154470644
 30
0.0
 11
-504.6188696501724
 21
1.760723501892519
 31
0.0
  0
LINE
  5
3AA
  8
0
 10
-506.0330832125454
 20
1.174937064265621
 30
0.0
 11
-505.6188696501724
 21
1.492774309461389
 31
0.0
  0
LINE
  5
3AB
  8
0
 10
-503.6188696501725
 20
-1.971327305676345
 30
0.0
 11
-504.1012315599673
 21
-2.171128150685599
 31
0.0
  0
LINE
  5
3AC
  8
0
 10
-502.6870179975944
 20
0.2783615920975454
 30
0.0
 11
-502.6188696501724
 21
-0.2392764981074776
 31
0.0
  0
LINE
  5
3AD
  8
0
 10
-506.0330832125454
 20
-1.653490060480576
 30
0.0
 11
-506.3509204577414
 21
-1.239276498107476
 31
0.0
  0
LINE
  5
3AE
  8
0
 10
-503.2046560877994
 20
1.174937064265621
 30
0.0
 11
-502.8868188426035
 21
0.7607235018925205
 31
0.0
  0
LINE
  5
3AF
  8
0
 10
-504.6188696501724
 20
1.760723501892519
 30
0.0
 11
-504.1012315599673
 21
1.692575154470644
 31
0.0
  0
LINE
  5
3B0
  8
0
 10
-505.1365077403775
 20
-2.171128150685599
 30
0.0
 11
-505.6188696501724
 21
-1.971327305676345
 31
0.0
  0
LINE
  5
3B1
  8
0
 10
-502.6188696501724
 20
-0.2392764981074776
 30
0.0
 11
-502.6870179975944
 21
-0.7569145883125006
 31
0.0
  0
LINE
  5
3B2
  8
0
 10
-502.8868188426035
 20
-1.239276498107476
 30
0.0
 11
-503.2046560877994
 21
-1.653490060480576
 31
0.0
  0
LINE
  5
3B3
  8
0
 10
-504.1012315599673
 20
1.692575154470644
 30
0.0
 11
-503.6188696501725
 21
1.492774309461389
 31
0.0
  0
LINE
  5
3B4
  8
0
 10
-506.3509204577414
 20
-1.239276498107476
 30
0.0
 11
-506.5507213027505
 21
-0.7569145883125006
 31
0.0
  0
LINE
  5
3B5
  8
0
 10
-505.6188696501724
 20
-1.971327305676345
 30
0.0
 11
-506.0330832125454
 21
-1.653490060480576
 31
0.0
  0
LINE
  5
3B6
  8
0
 10
-504.6188696501724
 20
-2.239276498107474
 30
0.0
 11
-505.1365077403775
 21
-2.171128150685599
 31
0.0
  0
LINE
  5
3B7
  8
0
 10
-506.6188696501725
 20
-0.2392764981074776
 30
0.0
 11
-506.5507213027505
 21
0.2783615920975454
 31
0.0
  0
LINE
  5
3B8
  8
0
 10
380.9388475741207
 20
252.0832806315048
 30
0.0
 11
381.0416276515574
 21
251.8485995333999
 31
0.0
  0
LINE
  5
3B9
  8
0
 10
352.0511477561986
 20
209.5179006720499
 30
0.0
 11
354.1780697050846
 21
211.1695183050418
 31
0.0
  0
LINE
  5
3BA
  8
0
 10
381.3016308160347
 20
251.2600353789141
 30
0.0
 11
381.3732176022081
 21
251.0862561023889
 31
0.0
  0
LINE
  5
3BB
  8
0
 10
377.1019166192983
 20
221.9656583779963
 30
0.0
 11
378.6931669963531
 21
222.9491481067552
 31
0.0
  0
LINE
  5
3BC
  8
0
 10
381.0416276515574
 20
251.8485995333999
 30
0.0
 11
381.1361452668974
 21
251.6363818129278
 31
0.0
  0
LINE
  5
3BD
  8
0
 10
375.2650149500537
 20
221.0295841459342
 30
0.0
 11
377.1019166192983
 21
221.9656583779963
 31
0.0
  0
LINE
  5
3BE
  8
0
 10
368.6743099423189
 20
218.2895456357668
 30
0.0
 11
371.0118208362501
 21
219.2131586542359
 31
0.0
  0
LINE
  5
3BF
  8
0
 10
381.5924114353097
 20
250.374508698022
 30
0.0
 11
381.6319686966249
 21
250.1682878649045
 31
0.0
  0
LINE
  5
3C0
  8
0
 10
354.1780697050846
 20
211.1695183050418
 30
0.0
 11
356.4532481149183
 21
212.6522426405671
 31
0.0
  0
LINE
  5
3C1
  8
0
 10
381.7537791308233
 20
248.726215732568
 30
0.0
 11
381.7651120265009
 21
248.321830742308
 31
0.0
  0
LINE
  5
3C2
  8
0
 10
271.0707702599572
 20
337.5658892737445
 30
0.0
 11
288.9476013706231
 21
329.5479541367463
 31
0.0
  0
LINE
  5
3C3
  8
0
 10
305.0702393071641
 20
321.187842747636
 30
0.0
 11
319.5296294991237
 21
312.5588990482324
 31
0.0
  0
LINE
  5
3C4
  8
0
 10
381.2227098463267
 20
251.4418021885966
 30
0.0
 11
381.3016308160347
 21
251.2600353789141
 31
0.0
  0
LINE
  5
3C5
  8
0
 10
366.2487108574532
 20
217.3268245963293
 30
0.0
 11
368.6743099423189
 21
218.2895456357668
 31
0.0
  0
LINE
  5
3C6
  8
0
 10
362.5536214120677
 20
276.8216799840891
 30
0.0
 11
370.0609543243066
 21
267.9487338605214
 31
0.0
  0
LINE
  5
3C7
  8
0
 10
376.4507120692369
 20
259.2470190775813
 30
0.0
 11
380.8274956083985
 21
252.3452503887342
 31
0.0
  0
LINE
  5
3C8
  8
0
 10
288.9476013706231
 20
329.5479541367463
 30
0.0
 11
305.0702393071641
 21
321.187842747636
 31
0.0
  0
LINE
  5
3C9
  8
0
 10
251.3488005456202
 20
345.168304216809
 30
0.0
 11
271.0707702599572
 21
337.5658892737445
 31
0.0
  0
LINE
  5
3CA
  8
0
 10
229.690746798067
 20
352.2818550241202
 30
0.0
 11
251.3488005456202
 21
345.168304216809
 31
0.0
  0
LINE
  5
3CB
  8
0
 10
381.7385157396756
 20
249.0855101595746
 30
0.0
 11
381.7537791308233
 21
248.726215732568
 31
0.0
  0
LINE
  5
3CC
  8
0
 10
348.3996363425247
 20
205.6214619960006
 30
0.0
 11
350.1118730435742
 21
207.6757588621749
 31
0.0
  0
LINE
  5
3CD
  8
0
 10
381.437779631035
 20
250.915639077529
 30
0.0
 11
381.4956263287021
 21
250.7433590228424
 31
0.0
  0
LINE
  5
3CE
  8
0
 10
380.9811507726406
 20
225.1448975720296
 30
0.0
 11
381.5991026212448
 21
226.4004190673778
 31
0.0
  0
LINE
  5
3CF
  8
0
 10
152.1906270606546
 20
369.9558832133345
 30
0.0
 11
180.2026054851294
 21
364.7489884642031
 31
0.0
  0
LINE
  5
3D0
  8
0
 10
180.2026054851294
 20
364.7489884642031
 30
0.0
 11
206.0056635877515
 21
358.8331977538583
 31
0.0
  0
LINE
  5
3D1
  8
0
 10
381.1361452668974
 20
251.6363818129278
 30
0.0
 11
381.2227098463267
 21
251.4418021885966
 31
0.0
  0
LINE
  5
3D2
  8
0
 10
381.7190124268692
 20
249.4045393048198
 30
0.0
 11
381.7385157396756
 21
249.0855101595746
 31
0.0
  0
LINE
  5
3D3
  8
0
 10
345.813840076405
 20
292.9992986119635
 30
0.0
 11
353.8377679029752
 21
285.792513506464
 31
0.0
  0
LINE
  5
3D4
  8
0
 10
381.5991026212448
 20
226.4004190673778
 30
0.0
 11
381.7728238528952
 21
247.8675299073026
 31
0.0
  0
LINE
  5
3D5
  8
0
 10
350.1118730435742
 20
207.6757588621749
 30
0.0
 11
352.0511477561986
 21
209.5179006720499
 31
0.0
  0
LINE
  5
3D6
  8
0
 10
358.8372922103854
 20
213.9877045580421
 30
0.0
 11
361.2908112161725
 21
215.1975349368833
 31
0.0
  0
LINE
  5
3D7
  8
0
 10
343.8224483674844
 20
294.7878904858263
 30
0.0
 11
345.813840076405
 21
292.9992986119635
 31
0.0
  0
LINE
  5
3D8
  8
0
 10
332.4167173760488
 20
303.7344669803555
 30
0.0
 11
343.8224483674844
 21
294.7878904858263
 31
0.0
  0
LINE
  5
3D9
  8
0
 10
370.0609543243066
 20
267.9487338605214
 30
0.0
 11
376.4507120692369
 21
259.2470190775813
 31
0.0
  0
LINE
  5
3DA
  8
0
 10
319.5296294991237
 20
312.5588990482324
 30
0.0
 11
332.4167173760488
 21
303.7344669803555
 31
0.0
  0
LINE
  5
3DB
  8
0
 10
-560.5629469078428
 20
369.9558832133345
 30
0.0
 11
-588.5749253323177
 21
364.7489884642031
 31
0.0
  0
LINE
  5
3DC
  8
0
 10
371.0118208362501
 20
219.2131586542359
 30
0.0
 11
373.2218527639332
 21
220.119294531153
 31
0.0
  0
LINE
  5
3DD
  8
0
 10
373.2218527639332
 20
220.119294531153
 30
0.0
 11
375.2650149500537
 21
221.0295841459342
 31
0.0
  0
LINE
  5
3DE
  8
0
 10
381.7651120265009
 20
248.321830742308
 30
0.0
 11
381.7728238528952
 21
247.8675299073026
 31
0.0
  0
LINE
  5
3DF
  8
0
 10
353.8377679029752
 20
285.792513506464
 30
0.0
 11
362.5536214120677
 21
276.8216799840891
 31
0.0
  0
LINE
  5
3E0
  8
0
 10
380.8274956083985
 20
252.3452503887342
 30
0.0
 11
380.9388475741207
 21
252.0832806315048
 31
0.0
  0
LINE
  5
3E1
  8
0
 10
363.7744143569665
 20
216.3033646565069
 30
0.0
 11
366.2487108574532
 21
217.3268245963293
 31
0.0
  0
LINE
  5
3E2
  8
0
 10
381.3732176022081
 20
251.0862561023889
 30
0.0
 11
381.437779631035
 21
250.915639077529
 31
0.0
  0
LINE
  5
3E3
  8
0
 10
381.4956263287021
 20
250.7433590228424
 30
0.0
 11
381.5470671213981
 21
250.5645906568375
 31
0.0
  0
LINE
  5
3E4
  8
0
 10
378.6931669963531
 20
222.9491481067552
 30
0.0
 11
379.9993753059053
 21
224.0016842116275
 31
0.0
  0
LINE
  5
3E5
  8
0
 10
381.5470671213981
 20
250.5645906568375
 30
0.0
 11
381.5924114353097
 21
250.374508698022
 31
0.0
  0
LINE
  5
3E6
  8
0
 10
381.6660483315319
 20
249.9411028759928
 30
0.0
 11
381.6949597662173
 21
249.6881284497952
 31
0.0
  0
LINE
  5
3E7
  8
0
 10
-754.1861599235939
 20
-85.21012042291136
 30
0.0
 11
-754.1861599235939
 21
200.7898795770884
 31
0.0
  0
LINE
  5
3E8
  8
0
 10
345.813840076405
 20
200.7898795770884
 30
0.0
 11
346.9538284283637
 21
203.3333791941106
 31
0.0
  0
LINE
  5
3E9
  8
0
 10
345.813840076405
 20
200.7898795770884
 30
0.0
 11
345.8138400764056
 21
-34.66785834774161
 31
0.0
  0
LINE
  5
3EA
  8
0
 10
346.9538284283637
 20
203.3333791941106
 30
0.0
 11
348.3996363425247
 21
205.6214619960006
 31
0.0
  0
LINE
  5
3EB
  8
0
 10
-754.1861599235939
 20
200.7898795770884
 30
0.0
 11
-755.3261482755523
 21
203.3333791941106
 31
0.0
  0
LINE
  5
3EC
  8
0
 10
-497.5484473751541
 20
377.9496090606769
 30
0.0
 11
-530.2511027319699
 21
374.3805380594325
 31
0.0
  0
LINE
  5
3ED
  8
0
 10
-530.2511027319699
 20
374.3805380594325
 30
0.0
 11
-560.5629469078428
 21
369.9558832133345
 31
0.0
  0
LINE
  5
3EE
  8
0
 10
121.8787828847817
 20
374.3805380594325
 30
0.0
 11
152.1906270606546
 21
369.9558832133345
 31
0.0
  0
LINE
  5
3EF
  8
0
 10
-789.6739506632236
 20
251.2600353789141
 30
0.0
 11
-789.745537449397
 21
251.0862561023889
 31
0.0
  0
LINE
  5
3F0
  8
0
 10
-779.3841406834391
 20
219.2131586542359
 30
0.0
 11
-781.5941726111217
 21
220.119294531153
 31
0.0
  0
LINE
  5
3F1
  8
0
 10
-790.1108355868645
 20
249.0855101595746
 30
0.0
 11
-790.1260989780125
 21
248.726215732568
 31
0.0
  0
LINE
  5
3F2
  8
0
 10
53.99171556066156
 20
380.589752275248
 30
0.0
 11
89.17612752796587
 21
377.9496090606769
 31
0.0
  0
LINE
  5
3F3
  8
0
 10
-789.508465114086
 20
251.6363818129278
 30
0.0
 11
-789.5950296935158
 21
251.4418021885966
 31
0.0
  0
LINE
  5
3F4
  8
0
 10
356.4532481149183
 20
212.6522426405671
 30
0.0
 11
358.8372922103854
 21
213.9877045580421
 31
0.0
  0
LINE
  5
3F5
  8
0
 10
-679.4430901071461
 20
337.5658892737445
 30
0.0
 11
-697.3199212178121
 21
329.5479541367463
 31
0.0
  0
LINE
  5
3F6
  8
0
 10
-754.1861599235939
 20
292.9992986119635
 30
0.0
 11
-762.2100877501642
 21
285.792513506464
 31
0.0
  0
LINE
  5
3F7
  8
0
 10
361.2908112161725
 20
215.1975349368833
 30
0.0
 11
363.7744143569665
 21
216.3033646565069
 31
0.0
  0
LINE
  5
3F8
  8
0
 10
-754.1861599235939
 20
-85.21012042291136
 30
0.0
 11
-754.1519393690891
 21
-85.73222519179154
 31
0.0
  0
LINE
  5
3F9
  8
0
 10
89.17612752796587
 20
377.9496090606769
 30
0.0
 11
121.8787828847817
 21
374.3805380594325
 31
0.0
  0
LINE
  5
3FA
  8
0
 10
-24.18615992359455
 20
382.7898795770886
 30
0.0
 11
-384.1861599235938
 21
382.7898795770886
 31
0.0
  0
LINE
  5
3FB
  8
0
 10
379.9993753059053
 20
224.0016842116275
 30
0.0
 11
380.9811507726406
 21
225.1448975720296
 31
0.0
  0
LINE
  5
3FC
  8
0
 10
-778.4332741714954
 20
267.9487338605214
 30
0.0
 11
-784.8230319164261
 21
259.2470190775813
 31
0.0
  0
LINE
  5
3FD
  8
0
 10
-751.2214361040039
 20
-89.0738237280676
 30
0.0
 11
-750.7082646924739
 21
-89.17589986840655
 31
0.0
  0
LINE
  5
3FE
  8
0
 10
-762.2100877501642
 20
285.792513506464
 30
0.0
 11
-770.9259412592567
 21
276.8216799840891
 31
0.0
  0
LINE
  5
3FF
  8
0
 10
381.6949597662173
 20
249.6881284497952
 30
0.0
 11
381.7190124268692
 21
249.4045393048198
 31
0.0
  0
LINE
  5
400
  8
0
 10
-784.8230319164261
 20
259.2470190775813
 30
0.0
 11
-789.1998154555874
 21
252.3452503887342
 31
0.0
  0
LINE
  5
401
  8
0
 10
-789.9193869685867
 20
250.5645906568375
 30
0.0
 11
-789.9647312824984
 21
250.374508698022
 31
0.0
  0
LINE
  5
402
  8
0
 10
-754.04986322875
 20
-86.2453966033214
 30
0.0
 11
-753.881678053639
 21
-86.74085415237174
 31
0.0
  0
LINE
  5
403
  8
0
 10
-777.0466297895081
 20
218.2895456357668
 30
0.0
 11
-779.3841406834391
 21
219.2131586542359
 31
0.0
  0
LINE
  5
404
  8
0
 10
-789.8100994782237
 20
250.915639077529
 30
0.0
 11
-789.8679461758909
 21
250.7433590228424
 31
0.0
  0
LINE
  5
405
  8
0
 10
-727.9019493463124
 20
312.5588990482324
 30
0.0
 11
-740.7890372232375
 21
303.7344669803555
 31
0.0
  0
LINE
  5
406
  8
0
 10
-789.745537449397
 20
251.0862561023889
 30
0.0
 11
-789.8100994782237
 21
250.915639077529
 31
0.0
  0
LINE
  5
407
  8
0
 10
-758.484192890763
 20
207.6757588621749
 30
0.0
 11
-760.4234676033875
 21
209.5179006720499
 31
0.0
  0
LINE
  5
408
  8
0
 10
-789.3111674213094
 20
252.0832806315048
 30
0.0
 11
-789.4139474987463
 21
251.8485995333999
 31
0.0
  0
LINE
  5
409
  8
0
 10
16.23460155332316
 20
382.2276237613249
 30
0.0
 11
53.99171556066156
 21
380.589752275248
 31
0.0
  0
LINE
  5
40A
  8
0
 10
-790.0042885438138
 20
250.1682878649045
 30
0.0
 11
-790.0383681787206
 21
249.9411028759928
 31
0.0
  0
LINE
  5
40B
  8
0
 10
-774.6210307046424
 20
217.3268245963293
 30
0.0
 11
-777.0466297895081
 21
218.2895456357668
 31
0.0
  0
LINE
  5
40C
  8
0
 10
-753.0145870483401
 20
-88.03854754765756
 30
0.0
 11
-752.6212056396287
 21
-88.38353378407628
 31
0.0
  0
LINE
  5
40D
  8
0
 10
-752.1947682146731
 20
294.7878904858263
 30
0.0
 11
-754.1861599235939
 21
292.9992986119635
 31
0.0
  0
LINE
  5
40E
  8
0
 10
-754.1519393690891
 20
-85.73222519179154
 30
0.0
 11
-754.04986322875
 21
-86.2453966033214
 31
0.0
  0
LINE
  5
40F
  8
0
 10
-789.9714224684337
 20
226.4004190673778
 30
0.0
 11
-790.1451437000842
 21
247.8675299073026
 31
0.0
  0
LINE
  5
410
  8
0
 10
381.6319686966249
 20
250.1682878649045
 30
0.0
 11
381.6660483315319
 21
249.9411028759928
 31
0.0
  0
LINE
  5
411
  8
0
 10
-753.881678053639
 20
-86.74085415237174
 30
0.0
 11
-753.6502615387316
 21
-87.21012042291134
 31
0.0
  0
LINE
  5
412
  8
0
 10
-755.3261482755523
 20
203.3333791941106
 30
0.0
 11
-756.7719561897133
 21
205.6214619960006
 31
0.0
  0
LINE
  5
413
  8
0
 10
-588.5749253323177
 20
364.7489884642031
 30
0.0
 11
-614.3779834349402
 21
358.8331977538583
 31
0.0
  0
LINE
  5
414
  8
0
 10
-424.6069214005116
 20
382.2276237613249
 30
0.0
 11
-462.3640354078498
 21
380.589752275248
 31
0.0
  0
LINE
  5
415
  8
0
 10
206.0056635877515
 20
358.8331977538583
 30
0.0
 11
229.690746798067
 21
352.2818550241202
 31
0.0
  0
LINE
  5
416
  8
0
 10
-752.6212056396287
 20
-88.38353378407628
 30
0.0
 11
-752.1861599235938
 21
-88.6742220380491
 31
0.0
  0
LINE
  5
417
  8
0
 10
-789.1998154555874
 20
252.3452503887342
 30
0.0
 11
-789.3111674213094
 21
252.0832806315048
 31
0.0
  0
LINE
  5
418
  8
0
 10
-756.7719561897133
 20
205.6214619960006
 30
0.0
 11
-758.484192890763
 21
207.6757588621749
 31
0.0
  0
LINE
  5
419
  8
0
 10
-740.7890372232375
 20
303.7344669803555
 30
0.0
 11
-752.1947682146731
 21
294.7878904858263
 31
0.0
  0
LINE
  5
41A
  8
0
 10
-751.7168936530542
 20
-88.90563855295647
 30
0.0
 11
-751.2214361040039
 21
-89.0738237280676
 31
0.0
  0
LINE
  5
41B
  8
0
 10
-753.3595732847588
 20
-87.64516613894625
 30
0.0
 11
-753.0145870483401
 21
-88.03854754765756
 31
0.0
  0
LINE
  5
41C
  8
0
 10
-384.1861599235938
 20
382.7898795770886
 30
0.0
 11
-424.6069214005116
 21
382.2276237613249
 31
0.0
  0
LINE
  5
41D
  8
0
 10
-790.0913322740581
 20
249.4045393048198
 30
0.0
 11
-790.1108355868645
 21
249.0855101595746
 31
0.0
  0
LINE
  5
41E
  8
0
 10
-750.7082646924739
 20
-89.17589986840655
 30
0.0
 11
-750.1861599235939
 21
-89.21012042291134
 31
0.0
  0
LINE
  5
41F
  8
0
 10
-753.6502615387316
 20
-87.21012042291134
 30
0.0
 11
-753.3595732847588
 21
-87.64516613894625
 31
0.0
  0
LINE
  5
420
  8
0
 10
-24.18615992359455
 20
382.7898795770886
 30
0.0
 11
16.23460155332316
 21
382.2276237613249
 31
0.0
  0
LINE
  5
421
  8
0
 10
-787.0654868435422
 20
222.9491481067552
 30
0.0
 11
-788.3716951530943
 21
224.0016842116275
 31
0.0
  0
LINE
  5
422
  8
0
 10
-789.5950296935158
 20
251.4418021885966
 30
0.0
 11
-789.6739506632236
 21
251.2600353789141
 31
0.0
  0
LINE
  5
423
  8
0
 10
-789.4139474987463
 20
251.8485995333999
 30
0.0
 11
-789.508465114086
 21
251.6363818129278
 31
0.0
  0
LINE
  5
424
  8
0
 10
-790.1374318736898
 20
248.321830742308
 30
0.0
 11
-790.1451437000842
 21
247.8675299073026
 31
0.0
  0
LINE
  5
425
  8
0
 10
-659.721120392809
 20
345.168304216809
 30
0.0
 11
-679.4430901071461
 21
337.5658892737445
 31
0.0
  0
LINE
  5
426
  8
0
 10
-760.4234676033875
 20
209.5179006720499
 30
0.0
 11
-762.5503895522734
 21
211.1695183050418
 31
0.0
  0
LINE
  5
427
  8
0
 10
-788.3716951530943
 20
224.0016842116275
 30
0.0
 11
-789.3534706198293
 21
225.1448975720296
 31
0.0
  0
LINE
  5
428
  8
0
 10
-783.6373347972423
 20
221.0295841459342
 30
0.0
 11
-785.474236466487
 21
221.9656583779963
 31
0.0
  0
LINE
  5
429
  8
0
 10
-785.474236466487
 20
221.9656583779963
 30
0.0
 11
-787.0654868435422
 21
222.9491481067552
 31
0.0
  0
LINE
  5
42A
  8
0
 10
-614.3779834349402
 20
358.8331977538583
 30
0.0
 11
-638.0630666452554
 21
352.2818550241202
 31
0.0
  0
LINE
  5
42B
  8
0
 10
-790.1260989780125
 20
248.726215732568
 30
0.0
 11
-790.1374318736898
 21
248.321830742308
 31
0.0
  0
LINE
  5
42C
  8
0
 10
-462.3640354078498
 20
380.589752275248
 30
0.0
 11
-497.5484473751541
 21
377.9496090606769
 31
0.0
  0
LINE
  5
42D
  8
0
 10
-752.1861599235938
 20
-88.6742220380491
 30
0.0
 11
-751.7168936530542
 21
-88.90563855295647
 31
0.0
  0
LINE
  5
42E
  8
0
 10
-770.9259412592567
 20
276.8216799840891
 30
0.0
 11
-778.4332741714954
 21
267.9487338605214
 31
0.0
  0
LINE
  5
42F
  8
0
 10
-789.8679461758909
 20
250.7433590228424
 30
0.0
 11
-789.9193869685867
 21
250.5645906568375
 31
0.0
  0
LINE
  5
430
  8
0
 10
-781.5941726111217
 20
220.119294531153
 30
0.0
 11
-783.6373347972423
 21
221.0295841459342
 31
0.0
  0
LINE
  5
431
  8
0
 10
342.8491162568161
 20
-89.0738237280676
 30
0.0
 11
342.3359448452862
 21
-89.17589986840655
 31
0.0
  0
LINE
  5
432
  8
0
 10
-764.8255679621069
 20
212.6522426405671
 30
0.0
 11
-767.2096120575743
 21
213.9877045580421
 31
0.0
  0
LINE
  5
433
  8
0
 10
344.6422672011522
 20
-88.03854754765756
 30
0.0
 11
344.2488857924408
 21
-88.38353378407628
 31
0.0
  0
LINE
  5
434
  8
0
 10
345.6775433815621
 20
-86.2453966033214
 30
0.0
 11
345.509358206451
 21
-86.74085415237165
 31
0.0
  0
LINE
  5
435
  8
0
 10
-697.3199212178121
 20
329.5479541367463
 30
0.0
 11
-713.4425591543524
 21
321.187842747636
 31
0.0
  0
LINE
  5
436
  8
0
 10
345.8138400764056
 20
-34.66785834774161
 30
0.0
 11
345.8138400764058
 21
-85.21012042291136
 31
0.0
  0
LINE
  5
437
  8
0
 10
-789.3534706198293
 20
225.1448975720296
 30
0.0
 11
-789.9714224684337
 21
226.4004190673778
 31
0.0
  0
LINE
  5
438
  8
0
 10
344.2488857924408
 20
-88.38353378407628
 30
0.0
 11
343.8138400764059
 21
-88.6742220380491
 31
0.0
  0
LINE
  5
439
  8
0
 10
-762.5503895522734
 20
211.1695183050418
 30
0.0
 11
-764.8255679621069
 21
212.6522426405671
 31
0.0
  0
LINE
  5
43A
  8
0
 10
-638.0630666452554
 20
352.2818550241202
 30
0.0
 11
-659.721120392809
 21
345.168304216809
 31
0.0
  0
LINE
  5
43B
  8
0
 10
343.3445738058663
 20
-88.90563855295647
 30
0.0
 11
342.8491162568161
 21
-89.0738237280676
 31
0.0
  0
LINE
  5
43C
  8
0
 10
-772.1467342041557
 20
216.3033646565069
 30
0.0
 11
-774.6210307046424
 21
217.3268245963293
 31
0.0
  0
LINE
  5
43D
  8
0
 10
345.7796195219011
 20
-85.73222519179154
 30
0.0
 11
345.6775433815621
 21
-86.2453966033214
 31
0.0
  0
LINE
  5
43E
  8
0
 10
-750.1861599235939
 20
-89.21012042291134
 30
0.0
 11
331.2555954154058
 21
-89.21012042291134
 31
0.0
  0
LINE
  5
43F
  8
0
 10
-789.9647312824984
 20
250.374508698022
 30
0.0
 11
-790.0042885438138
 21
250.1682878649045
 31
0.0
  0
LINE
  5
440
  8
0
 10
343.8138400764059
 20
-88.6742220380491
 30
0.0
 11
343.3445738058663
 21
-88.90563855295647
 31
0.0
  0
LINE
  5
441
  8
0
 10
345.8138400764058
 20
-85.21012042291136
 30
0.0
 11
345.7796195219011
 21
-85.73222519179154
 31
0.0
  0
LINE
  5
442
  8
0
 10
345.2779416915437
 20
-87.21012042291134
 30
0.0
 11
344.9872534375709
 21
-87.64516613894625
 31
0.0
  0
LINE
  5
443
  8
0
 10
331.2555954154058
 20
-89.21012042291134
 30
0.0
 11
341.8138400764059
 21
-89.21012042291134
 31
0.0
  0
LINE
  5
444
  8
0
 10
-769.6631310633617
 20
215.1975349368833
 30
0.0
 11
-772.1467342041557
 21
216.3033646565069
 31
0.0
  0
LINE
  5
445
  8
0
 10
344.9872534375709
 20
-87.64516613894625
 30
0.0
 11
344.6422672011522
 21
-88.03854754765756
 31
0.0
  0
LINE
  5
446
  8
0
 10
-790.0672796134061
 20
249.6881284497952
 30
0.0
 11
-790.0913322740581
 21
249.4045393048198
 31
0.0
  0
LINE
  5
447
  8
0
 10
342.3359448452862
 20
-89.17589986840655
 30
0.0
 11
341.8138400764059
 21
-89.21012042291134
 31
0.0
  0
LINE
  5
448
  8
0
 10
-713.4425591543524
 20
321.187842747636
 30
0.0
 11
-727.9019493463124
 21
312.5588990482324
 31
0.0
  0
LINE
  5
449
  8
0
 10
-767.2096120575743
 20
213.9877045580421
 30
0.0
 11
-769.6631310633617
 21
215.1975349368833
 31
0.0
  0
LINE
  5
44A
  8
0
 10
-790.0383681787206
 20
249.9411028759928
 30
0.0
 11
-790.0672796134061
 21
249.6881284497952
 31
0.0
  0
LINE
  5
44B
  8
0
 10
345.509358206451
 20
-86.74085415237165
 30
0.0
 11
345.2779416915437
 21
-87.21012042291134
 31
0.0
  0
LINE
  5
44C
  8
0
 10
284.8197391000266
 20
79.55567137789436
 30
0.0
 11
283.8667986563972
 21
79.43021438843854
 31
0.0
  0
LINE
  5
44D
  8
0
 10
280.3103765041832
 20
84.065033973739
 30
0.0
 11
280.6781977860471
 21
84.95303310094509
 31
0.0
  0
LINE
  5
44E
  8
0
 10
280.1849195147288
 20
83.11209353010841
 30
0.0
 11
280.3103765041832
 21
84.065033973739
 31
0.0
  0
LINE
  5
44F
  8
0
 10
280.6781977860471
 20
84.95303310094509
 30
0.0
 11
281.2633169478142
 21
85.71557523869306
 31
0.0
  0
LINE
  5
450
  8
0
 10
286.4702803649791
 20
80.50861182152553
 30
0.0
 11
285.7077382272325
 21
79.92349265975979
 31
0.0
  0
LINE
  5
451
  8
0
 10
282.025859085563
 20
79.92349265975918
 30
0.0
 11
281.2633169478129
 21
80.50861182152492
 31
0.0
  0
LINE
  5
452
  8
0
 10
281.2633169478142
 20
85.71557523869306
 30
0.0
 11
282.0258590855629
 21
86.30069440045853
 31
0.0
  0
LINE
  5
453
  8
0
 10
282.0258590855629
 20
86.30069440045853
 30
0.0
 11
282.9138582127677
 21
86.66851568232309
 31
0.0
  0
LINE
  5
454
  8
0
 10
284.8197391000281
 20
86.6685156823231
 30
0.0
 11
285.7077382272334
 21
86.30069440045884
 31
0.0
  0
LINE
  5
455
  8
0
 10
285.7077382272334
 20
86.30069440045884
 30
0.0
 11
286.470280364979
 21
85.7155752386931
 31
0.0
  0
LINE
  5
456
  8
0
 10
286.470280364979
 20
85.7155752386931
 30
0.0
 11
287.0553995267477
 21
84.95303310094513
 31
0.0
  0
LINE
  5
457
  8
0
 10
287.0553995267477
 20
84.95303310094513
 30
0.0
 11
287.4232208086102
 21
84.06503397373906
 31
0.0
  0
LINE
  5
458
  8
0
 10
280.6781977860472
 20
81.27115395927433
 30
0.0
 11
280.3103765041832
 21
82.15915308647983
 31
0.0
  0
LINE
  5
459
  8
0
 10
283.8667986563972
 20
79.43021438843854
 30
0.0
 11
282.9138582127678
 21
79.55567137789434
 31
0.0
  0
LINE
  5
45A
  8
0
 10
281.2633169478129
 20
80.50861182152492
 30
0.0
 11
280.6781977860472
 21
81.27115395927433
 31
0.0
  0
LINE
  5
45B
  8
0
 10
283.8667986563979
 20
86.79397267177775
 30
0.0
 11
284.8197391000281
 21
86.6685156823231
 31
0.0
  0
LINE
  5
45C
  8
0
 10
287.5486777980663
 20
83.11209353010847
 30
0.0
 11
287.4232208086102
 21
82.15915308647989
 31
0.0
  0
LINE
  5
45D
  8
0
 10
280.3103765041832
 20
82.15915308647983
 30
0.0
 11
280.1849195147288
 21
83.11209353010841
 31
0.0
  0
LINE
  5
45E
  8
0
 10
282.9138582127677
 20
86.66851568232309
 30
0.0
 11
283.8667986563979
 21
86.79397267177775
 31
0.0
  0
LINE
  5
45F
  8
0
 10
287.4232208086102
 20
84.06503397373906
 30
0.0
 11
287.5486777980663
 21
83.11209353010847
 31
0.0
  0
LINE
  5
460
  8
0
 10
287.4232208086102
 20
82.15915308647989
 30
0.0
 11
287.0553995267477
 21
81.27115395927439
 31
0.0
  0
LINE
  5
461
  8
0
 10
287.0553995267477
 20
81.27115395927439
 30
0.0
 11
286.4702803649791
 21
80.50861182152553
 31
0.0
  0
LINE
  5
462
  8
0
 10
282.9138582127678
 20
79.55567137789434
 30
0.0
 11
282.025859085563
 21
79.92349265975918
 31
0.0
  0
LINE
  5
463
  8
0
 10
285.7077382272325
 20
79.92349265975979
 30
0.0
 11
284.8197391000266
 21
79.55567137789436
 31
0.0
  0
LINE
  5
464
  8
0
 10
-596.9715941561609
 20
-46.09597133654014
 30
0.0
 11
-596.5504638063722
 21
-47.11266993852675
 31
0.0
  0
LINE
  5
465
  8
0
 10
-596.5504638063722
 20
-51.79211827398039
 30
0.0
 11
-597.4535636258141
 21
-53.97239410625357
 31
0.0
  0
LINE
  5
466
  8
0
 10
-608.6388560457389
 20
-57.76323322611813
 30
0.0
 11
-613.59327239589
 21
-52.808816875967
 31
0.0
  0
LINE
  5
467
  8
0
 10
-607.6221574437523
 20
-40.72042463660042
 30
0.0
 11
-605.2824332760255
 21
-40.41239410625356
 31
0.0
  0
LINE
  5
468
  8
0
 10
-609.8024332760255
 20
-41.62352445604222
 30
0.0
 11
-607.6221574437523
 21
-40.72042463660042
 31
0.0
  0
LINE
  5
469
  8
0
 10
-598.890187974099
 20
-55.84463940817999
 30
0.0
 11
-600.7624332760254
 21
-57.28126375646492
 31
0.0
  0
LINE
  5
46A
  8
0
 10
-597.4535636258141
 20
-53.97239410625357
 30
0.0
 11
-598.890187974099
 21
-55.84463940817999
 31
0.0
  0
LINE
  5
46B
  8
0
 10
-611.6746785779518
 20
-43.06014880432715
 30
0.0
 11
-609.8024332760255
 21
-41.62352445604222
 31
0.0
  0
LINE
  5
46C
  8
0
 10
-600.7624332760254
 20
-57.28126375646492
 30
0.0
 11
-602.9427091082986
 21
-58.18436357590672
 31
0.0
  0
LINE
  5
46D
  8
0
 10
-613.1113029262368
 20
-44.93239410625357
 30
0.0
 11
-611.6746785779518
 21
-43.06014880432715
 31
0.0
  0
LINE
  5
46E
  8
0
 10
-614.3224332760254
 20
-49.45239410625356
 30
0.0
 11
-614.0144027456786
 21
-47.11266993852675
 31
0.0
  0
LINE
  5
46F
  8
0
 10
-602.9427091082986
 20
-58.18436357590672
 30
0.0
 11
-605.2824332760255
 21
-58.49239410625357
 31
0.0
  0
LINE
  5
470
  8
0
 10
-605.2824332760255
 20
-40.41239410625356
 30
0.0
 11
-602.9427091082986
 21
-40.72042463660042
 31
0.0
  0
LINE
  5
471
  8
0
 10
-601.9260105063121
 20
-41.141554986389
 30
0.0
 11
-596.9715941561609
 21
-46.09597133654014
 31
0.0
  0
LINE
  5
472
  8
0
 10
-602.9427091082986
 20
-40.72042463660042
 30
0.0
 11
-601.9260105063121
 21
-41.141554986389
 31
0.0
  0
LINE
  5
473
  8
0
 10
-614.0144027456786
 20
-47.11266993852675
 30
0.0
 11
-613.1113029262368
 21
-44.93239410625357
 31
0.0
  0
LINE
  5
474
  8
0
 10
-607.6221574437523
 20
-58.18436357590672
 30
0.0
 11
-608.6388560457389
 21
-57.76323322611813
 31
0.0
  0
LINE
  5
475
  8
0
 10
-614.0144027456786
 20
-51.79211827398039
 30
0.0
 11
-614.3224332760254
 21
-49.45239410625356
 31
0.0
  0
LINE
  5
476
  8
0
 10
-613.59327239589
 20
-52.808816875967
 30
0.0
 11
-614.0144027456786
 21
-51.79211827398039
 31
0.0
  0
LINE
  5
477
  8
0
 10
-596.5504638063722
 20
-47.11266993852675
 30
0.0
 11
-596.2424332760254
 21
-49.45239410625356
 31
0.0
  0
LINE
  5
478
  8
0
 10
-605.2824332760255
 20
-58.49239410625357
 30
0.0
 11
-607.6221574437523
 21
-58.18436357590672
 31
0.0
  0
LINE
  5
479
  8
0
 10
-596.2424332760254
 20
-49.45239410625356
 30
0.0
 11
-596.5504638063722
 21
-51.79211827398039
 31
0.0
  0
LINE
  5
47A
  8
0
 10
23.50327281492432
 20
114.296470330853
 30
0.0
 11
-166.4966956886059
 21
114.2964703232717
 31
0.0
  0
LINE
  5
47B
  8
0
 10
-166.4966956886059
 20
114.2964703232717
 30
0.0
 11
-166.4966956928625
 21
64.29647776757012
 31
0.0
  0
LINE
  5
47C
  8
0
 10
-166.4966956928625
 20
64.29647776757012
 30
0.0
 11
23.50327281559642
 21
64.29647777267805
 31
0.0
  0
LINE
  5
47D
  8
0
 10
23.50327281559642
 20
64.29647777267805
 30
0.0
 11
23.50327281492432
 21
114.296470330853
 31
0.0
  0
LINE
  5
47E
  8
0
 10
-257.0085019297264
 20
190.1861900440587
 30
0.0
 11
-255.6939569792449
 21
190.6952847150039
 31
0.0
  0
LINE
  5
47F
  8
0
 10
-255.6939569792449
 20
190.6952847150039
 30
0.0
 11
-254.292440665156
 21
190.8468031368681
 31
0.0
  0
LINE
  5
480
  8
0
 10
-254.292440665156
 20
190.8468031368681
 30
0.0
 11
-252.8994640081497
 21
190.6304195795971
 31
0.0
  0
LINE
  5
481
  8
0
 10
-249.1707230417223
 20
186.7244637675985
 30
0.0
 11
-249.0192046198582
 21
185.3229474535095
 31
0.0
  0
LINE
  5
482
  8
0
 10
-249.6798177126676
 20
188.0390087180801
 30
0.0
 11
-249.1707230417223
 21
186.7244637675985
 31
0.0
  0
LINE
  5
483
  8
0
 10
-252.8994640081497
 20
190.6304195795971
 30
0.0
 11
-251.6099560653983
 21
190.0608802250283
 31
0.0
  0
LINE
  5
484
  8
0
 10
-249.2355881771292
 20
183.9299707965033
 30
0.0
 11
-249.805127531698
 21
182.6404628537519
 31
0.0
  0
LINE
  5
485
  8
0
 10
-249.0192046198582
 20
185.3229474535095
 30
0.0
 11
-249.2355881771292
 21
183.9299707965033
 31
0.0
  0
LINE
  5
486
  8
0
 10
-251.6099560653983
 20
190.0608802250283
 30
0.0
 11
-250.5117946721877
 21
189.1769982389673
 31
0.0
  0
LINE
  5
487
  8
0
 10
-250.5117946721877
 20
189.1769982389673
 30
0.0
 11
-249.6798177126676
 21
188.0390087180801
 31
0.0
  0
LINE
  5
488
  8
0
 10
-253.1415439891279
 20
180.2012298300759
 30
0.0
 11
-254.5430603032168
 21
180.0497114082118
 31
0.0
  0
LINE
  5
489
  8
0
 10
-251.8269990386463
 20
180.7103245010211
 30
0.0
 11
-253.1415439891279
 21
180.2012298300759
 31
0.0
  0
LINE
  5
48A
  8
0
 10
-257.2255449029744
 20
180.8356343200516
 30
0.0
 11
-258.323706296185
 21
181.7195163061126
 31
0.0
  0
LINE
  5
48B
  8
0
 10
-249.805127531698
 20
182.6404628537519
 30
0.0
 11
-250.689009517759
 21
181.5423014605413
 31
0.0
  0
LINE
  5
48C
  8
0
 10
-250.689009517759
 20
181.5423014605413
 30
0.0
 11
-251.8269990386463
 21
180.7103245010211
 31
0.0
  0
LINE
  5
48D
  8
0
 10
-254.5430603032168
 20
180.0497114082118
 30
0.0
 11
-255.936036960223
 21
180.2660949654828
 31
0.0
  0
LINE
  5
48E
  8
0
 10
-258.323706296185
 20
181.7195163061126
 30
0.0
 11
-259.1556832557052
 21
182.8575058269998
 31
0.0
  0
LINE
  5
48F
  8
0
 10
-259.8162963485145
 20
185.5735670915704
 30
0.0
 11
-259.5999127912436
 21
186.9665437485766
 31
0.0
  0
LINE
  5
490
  8
0
 10
-255.936036960223
 20
180.2660949654828
 30
0.0
 11
-257.2255449029744
 21
180.8356343200516
 31
0.0
  0
LINE
  5
491
  8
0
 10
-259.1556832557052
 20
182.8575058269998
 30
0.0
 11
-259.6647779266504
 21
184.1720507774814
 31
0.0
  0
LINE
  5
492
  8
0
 10
-259.0303734366747
 20
188.256051691328
 30
0.0
 11
-258.1464914506137
 21
189.3542130845386
 31
0.0
  0
LINE
  5
493
  8
0
 10
-259.6647779266504
 20
184.1720507774814
 30
0.0
 11
-259.8162963485145
 21
185.5735670915704
 31
0.0
  0
LINE
  5
494
  8
0
 10
-258.1464914506137
 20
189.3542130845386
 30
0.0
 11
-257.0085019297264
 21
190.1861900440587
 31
0.0
  0
LINE
  5
495
  8
0
 10
-259.5999127912436
 20
186.9665437485766
 30
0.0
 11
-259.0303734366747
 21
188.256051691328
 31
0.0
  0
LINE
  5
496
  8
0
 10
-523.9797176975638
 20
88.1334004007236
 30
0.0
 11
-524.6612011717824
 21
93.30978130277401
 31
0.0
  0
LINE
  5
497
  8
0
 10
-521.9817092474713
 20
83.30978130277398
 30
0.0
 11
-523.9797176975638
 21
88.1334004007236
 31
0.0
  0
LINE
  5
498
  8
0
 10
-518.8033367955135
 20
79.16764567904308
 30
0.0
 11
-521.9817092474713
 21
83.30978130277398
 31
0.0
  0
LINE
  5
499
  8
0
 10
-514.6612011717824
 20
75.98927322708525
 30
0.0
 11
-518.8033367955135
 21
79.16764567904308
 31
0.0
  0
LINE
  5
49A
  8
0
 10
-509.8375820738329
 20
73.99126477699267
 30
0.0
 11
-514.6612011717824
 21
75.98927322708525
 31
0.0
  0
LINE
  5
49B
  8
0
 10
-504.6612011717825
 20
73.30978130277401
 30
0.0
 11
-509.8375820738329
 21
73.99126477699267
 31
0.0
  0
LINE
  5
49C
  8
0
 10
-499.4848202697321
 20
73.99126477699267
 30
0.0
 11
-504.6612011717825
 21
73.30978130277401
 31
0.0
  0
LINE
  5
49D
  8
0
 10
-494.6612011717825
 20
75.98927322708525
 30
0.0
 11
-499.4848202697321
 21
73.99126477699267
 31
0.0
  0
LINE
  5
49E
  8
0
 10
-490.5190655480515
 20
79.16764567904308
 30
0.0
 11
-494.6612011717825
 21
75.98927322708525
 31
0.0
  0
LINE
  5
49F
  8
0
 10
-487.3406930960937
 20
83.30978130277403
 30
0.0
 11
-490.5190655480515
 21
79.16764567904308
 31
0.0
  0
LINE
  5
4A0
  8
0
 10
-485.3426846460011
 20
88.1334004007236
 30
0.0
 11
-487.3406930960937
 21
83.30978130277403
 31
0.0
  0
LINE
  5
4A1
  8
0
 10
-484.6612011717825
 20
93.30978130277401
 30
0.0
 11
-485.3426846460011
 21
88.1334004007236
 31
0.0
  0
LINE
  5
4A2
  8
0
 10
-485.3426846460011
 20
98.48616220482442
 30
0.0
 11
-484.6612011717825
 21
93.30978130277401
 31
0.0
  0
LINE
  5
4A3
  8
0
 10
-487.3406930960937
 20
103.309781302774
 30
0.0
 11
-485.3426846460011
 21
98.48616220482442
 31
0.0
  0
LINE
  5
4A4
  8
0
 10
-490.5190655480515
 20
107.4519169265049
 30
0.0
 11
-487.3406930960937
 21
103.309781302774
 31
0.0
  0
LINE
  5
4A5
  8
0
 10
-494.6612011717825
 20
110.6302893784628
 30
0.0
 11
-490.5190655480515
 21
107.4519169265049
 31
0.0
  0
LINE
  5
4A6
  8
0
 10
-499.4848202697321
 20
112.6282978285554
 30
0.0
 11
-494.6612011717825
 21
110.6302893784628
 31
0.0
  0
LINE
  5
4A7
  8
0
 10
-504.6612011717825
 20
113.309781302774
 30
0.0
 11
-499.4848202697321
 21
112.6282978285554
 31
0.0
  0
LINE
  5
4A8
  8
0
 10
-509.8375820738329
 20
112.6282978285554
 30
0.0
 11
-504.6612011717825
 21
113.309781302774
 31
0.0
  0
LINE
  5
4A9
  8
0
 10
-514.6612011717824
 20
110.6302893784628
 30
0.0
 11
-509.8375820738329
 21
112.6282978285554
 31
0.0
  0
LINE
  5
4AA
  8
0
 10
-518.8033367955135
 20
107.4519169265049
 30
0.0
 11
-514.6612011717824
 21
110.6302893784628
 31
0.0
  0
LINE
  5
4AB
  8
0
 10
-521.9817092474713
 20
103.309781302774
 30
0.0
 11
-518.8033367955135
 21
107.4519169265049
 31
0.0
  0
LINE
  5
4AC
  8
0
 10
-523.9797176975638
 20
98.48616220482442
 30
0.0
 11
-521.9817092474713
 21
103.309781302774
 31
0.0
  0
LINE
  5
4AD
  8
0
 10
-524.6612011717824
 20
93.30978130277401
 30
0.0
 11
-523.9797176975638
 21
98.48616220482442
 31
0.0
  0
LINE
  5
4AE
  8
0
 10
-108.7481949857681
 20
-12.69974466026827
 30
0.0
 11
-108.7481949857681
 21
-63.69974466026827
 31
0.0
  0
LINE
  5
4AF
  8
0
 10
-102.3981949857681
 20
-12.69974466026827
 30
0.0
 11
-108.7481949857681
 21
-12.69974466026827
 31
0.0
  0
LINE
  5
4B0
  8
0
 10
-108.7481949857681
 20
-63.69974466026827
 30
0.0
 11
-102.3981949857681
 21
-63.69974466026827
 31
0.0
  0
LINE
  5
4B1
  8
0
 10
-102.3981949857681
 20
-63.69974466026827
 30
0.0
 11
-102.3981949857681
 21
-12.69974466026827
 31
0.0
  0
LINE
  5
4B2
  8
0
 10
-727.6003863204438
 20
-65.59696369761714
 30
0.0
 11
-726.150638852138
 21
-66.70939405580238
 31
0.0
  0
LINE
  5
4B3
  8
0
 10
-722.650638852138
 20
-53.64721622931132
 30
0.0
 11
-724.4623721678556
 21
-53.88573544528781
 31
0.0
  0
LINE
  5
4B4
  8
0
 10
-724.4623721678556
 20
-53.88573544528781
 30
0.0
 11
-726.150638852138
 21
-54.58503840282022
 31
0.0
  0
LINE
  5
4B5
  8
0
 10
-726.150638852138
 20
-54.58503840282022
 30
0.0
 11
-727.6003863204438
 21
-55.69746876100546
 31
0.0
  0
LINE
  5
4B6
  8
0
 10
-727.6003863204438
 20
-55.69746876100546
 30
0.0
 11
-728.712816678629
 21
-57.14721622931128
 31
0.0
  0
LINE
  5
4B7
  8
0
 10
-728.712816678629
 20
-57.14721622931128
 30
0.0
 11
-729.4121196361614
 21
-58.83548291359365
 31
0.0
  0
LINE
  5
4B8
  8
0
 10
-729.4121196361614
 20
-58.83548291359365
 30
0.0
 11
-729.6506388521378
 21
-60.6472162293113
 31
0.0
  0
LINE
  5
4B9
  8
0
 10
-729.6506388521378
 20
-60.6472162293113
 30
0.0
 11
-729.4121196361614
 21
-62.45894954502895
 31
0.0
  0
LINE
  5
4BA
  8
0
 10
-729.4121196361614
 20
-62.45894954502895
 30
0.0
 11
-728.712816678629
 21
-64.14721622931133
 31
0.0
  0
LINE
  5
4BB
  8
0
 10
-728.712816678629
 20
-64.14721622931133
 30
0.0
 11
-727.6003863204438
 21
-65.59696369761714
 31
0.0
  0
LINE
  5
4BC
  8
0
 10
-726.150638852138
 20
-66.70939405580238
 30
0.0
 11
-724.4623721678556
 21
-67.4086970133348
 31
0.0
  0
LINE
  5
4BD
  8
0
 10
-724.4623721678556
 20
-67.4086970133348
 30
0.0
 11
-722.650638852138
 21
-67.64721622931128
 31
0.0
  0
LINE
  5
4BE
  8
0
 10
-722.650638852138
 20
-67.64721622931128
 30
0.0
 11
-720.8389055364203
 21
-67.4086970133348
 31
0.0
  0
LINE
  5
4BF
  8
0
 10
-720.8389055364203
 20
-67.4086970133348
 30
0.0
 11
-719.150638852138
 21
-66.70939405580238
 31
0.0
  0
LINE
  5
4C0
  8
0
 10
-719.150638852138
 20
-66.70939405580238
 30
0.0
 11
-717.7008913838321
 21
-65.59696369761714
 31
0.0
  0
LINE
  5
4C1
  8
0
 10
-717.7008913838321
 20
-65.59696369761714
 30
0.0
 11
-716.5884610256469
 21
-64.14721622931133
 31
0.0
  0
LINE
  5
4C2
  8
0
 10
-716.5884610256469
 20
-64.14721622931133
 30
0.0
 11
-715.8891580681145
 21
-62.45894954502895
 31
0.0
  0
LINE
  5
4C3
  8
0
 10
-715.8891580681145
 20
-62.45894954502895
 30
0.0
 11
-715.650638852138
 21
-60.6472162293113
 31
0.0
  0
LINE
  5
4C4
  8
0
 10
-715.650638852138
 20
-60.6472162293113
 30
0.0
 11
-715.8891580681145
 21
-58.83548291359365
 31
0.0
  0
LINE
  5
4C5
  8
0
 10
-715.8891580681145
 20
-58.83548291359365
 30
0.0
 11
-716.5884610256469
 21
-57.14721622931128
 31
0.0
  0
LINE
  5
4C6
  8
0
 10
-716.5884610256469
 20
-57.14721622931128
 30
0.0
 11
-717.7008913838321
 21
-55.69746876100546
 31
0.0
  0
LINE
  5
4C7
  8
0
 10
-717.7008913838321
 20
-55.69746876100546
 30
0.0
 11
-719.150638852138
 21
-54.58503840282022
 31
0.0
  0
LINE
  5
4C8
  8
0
 10
-719.150638852138
 20
-54.58503840282022
 30
0.0
 11
-720.8389055364203
 21
-53.88573544528781
 31
0.0
  0
LINE
  5
4C9
  8
0
 10
-720.8389055364203
 20
-53.88573544528781
 30
0.0
 11
-722.650638852138
 21
-53.64721622931132
 31
0.0
  0
LINE
  5
4CA
  8
0
 10
-716.5884610256469
 20
-32.14721622931129
 30
0.0
 11
-717.7008913838321
 21
-30.69746876100546
 31
0.0
  0
LINE
  5
4CB
  8
0
 10
-722.650638852138
 20
-42.64721622931129
 30
0.0
 11
-720.8389055364203
 21
-42.40869701333479
 31
0.0
  0
LINE
  5
4CC
  8
0
 10
-720.8389055364203
 20
-42.40869701333479
 30
0.0
 11
-719.150638852138
 21
-41.70939405580238
 31
0.0
  0
LINE
  5
4CD
  8
0
 10
-719.150638852138
 20
-41.70939405580238
 30
0.0
 11
-717.7008913838321
 21
-40.59696369761715
 31
0.0
  0
LINE
  5
4CE
  8
0
 10
-717.7008913838321
 20
-40.59696369761715
 30
0.0
 11
-716.5884610256469
 21
-39.14721622931132
 31
0.0
  0
LINE
  5
4CF
  8
0
 10
-716.5884610256469
 20
-39.14721622931132
 30
0.0
 11
-715.8891580681145
 21
-37.45894954502895
 31
0.0
  0
LINE
  5
4D0
  8
0
 10
-715.8891580681145
 20
-37.45894954502895
 30
0.0
 11
-715.650638852138
 21
-35.6472162293113
 31
0.0
  0
LINE
  5
4D1
  8
0
 10
-715.650638852138
 20
-35.6472162293113
 30
0.0
 11
-715.8891580681145
 21
-33.83548291359366
 31
0.0
  0
LINE
  5
4D2
  8
0
 10
-715.8891580681145
 20
-33.83548291359366
 30
0.0
 11
-716.5884610256469
 21
-32.14721622931129
 31
0.0
  0
LINE
  5
4D3
  8
0
 10
-717.7008913838321
 20
-30.69746876100546
 30
0.0
 11
-719.150638852138
 21
-29.58503840282022
 31
0.0
  0
LINE
  5
4D4
  8
0
 10
-719.150638852138
 20
-29.58503840282022
 30
0.0
 11
-720.8389055364203
 21
-28.88573544528781
 31
0.0
  0
LINE
  5
4D5
  8
0
 10
-720.8389055364203
 20
-28.88573544528781
 30
0.0
 11
-722.650638852138
 21
-28.64721622931132
 31
0.0
  0
LINE
  5
4D6
  8
0
 10
-722.650638852138
 20
-28.64721622931132
 30
0.0
 11
-724.4623721678556
 21
-28.88573544528781
 31
0.0
  0
LINE
  5
4D7
  8
0
 10
-724.4623721678556
 20
-28.88573544528781
 30
0.0
 11
-726.150638852138
 21
-29.58503840282022
 31
0.0
  0
LINE
  5
4D8
  8
0
 10
-726.150638852138
 20
-29.58503840282022
 30
0.0
 11
-727.6003863204438
 21
-30.69746876100546
 31
0.0
  0
LINE
  5
4D9
  8
0
 10
-727.6003863204438
 20
-30.69746876100546
 30
0.0
 11
-728.712816678629
 21
-32.14721622931129
 31
0.0
  0
LINE
  5
4DA
  8
0
 10
-728.712816678629
 20
-32.14721622931129
 30
0.0
 11
-729.4121196361614
 21
-33.83548291359366
 31
0.0
  0
LINE
  5
4DB
  8
0
 10
-729.4121196361614
 20
-33.83548291359366
 30
0.0
 11
-729.6506388521378
 21
-35.6472162293113
 31
0.0
  0
LINE
  5
4DC
  8
0
 10
-729.6506388521378
 20
-35.6472162293113
 30
0.0
 11
-729.4121196361614
 21
-37.45894954502895
 31
0.0
  0
LINE
  5
4DD
  8
0
 10
-729.4121196361614
 20
-37.45894954502895
 30
0.0
 11
-728.712816678629
 21
-39.14721622931132
 31
0.0
  0
LINE
  5
4DE
  8
0
 10
-728.712816678629
 20
-39.14721622931132
 30
0.0
 11
-727.6003863204438
 21
-40.59696369761715
 31
0.0
  0
LINE
  5
4DF
  8
0
 10
-727.6003863204438
 20
-40.59696369761715
 30
0.0
 11
-726.150638852138
 21
-41.70939405580238
 31
0.0
  0
LINE
  5
4E0
  8
0
 10
-726.150638852138
 20
-41.70939405580238
 30
0.0
 11
-724.4623721678556
 21
-42.40869701333479
 31
0.0
  0
LINE
  5
4E1
  8
0
 10
-724.4623721678556
 20
-42.40869701333479
 30
0.0
 11
-722.650638852138
 21
-42.64721622931129
 31
0.0
  0
LINE
  5
4E2
  8
0
 10
-187.8494536679548
 20
0.7503185214031152
 30
0.0
 11
-188.1491549354687
 21
0.0267756567106524
 31
0.0
  0
LINE
  5
4E3
  8
0
 10
-198.3019040177687
 20
-70.99108400638855
 30
0.0
 11
-197.5254803730978
 21
-71.58683069468458
 31
0.0
  0
LINE
  5
4E4
  8
0
 10
-202.0507527378224
 20
-70.99115733388983
 30
0.0
 11
-201.1466091492021
 21
-70.61662807765374
 31
0.0
  0
LINE
  5
4E5
  8
0
 10
-199.206062257286
 20
-70.61659012054601
 30
0.0
 11
-198.3019040177687
 21
-70.99108400638855
 31
0.0
  0
LINE
  5
4E6
  8
0
 10
-187.747231146822
 20
1.526775656710672
 30
0.0
 11
-187.8494536679548
 21
0.7503185214031152
 31
0.0
  0
LINE
  5
4E7
  8
0
 10
-196.5551740553201
 20
-73.26737462176504
 30
0.0
 11
-196.4274161542631
 21
-74.23764556914911
 31
0.0
  0
LINE
  5
4E8
  8
0
 10
-203.9251135943704
 20
-74.23779222415166
 30
0.0
 11
-203.7973936504211
 21
-73.26751627961956
 31
0.0
  0
LINE
  5
4E9
  8
0
 10
-202.8271530762825
 20
-71.58693439543134
 30
0.0
 11
-202.0507527378224
 21
-70.99115733388983
 31
0.0
  0
LINE
  5
4EA
  8
0
 10
-202.8270493755357
 20
-76.8886070986162
 30
0.0
 11
-203.4228264370774
 21
-76.11220676015607
 31
0.0
  0
LINE
  5
4EB
  8
0
 10
-188.1491549354687
 20
0.0267756567106524
 30
0.0
 11
-188.6259108032624
 21
-0.5945446868490208
 31
0.0
  0
LINE
  5
4EC
  8
0
 10
-199.2059205994314
 20
-77.85880971564704
 30
0.0
 11
-200.1761915468155
 21
-77.98656761670397
 31
0.0
  0
LINE
  5
4ED
  8
0
 10
-193.3453073581754
 20
3.026775656710692
 30
0.0
 11
-192.8685514903816
 21
3.64809600027032
 31
0.0
  0
LINE
  5
4EE
  8
0
 10
-189.247231146822
 20
4.124851868064018
 30
0.0
 11
-188.6259108032624
 21
3.648096000270365
 31
0.0
  0
LINE
  5
4EF
  8
0
 10
-196.4274161542631
 20
-74.23764556914911
 30
0.0
 11
-196.5551360982124
 21
-75.20792151368123
 31
0.0
  0
LINE
  5
4F0
  8
0
 10
-197.5254803730978
 20
-71.58683069468458
 30
0.0
 11
-196.9297033115562
 21
-72.36323103314466
 31
0.0
  0
LINE
  5
4F1
  8
0
 10
-193.7472311468221
 20
1.526775656710672
 30
0.0
 11
-193.6450086256892
 21
2.303232792018229
 31
0.0
  0
LINE
  5
4F2
  8
0
 10
-192.8685514903816
 20
-0.5945446868490208
 30
0.0
 11
-193.3453073581754
 21
0.0267756567106524
 31
0.0
  0
LINE
  5
4F3
  8
0
 10
-188.6259108032624
 20
-0.5945446868490208
 30
0.0
 11
-189.247231146822
 21
-1.071300554642673
 31
0.0
  0
LINE
  5
4F4
  8
0
 10
-203.7973936504211
 20
-73.26751627961956
 30
0.0
 11
-203.4228997645786
 21
-72.36335804010248
 31
0.0
  0
LINE
  5
4F5
  8
0
 10
-192.2472311468221
 20
4.124851868064018
 30
0.0
 11
-191.5236882821296
 21
4.424553135577923
 31
0.0
  0
LINE
  5
4F6
  8
0
 10
-203.4228264370774
 20
-76.11220676015607
 30
0.0
 11
-203.7973556933134
 21
-75.20806317153573
 31
0.0
  0
LINE
  5
4F7
  8
0
 10
-198.3017770108111
 20
-77.48428045941095
 30
0.0
 11
-199.2059205994314
 21
-77.85880971564704
 31
0.0
  0
LINE
  5
4F8
  8
0
 10
-203.7973556933134
 20
-75.20806317153573
 30
0.0
 11
-203.9251135943704
 21
-74.23779222415166
 31
0.0
  0
LINE
  5
4F9
  8
0
 10
-202.0506257308647
 20
-77.48435378691222
 30
0.0
 11
-202.8270493755357
 21
-76.8886070986162
 31
0.0
  0
LINE
  5
4FA
  8
0
 10
-191.5236882821296
 20
-1.371001822156578
 30
0.0
 11
-192.2472311468221
 21
-1.071300554642673
 31
0.0
  0
LINE
  5
4FB
  8
0
 10
-196.9296299840549
 20
-76.11207975319833
 30
0.0
 11
-197.525376672351
 21
-76.88850339786939
 31
0.0
  0
LINE
  5
4FC
  8
0
 10
-193.3453073581754
 20
0.0267756567106524
 30
0.0
 11
-193.6450086256892
 21
0.7503185214031152
 31
0.0
  0
LINE
  5
4FD
  8
0
 10
-201.1464674913475
 20
-77.85884767275478
 30
0.0
 11
-202.0506257308647
 21
-77.48435378691222
 31
0.0
  0
LINE
  5
4FE
  8
0
 10
-200.1761915468155
 20
-77.98656761670397
 30
0.0
 11
-201.1464674913475
 21
-77.85884767275478
 31
0.0
  0
LINE
  5
4FF
  8
0
 10
-196.9297033115562
 20
-72.36323103314466
 30
0.0
 11
-196.5551740553201
 21
-73.26737462176504
 31
0.0
  0
LINE
  5
500
  8
0
 10
-203.4228997645786
 20
-72.36335804010248
 30
0.0
 11
-202.8271530762825
 21
-71.58693439543134
 31
0.0
  0
LINE
  5
501
  8
0
 10
-188.1491549354687
 20
3.026775656710692
 30
0.0
 11
-187.8494536679548
 21
2.303232792018229
 31
0.0
  0
LINE
  5
502
  8
0
 10
-193.6450086256892
 20
2.303232792018229
 30
0.0
 11
-193.3453073581754
 21
3.026775656710692
 31
0.0
  0
LINE
  5
503
  8
0
 10
-196.5551360982124
 20
-75.20792151368123
 30
0.0
 11
-196.9296299840549
 21
-76.11207975319833
 31
0.0
  0
LINE
  5
504
  8
0
 10
-189.9707740115144
 20
4.424553135577923
 30
0.0
 11
-189.247231146822
 21
4.124851868064018
 31
0.0
  0
LINE
  5
505
  8
0
 10
-201.1466091492021
 20
-70.61662807765374
 30
0.0
 11
-200.176338201818
 21
-70.48887017659676
 31
0.0
  0
LINE
  5
506
  8
0
 10
-187.8494536679548
 20
2.303232792018229
 30
0.0
 11
-187.747231146822
 21
1.526775656710672
 31
0.0
  0
LINE
  5
507
  8
0
 10
-200.176338201818
 20
-70.48887017659676
 30
0.0
 11
-199.206062257286
 21
-70.61659012054601
 31
0.0
  0
LINE
  5
508
  8
0
 10
-197.525376672351
 20
-76.88850339786939
 30
0.0
 11
-198.3017770108111
 21
-77.48428045941095
 31
0.0
  0
LINE
  5
509
  8
0
 10
-190.747231146822
 20
4.526775656710712
 30
0.0
 11
-189.9707740115144
 21
4.424553135577923
 31
0.0
  0
LINE
  5
50A
  8
0
 10
-189.247231146822
 20
-1.071300554642673
 30
0.0
 11
-189.9707740115144
 21
-1.371001822156578
 31
0.0
  0
LINE
  5
50B
  8
0
 10
-190.747231146822
 20
-1.473224343289367
 30
0.0
 11
-191.5236882821296
 21
-1.371001822156578
 31
0.0
  0
LINE
  5
50C
  8
0
 10
-169.0417743901785
 20
-3.203646207166865
 30
0.0
 11
-167.7479956758776
 21
-3.033337109771263
 31
0.0
  0
LINE
  5
50D
  8
0
 10
-164.2133559622099
 20
-4.497496062435184
 30
0.0
 11
-163.4189746002193
 21
-5.532786747197503
 31
0.0
  0
LINE
  5
50E
  8
0
 10
-172.0770930951976
 20
-5.532654516096425
 30
0.0
 11
-171.2826801106268
 21
-4.497388096193261
 31
0.0
  0
LINE
  5
50F
  8
0
 10
-172.5765299658952
 20
-9.32580652416174
 30
0.0
 11
-172.7468390632907
 21
-8.03202780986086
 31
0.0
  0
LINE
  5
510
  8
0
 10
-162.9196535915708
 20
-9.325954008790983
 30
0.0
 11
-163.4190509438812
 21
-10.53155379094891
 31
0.0
  0
LINE
  5
511
  8
0
 10
-170.2475216569657
 20
-12.3611252291809
 30
0.0
 11
-171.2827880768688
 21
-11.56671224461015
 31
0.0
  0
LINE
  5
512
  8
0
 10
-163.4189746002193
 20
-5.532786747197503
 30
0.0
 11
-162.9196140731835
 21
-6.73840178288359
 31
0.0
  0
LINE
  5
513
  8
0
 10
-162.749304975788
 20
-8.03218049718447
 30
0.0
 11
-162.9196535915708
 21
-9.325954008790983
 31
0.0
  0
LINE
  5
514
  8
0
 10
-167.7481483632012
 20
-13.03087119727407
 30
0.0
 11
-169.0419218748076
 21
-12.86052258149114
 31
0.0
  0
LINE
  5
515
  8
0
 10
-162.9196140731835
 20
-6.73840178288359
 30
0.0
 11
-162.749304975788
 21
-8.03218049718447
 31
0.0
  0
LINE
  5
516
  8
0
 10
-164.2134639284519
 20
-11.56682021085207
 30
0.0
 11
-165.2487546132143
 21
-12.3612015728427
 31
0.0
  0
LINE
  5
517
  8
0
 10
-172.7468390632907
 20
-8.03202780986086
 30
0.0
 11
-172.576490447508
 21
-6.738254298254346
 31
0.0
  0
LINE
  5
518
  8
0
 10
-167.7479956758776
 20
-3.033337109771263
 30
0.0
 11
-166.4542221642712
 21
-3.203685725554187
 31
0.0
  0
LINE
  5
519
  8
0
 10
-172.576490447508
 20
-6.738254298254346
 30
0.0
 11
-172.0770930951976
 21
-5.532654516096425
 31
0.0
  0
LINE
  5
51A
  8
0
 10
-172.0771694388594
 20
-10.53142155984783
 30
0.0
 11
-172.5765299658952
 21
-9.32580652416174
 31
0.0
  0
LINE
  5
51B
  8
0
 10
-171.2826801106268
 20
-4.497388096193261
 30
0.0
 11
-170.2473894258646
 21
-3.703006734202627
 31
0.0
  0
LINE
  5
51C
  8
0
 10
-165.2487546132143
 20
-12.3612015728427
 30
0.0
 11
-166.4543696489003
 21
-12.86056209987847
 31
0.0
  0
LINE
  5
51D
  8
0
 10
-166.4542221642712
 20
-3.203685725554187
 30
0.0
 11
-165.2486223821131
 21
-3.703083077864431
 31
0.0
  0
LINE
  5
51E
  8
0
 10
-170.2473894258646
 20
-3.703006734202627
 30
0.0
 11
-169.0417743901785
 21
-3.203646207166865
 31
0.0
  0
LINE
  5
51F
  8
0
 10
-169.0419218748076
 20
-12.86052258149114
 30
0.0
 11
-170.2475216569657
 21
-12.3611252291809
 31
0.0
  0
LINE
  5
520
  8
0
 10
-166.4543696489003
 20
-12.86056209987847
 30
0.0
 11
-167.7481483632012
 21
-13.03087119727407
 31
0.0
  0
LINE
  5
521
  8
0
 10
-171.2827880768688
 20
-11.56671224461015
 30
0.0
 11
-172.0771694388594
 21
-10.53142155984783
 31
0.0
  0
LINE
  5
522
  8
0
 10
-192.2472311468221
 20
-1.071300554642673
 30
0.0
 11
-192.8685514903816
 21
-0.5945446868490208
 31
0.0
  0
LINE
  5
523
  8
0
 10
-163.4190509438812
 20
-10.53155379094891
 30
0.0
 11
-164.2134639284519
 21
-11.56682021085207
 31
0.0
  0
LINE
  5
524
  8
0
 10
-192.8685514903816
 20
3.64809600027032
 30
0.0
 11
-192.2472311468221
 21
4.124851868064018
 31
0.0
  0
LINE
  5
525
  8
0
 10
-165.2486223821131
 20
-3.703083077864431
 30
0.0
 11
-164.2133559622099
 21
-4.497496062435184
 31
0.0
  0
LINE
  5
526
  8
0
 10
-189.9707740115144
 20
-1.371001822156578
 30
0.0
 11
-190.747231146822
 21
-1.473224343289367
 31
0.0
  0
LINE
  5
527
  8
0
 10
-193.6450086256892
 20
0.7503185214031152
 30
0.0
 11
-193.7472311468221
 21
1.526775656710672
 31
0.0
  0
LINE
  5
528
  8
0
 10
-191.5236882821296
 20
4.424553135577923
 30
0.0
 11
-190.747231146822
 21
4.526775656710712
 31
0.0
  0
LINE
  5
529
  8
0
 10
-188.6259108032624
 20
3.648096000270365
 30
0.0
 11
-188.1491549354687
 21
3.026775656710692
 31
0.0
  0
LINE
  5
52A
  8
0
 10
111.5501116606101
 20
24.39109486110137
 30
0.0
 11
244.7667302965356
 21
24.39109486110114
 31
0.0
  0
LINE
  5
52B
  8
0
 10
30.55011166061003
 20
24.39109486110133
 30
0.0
 11
111.5501116606101
 21
24.39109486110137
 31
0.0
  0
LINE
  5
52C
  8
0
 10
30.55011166060926
 20
334.3394486377317
 30
0.0
 11
30.55011166061003
 21
24.39109486110133
 31
0.0
  0
LINE
  5
52D
  8
0
 10
244.7667302965354
 20
337.1894486377315
 30
0.0
 11
111.0501116606089
 21
337.1894486377317
 31
0.0
  0
LINE
  5
52E
  8
0
 10
244.7667302965356
 20
24.39109486110114
 30
0.0
 11
244.7667302965354
 21
337.1894486377315
 31
0.0
  0
LINE
  5
52F
  8
0
 10
111.0501116606089
 20
337.1894486377317
 30
0.0
 11
111.0501116606089
 21
351.8394486377317
 31
0.0
  0
LINE
  5
530
  8
0
 10
111.0501116606089
 20
351.8394486377317
 30
0.0
 11
30.55011166060926
 21
351.8394486377317
 31
0.0
  0
LINE
  5
531
  8
0
 10
30.55011166060926
 20
334.3394486377317
 30
0.0
 11
30.55011166060926
 21
351.8394486377317
 31
0.0
  0
LINE
  5
532
  8
0
 10
-278.8693117486233
 20
-78.84373186861083
 30
0.0
 11
-444.0693117486233
 21
-78.84373186861083
 31
0.0
  0
LINE
  5
533
  8
0
 10
-444.0693117486233
 20
-78.84373186861083
 30
0.0
 11
-444.0693117486233
 21
22.35626813138916
 31
0.0
  0
LINE
  5
534
  8
0
 10
-444.0693117486233
 20
22.35626813138916
 30
0.0
 11
-278.8693117486233
 21
22.35626813138916
 31
0.0
  0
LINE
  5
535
  8
0
 10
-278.8693117486233
 20
22.35626813138916
 30
0.0
 11
-278.8693117486233
 21
-78.84373186861083
 31
0.0
  0
ENDSEC
  0
EOF
